<svg width="272" height="143" viewBox="0 0 272 143" fill="none" xmlns="http://www.w3.org/2000/svg">
<path d="M53.5648 39.888L4.44275 3.78799L6.34982 1L1.11844 4.5L1 8.54601L2.7013 6.84601L27.5082 25.979C27.7419 26.6234 28.1156 27.2085 28.6024 27.6925C29.0892 28.1765 29.6773 28.5475 30.3246 28.779C31.3364 29.0623 32.3291 29.4094 33.2967 29.818L48.8443 43.039L53.5648 39.888Z" fill="white" stroke="#263238" stroke-linecap="round" stroke-linejoin="round"/>
<path d="M154.905 60.936L141.739 50.662L139.287 50.416L151.149 61.56L154.905 60.936Z" fill="white" stroke="#263238" stroke-linecap="round" stroke-linejoin="round"/>
<path d="M167.182 63.124L66.7897 38.424C66.7897 38.424 56.7295 35.317 48.498 40.474C40.2665 45.631 38.0352 46.333 34.2452 52.82C32.3884 56.0545 31.8751 59.8843 32.8152 63.4908C33.7552 67.0973 36.074 70.1943 39.2758 72.12C46.4554 76.466 94.7534 85.287 94.7534 85.287C94.7534 85.287 106.642 91.665 111.847 92.941C117.051 94.217 127.394 95.547 129.534 95.283C130.982 95.0759 132.41 94.7528 133.805 94.317L145.338 96.805L141.067 98.905C141.067 98.905 131.007 95.798 127.156 103.853C123.306 111.908 129.808 116.81 136.055 118.487C140.186 119.704 144.602 119.541 148.631 118.022C150.588 117.275 152.947 117.967 154.685 114.915C156.424 111.863 157.21 110.215 156.332 108.915L154.576 106.309C155.639 106.2 156.681 105.949 157.677 105.562C159.279 104.655 160.784 103.587 162.167 102.373L179.123 108.232C179.123 108.232 183.941 112.569 187.043 112.952C190.146 113.335 191.003 112.168 191.003 112.168L214.919 121.134C214.919 121.134 217.15 123.612 219.116 123.995C220.407 124.218 221.731 124.171 223.003 123.858L267.35 139.348L267.751 141.908L270.879 136.441L267.084 137.279L154.78 94.86C154.78 94.86 175.586 89.448 186.442 82.769L233.808 97.949L233.231 96.254L189.79 79.579C189.79 79.579 191.482 75.624 190.256 73.793C189.159 72.3523 187.898 71.0435 186.497 69.893L212.325 22.94L206.646 21.828L172.139 62.066C172.139 62.066 171.105 62.768 167.182 63.124Z" fill="white"/>
<path opacity="0.2" d="M162.133 102.369L179.126 108.228C179.126 108.228 183.944 112.565 187.046 112.948C190.149 113.331 191.006 112.164 191.006 112.164L214.922 121.13C214.922 121.13 217.153 123.608 219.119 123.991C220.41 124.214 221.734 124.167 223.006 123.854L267.353 139.344L267.754 141.904L270.882 136.437L267.087 137.275L154.781 94.861C154.781 94.861 175.587 89.449 186.443 82.77L233.809 97.95L233.232 96.255L189.79 79.58C189.79 79.58 191.483 75.625 190.257 73.794C189.16 72.3533 187.899 71.0445 186.498 69.894L212.326 22.941L208.549 22.203C206.5 24.937 182.027 57.839 178.259 63.303C174.289 69.016 165.454 68.579 165.454 68.579C165.454 68.579 96.6695 53.198 86.5269 51.886C76.3843 50.574 64.0375 48.369 55.6605 57.586C47.2835 66.803 47.7221 74.725 47.7221 74.725L48.509 75.363C64.7522 79.81 94.6861 85.277 94.6861 85.277C94.6861 85.277 106.575 91.655 111.779 92.931C116.984 94.207 127.327 95.537 129.467 95.273C130.914 95.0659 132.343 94.7428 133.738 94.307L145.271 96.795L141 98.895C141 98.895 130.939 95.788 127.089 103.843C123.239 111.898 129.741 116.8 135.988 118.477C140.119 119.694 144.535 119.531 148.564 118.012C150.521 117.265 152.88 117.957 154.618 114.905C156.357 111.853 157.143 110.205 156.264 108.905L154.509 106.299C155.571 106.19 156.614 105.939 157.609 105.552C159.224 104.647 160.741 103.579 162.136 102.363L162.133 102.369Z" fill="black" stroke="#263238" stroke-width="0.75" stroke-linecap="round" stroke-linejoin="round"/>
<path d="M167.182 63.124L66.7897 38.424C66.7897 38.424 56.7295 35.317 48.498 40.474C40.2665 45.631 38.0352 46.333 34.2452 52.82C32.3884 56.0545 31.8751 59.8843 32.8152 63.4908C33.7552 67.0973 36.074 70.1943 39.2758 72.12C46.4554 76.466 94.7534 85.287 94.7534 85.287C94.7534 85.287 106.642 91.665 111.847 92.941C117.051 94.217 127.394 95.547 129.534 95.283C130.982 95.0759 132.41 94.7528 133.805 94.317L145.338 96.805L141.067 98.905C141.067 98.905 131.007 95.798 127.156 103.853C123.306 111.908 129.808 116.81 136.055 118.487C140.186 119.704 144.602 119.541 148.631 118.022C150.588 117.275 152.947 117.967 154.685 114.915C156.424 111.863 157.21 110.215 156.332 108.915L154.576 106.309C155.639 106.2 156.681 105.949 157.677 105.562C159.279 104.655 160.784 103.587 162.167 102.373L179.123 108.232C179.123 108.232 183.941 112.569 187.043 112.952C190.146 113.335 191.003 112.168 191.003 112.168L214.919 121.134C214.919 121.134 217.15 123.612 219.116 123.995C220.407 124.218 221.731 124.171 223.003 123.858L267.35 139.348L267.751 141.908L270.879 136.441L267.084 137.279L154.78 94.86C154.78 94.86 175.586 89.448 186.442 82.769L233.808 97.949L233.231 96.254L189.79 79.579C189.79 79.579 191.482 75.624 190.256 73.793C189.159 72.3523 187.898 71.0435 186.497 69.893L212.325 22.94L206.646 21.828L172.139 62.066C172.139 62.066 171.105 62.768 167.182 63.124Z" stroke="#263238" stroke-linecap="round" stroke-linejoin="round"/>
<path d="M58.6597 50.367L51.1318 47.187L47.5284 50.996L47.9299 51.278L56.4445 54.823L58.6597 50.367Z" fill="#263238"/>
<path d="M45.2139 43.46L44.5193 42.886C42.8913 43.886 41.5744 44.708 40.4402 45.538L41.2181 46.395L45.2139 43.46Z" fill="#263238"/>
<path d="M50.1762 46.78L46.0329 44.08L41.8895 47.123L41.9809 47.214L46.7094 50.44L50.1762 46.78Z" fill="#263238"/>
<path d="M62.6736 51.797L59.5911 50.704L57.3418 55.234L62.0593 58.013L63.1844 58.305L62.6736 51.797Z" fill="#263238"/>
<path d="M66.9083 55.114C66.5519 52.581 66.1404 53.037 66.1404 53.037L63.6713 52.126L64.1731 58.504L66.7336 59.178C67.0718 57.8497 67.1309 56.4661 66.9073 55.114H66.9083Z" fill="#263238"/>
<path d="M141.711 109.018C142.55 104.782 140.016 100.717 136.052 99.9375C132.088 99.1583 128.194 101.961 127.355 106.197C126.517 110.433 129.05 114.499 133.014 115.278C136.978 116.057 140.872 113.255 141.711 109.018Z" fill="#263238" stroke="#263238" stroke-linecap="round" stroke-linejoin="round"/>
<path d="M186.443 82.709L181.87 81.319C181.846 80.8495 181.937 80.3813 182.134 79.9544C182.332 79.5275 182.631 79.1547 183.004 78.868C184.221 78.139 189.8 79.524 189.8 79.524" fill="white"/>
<path d="M186.443 82.709L181.87 81.319C181.846 80.8495 181.937 80.3813 182.134 79.9544C182.332 79.5275 182.631 79.1547 183.004 78.868C184.221 78.139 189.8 79.524 189.8 79.524" stroke="#263238" stroke-linecap="round" stroke-linejoin="round"/>
<path d="M133.059 94.56C128.256 93.2174 123.53 91.6151 118.902 89.76C115.417 88.32 117.073 84.903 117.073 84.903L103.748 81.258C103.748 81.258 80.9754 77.249 58.2291 71.782C43.0659 68.137 35.6454 63.682 32.3833 61.112C32.5766 63.3526 33.2987 65.5161 34.4907 67.4258C35.6828 69.3355 37.3111 70.9375 39.2427 72.101C46.4223 76.447 94.7203 85.268 94.7203 85.268C94.7203 85.268 106.609 91.646 111.814 92.922C117.018 94.198 127.361 95.528 129.501 95.264C130.702 95.1123 131.891 94.8771 133.059 94.56V94.56Z" fill="#263238" stroke="#263238" stroke-width="0.75" stroke-linecap="round" stroke-linejoin="round"/>
<path d="M163.076 92.4L138.153 87.507L140.138 88.892L154.944 94.778C155.676 94.56 158.841 93.73 163.076 92.4Z" fill="#263238" stroke="#263238" stroke-width="0.75" stroke-linecap="round" stroke-linejoin="round"/>
<path d="M175.02 67.935L170.273 67.133" stroke="#263238" stroke-miterlimit="10"/>
<path d="M186.497 69.857L178.312 68.481" stroke="#263238" stroke-miterlimit="10"/>
</svg>
