<svg xmlns="http://www.w3.org/2000/svg" xmlns:xlink="http://www.w3.org/1999/xlink" width="269.881" height="141.905" viewBox="0 0 269.881 141.905">
  <defs>
    <style>
      .cls-1, .cls-2, .cls-9 {
        fill: #fff;
      }

      .cls-1, .cls-4, .cls-5, .cls-7, .cls-8, .cls-9 {
        stroke: #263238;
      }

      .cls-1, .cls-4, .cls-5, .cls-7, .cls-8 {
        stroke-linecap: round;
        stroke-linejoin: round;
      }

      .cls-3 {
        clip-path: url(#clip-path);
      }

      .cls-4, .cls-8 {
        stroke-width: 0.75px;
      }

      .cls-4 {
        opacity: 0.2;
      }

      .cls-5 {
        fill: none;
      }

      .cls-6, .cls-7, .cls-8 {
        fill: #263238;
      }

      .cls-9 {
        stroke-miterlimit: 10;
      }
    </style>
    <clipPath id="clip-path">
      <path id="Path_785" data-name="Path 785" class="cls-1" d="M328.547,281.475l-100.02-24.7s-10.023-3.107-18.224,2.05-10.424,5.859-14.2,12.346a14.269,14.269,0,0,0,5.012,19.3c7.153,4.346,55.272,13.167,55.272,13.167s11.845,6.378,17.03,7.654,15.49,2.606,17.622,2.342a27.1,27.1,0,0,0,4.255-.966l11.49,2.488-4.255,2.1s-10.023-3.107-13.859,4.948,2.642,12.957,8.866,14.634a19.654,19.654,0,0,0,12.529-.465c1.95-.747,4.3-.055,6.032-3.107s2.515-4.7,1.64-6l-1.749-2.606a11.845,11.845,0,0,0,3.089-.747,26.79,26.79,0,0,0,4.474-3.189l16.893,5.859s4.8,4.337,7.891,4.72,3.945-.784,3.945-.784l23.827,8.966s2.223,2.478,4.182,2.861a9.439,9.439,0,0,0,3.872-.137l44.183,15.49.4,2.56,3.116-5.467-3.781.838L316.191,313.211s20.729-5.412,31.545-12.091l47.19,15.18-.574-1.695-43.281-16.675s1.686-3.955.465-5.786a23.336,23.336,0,0,0-3.745-3.9l25.732-46.953-5.658-1.112-34.379,40.238S332.456,281.119,328.547,281.475Z" transform="translate(-194.222 -240.18)"/>
    </clipPath>
  </defs>
  <g id="freepik--Airplane--inject-59" transform="translate(0.5 0.5)">
    <path id="Path_781" data-name="Path 781" class="cls-1" d="M212.306,256.209l-48.94-36.1,1.9-2.788-5.212,3.5-.118,4.046,1.695-1.7L186.346,242.3a4.656,4.656,0,0,0,2.806,2.8,24.738,24.738,0,0,1,2.961,1.039l15.49,13.221Z" transform="translate(-159.94 -217.32)"/>
    <path id="Path_782" data-name="Path 782" class="cls-1" d="M326.7,282.074,313.582,271.8l-2.442-.246,11.818,11.144Z" transform="translate(-173.369 -222.137)"/>
    <path id="Path_783" data-name="Path 783" class="cls-2" d="M328.547,281.475l-100.02-24.7s-10.023-3.107-18.224,2.05-10.424,5.859-14.2,12.346a14.269,14.269,0,0,0,5.012,19.3c7.153,4.346,55.272,13.167,55.272,13.167s11.845,6.378,17.03,7.654,15.49,2.606,17.622,2.342a27.1,27.1,0,0,0,4.255-.966l11.49,2.488-4.255,2.1s-10.023-3.107-13.859,4.948,2.642,12.957,8.866,14.634a19.654,19.654,0,0,0,12.529-.465c1.95-.747,4.3-.055,6.032-3.107s2.515-4.7,1.64-6l-1.749-2.606a11.845,11.845,0,0,0,3.089-.747,26.79,26.79,0,0,0,4.474-3.189l16.893,5.859s4.8,4.337,7.891,4.72,3.945-.784,3.945-.784l23.827,8.966s2.223,2.478,4.182,2.861a9.439,9.439,0,0,0,3.872-.137l44.183,15.49.4,2.56,3.116-5.467-3.781.838L316.191,313.211s20.729-5.412,31.545-12.091l47.19,15.18-.574-1.695-43.281-16.675s1.686-3.955.465-5.786a23.336,23.336,0,0,0-3.745-3.9l25.732-46.953-5.658-1.112-34.379,40.238S332.456,281.119,328.547,281.475Z" transform="translate(-162.985 -219.35)"/>
    <g id="Group_55" data-name="Group 55" class="cls-3" transform="translate(31.237 20.83)">
      <path id="Path_784" data-name="Path 784" class="cls-4" d="M325.008,320.756l16.93,5.859s4.8,4.337,7.891,4.72,3.945-.784,3.945-.784l23.827,8.966s2.223,2.478,4.182,2.861a9.439,9.439,0,0,0,3.872-.137l44.183,15.49.4,2.56,3.116-5.467-3.781.838L317.683,313.248s20.729-5.412,31.545-12.091l47.19,15.18-.574-1.695-43.281-16.675s1.686-3.955.465-5.786a23.336,23.336,0,0,0-3.745-3.9l25.732-46.953-3.763-.738c-2.041,2.734-26.424,35.636-30.178,41.1-3.955,5.713-12.757,5.276-12.757,5.276s-68.53-15.381-78.635-16.693-22.406-3.517-30.752,5.7-7.909,17.139-7.909,17.139l.784.638c16.183,4.447,46.006,9.914,46.006,9.914s11.845,6.378,17.03,7.654,15.49,2.606,17.622,2.342a27.1,27.1,0,0,0,4.255-.966l11.49,2.488-4.255,2.1s-10.023-3.107-13.859,4.948,2.642,12.957,8.866,14.634a19.654,19.654,0,0,0,12.529-.465c1.95-.747,4.3-.055,6.032-3.107s2.515-4.7,1.64-6l-1.749-2.606a11.845,11.845,0,0,0,3.089-.747,26.784,26.784,0,0,0,4.51-3.189Z" transform="translate(-195.713 -240.216)"/>
    </g>
    <path id="Path_786" data-name="Path 786" class="cls-5" d="M328.547,281.475l-100.02-24.7s-10.023-3.107-18.224,2.05-10.424,5.859-14.2,12.346a14.269,14.269,0,0,0,5.012,19.3c7.153,4.346,55.272,13.167,55.272,13.167s11.845,6.378,17.03,7.654,15.49,2.606,17.622,2.342a27.1,27.1,0,0,0,4.255-.966l11.49,2.488-4.255,2.1s-10.023-3.107-13.859,4.948,2.642,12.957,8.866,14.634a19.654,19.654,0,0,0,12.529-.465c1.95-.747,4.3-.055,6.032-3.107s2.515-4.7,1.64-6l-1.749-2.606a11.845,11.845,0,0,0,3.089-.747,26.79,26.79,0,0,0,4.474-3.189l16.893,5.859s4.8,4.337,7.891,4.72,3.945-.784,3.945-.784l23.827,8.966s2.223,2.478,4.182,2.861a9.439,9.439,0,0,0,3.872-.137l44.183,15.49.4,2.56,3.116-5.467-3.781.838L316.191,313.211s20.729-5.412,31.545-12.091l47.19,15.18-.574-1.695-43.281-16.675s1.686-3.955.465-5.786a23.336,23.336,0,0,0-3.745-3.9l25.732-46.953-5.658-1.112-34.379,40.238S332.456,281.119,328.547,281.475Z" transform="translate(-162.985 -219.35)"/>
    <path id="Path_787" data-name="Path 787" class="cls-6" d="M221.9,271.19l-7.5-3.18-3.59,3.809.4.282,8.483,3.545Z" transform="translate(-164.458 -221.822)"/>
    <path id="Path_788" data-name="Path 788" class="cls-6" d="M207.816,263.864l-.692-.574c-1.622,1-2.934,1.822-4.064,2.652l.775.857Z" transform="translate(-163.77 -221.403)"/>
    <path id="Path_789" data-name="Path 789" class="cls-6" d="M212.9,267.3l-4.128-2.7-4.128,3.043.091.091,4.711,3.226Z" transform="translate(-163.91 -221.519)"/>
    <path id="Path_790" data-name="Path 790" class="cls-6" d="M226.852,272.963l-3.071-1.093L221.54,276.4l4.7,2.779,1.121.292Z" transform="translate(-165.411 -222.165)"/>
    <path id="Path_791" data-name="Path 791" class="cls-6" d="M231.686,276.419c-.355-2.533-.765-2.077-.765-2.077l-2.46-.911.5,6.378,2.551.674a9.95,9.95,0,0,0,.173-4.064Z" transform="translate(-166.026 -222.304)"/>
    <ellipse id="Ellipse_23" data-name="Ellipse 23" class="cls-7" cx="7.818" cy="7.289" rx="7.818" ry="7.289" transform="translate(124.37 112.868) rotate(-78.84)"/>
    <path id="Path_792" data-name="Path 792" class="cls-1" d="M362.256,306.6,357.7,305.21a2.907,2.907,0,0,1,1.13-2.451c1.212-.729,6.77.656,6.77.656" transform="translate(-177.504 -224.89)"/>
    <path id="Path_793" data-name="Path 793" class="cls-8" d="M294.553,316.74a136.793,136.793,0,0,1-14.105-4.8c-3.472-1.44-1.822-4.857-1.822-4.857l-13.276-3.645s-22.688-4.009-45.35-9.476c-15.107-3.645-22.5-8.1-25.75-10.67a14.269,14.269,0,0,0,6.834,10.989c7.153,4.346,55.272,13.167,55.272,13.167s11.845,6.378,17.03,7.654,15.49,2.606,17.622,2.342A25.856,25.856,0,0,0,294.553,316.74Z" transform="translate(-162.987 -223.179)"/>
    <path id="Path_794" data-name="Path 794" class="cls-8" d="M334.73,317.153,309.9,312.26l1.977,1.385,14.752,5.886C327.358,319.313,330.511,318.483,334.73,317.153Z" transform="translate(-173.259 -225.752)"/>
    <line id="Line_3" data-name="Line 3" class="cls-9" x1="4.729" y1="0.802" transform="translate(168.642 66.134)"/>
    <line id="Line_4" data-name="Line 4" class="cls-9" x1="8.155" y1="1.376" transform="translate(176.651 67.482)"/>
  </g>
</svg>
