<svg width="174" height="57" viewBox="0 0 174 57" fill="none" xmlns="http://www.w3.org/2000/svg">
<path d="M172.704 56.5169C172.995 55.1126 173.14 53.682 173.137 52.2479C173.139 48.5356 172.17 44.8874 170.325 41.6658C168.48 38.4442 165.825 35.7615 162.622 33.8841C159.42 32.0067 155.781 31.0001 152.069 30.9643C148.357 30.9285 144.7 31.8647 141.462 33.6799C139.879 25.2238 135.693 17.4737 129.49 11.5131C123.287 5.55248 115.376 1.67941 106.863 0.43533C98.3504 -0.80875 89.6619 0.638361 82.0121 4.57435C74.3623 8.51034 68.1337 14.7384 64.1971 22.3879C62.4734 22.089 60.7275 21.9361 58.9781 21.9309C54.0697 21.9258 49.2338 23.1158 44.8884 25.3982C40.5429 27.6806 36.8186 30.9867 34.0371 35.0309C30.8646 32.7211 27.1145 31.335 23.2024 31.0261C19.2904 30.7173 15.3692 31.4978 11.8736 33.2811C8.378 35.0644 5.44452 37.7809 3.39833 41.1294C1.35213 44.4779 0.273162 48.3277 0.281049 52.2519C0.279653 53.6853 0.4207 55.1154 0.702069 56.5209L172.704 56.5169Z" fill="white"/>
</svg>
