<svg width="136" height="46" viewBox="0 0 136 46" fill="none" xmlns="http://www.w3.org/2000/svg">
<path d="M135.553 45.1479C135.776 44.0434 135.889 42.9196 135.89 41.7929C135.89 38.8746 135.126 36.0072 133.676 33.4749C132.225 30.9427 130.138 28.8336 127.621 27.357C125.104 25.8803 122.244 25.0872 119.326 25.0565C116.408 25.0258 113.533 25.7585 110.985 27.1819C109.734 20.5362 106.438 14.4471 101.559 9.76451C96.6802 5.08196 90.4608 2.03966 83.7693 1.06234C77.0778 0.0850095 70.2481 1.22142 64.2336 4.31292C58.219 7.40441 53.3199 12.2967 50.22 18.3069C48.8617 18.0702 47.4858 17.9495 46.107 17.9459C42.2424 17.9392 38.4341 18.8728 35.0107 20.6662C31.5874 22.4596 28.6517 25.0589 26.457 28.2399C23.9609 26.45 21.0199 25.3825 17.9568 25.1545C14.8937 24.9265 11.827 25.5469 9.09342 26.9475C6.35981 28.3481 4.06496 30.4749 2.46081 33.0943C0.856664 35.7136 0.00524375 38.7243 1.72964e-05 41.7959C-0.0046575 42.9229 0.108285 44.0473 0.337015 45.1509L135.553 45.1479Z" fill="white"/>
</svg>
