<svg id="Group_48" data-name="Group 48" xmlns="http://www.w3.org/2000/svg" width="292.5" height="217.723" viewBox="0 0 292.5 217.723">
  <defs>
    <style>
      .cls-1 {
        fill: #ffc67d;
      }

      .cls-2 {
        fill: #ffe4e9;
      }

      .cls-3 {
        fill: #fff;
      }

      .cls-4 {
        fill: #ee3359;
      }

      .cls-5 {
        fill: #fafafa;
      }

      .cls-6 {
        fill: #263238;
      }

      .cls-7 {
        fill: #455a64;
      }

      .cls-10, .cls-8 {
        fill: #f5f5f5;
      }

      .cls-9 {
        fill: #ffbbc8;
      }

      .cls-10, .cls-9 {
        fill-rule: evenodd;
      }

      .cls-11 {
        fill: none;
      }

      .cls-12 {
        fill: #ffc3ac;
      }

      .cls-13 {
        fill: #e5886c;
      }

      .cls-14 {
        fill: #f6a890;
      }

      .cls-15 {
        fill: #aa6550;
      }

      .cls-16 {
        fill: #ff725e;
      }

      .cls-17 {
        opacity: 0.4;
      }

      .cls-18 {
        fill: #3a4aa1;
      }

      .cls-19 {
        opacity: 0.3;
      }
    </style>
  </defs>
  <circle id="Ellipse_11" data-name="Ellipse 11" class="cls-1" cx="100.628" cy="100.628" r="100.628" transform="translate(52.105 16.466)"/>
  <g id="Active_Support-pana" data-name="Active Support-pana" transform="translate(0 0)">
    <g id="freepik--background-complete--inject-183" transform="translate(0 12.438)">
      <path id="Path_12" data-name="Path 12" class="cls-2" d="M127.517,319.545c5.265-3.673,7.036-8.2,7.638-14.592a22.511,22.511,0,0,0-6.236-17.591c-3.741-3.824-8.89-6.338-11.68-10.909-2.97-4.853-2.868-11.506-6.993-15.446-2.834-2.7-6.978-3.426-10.424-5.3-2.81-1.529-5.12-3.809-7.691-5.712s-5.624-3.479-8.812-3.242c-4.809.364-8.555,5.086-8.783,9.9s2.46,9.429,6.139,12.549c2.669,2.266,5.954,4,7.7,7.032,3.28,5.692-.146,13.587,3.4,19.149,2.572,4.052,8.41,5.988,9.22,10.72.3,1.742-.2,3.513-.184,5.28.044,5.517,5.2,9.967,10.637,10.943s10.972-.723,16.091-2.785" transform="translate(-74.522 -169.418)"/>
      <path id="Path_13" data-name="Path 13" class="cls-3" d="M114.13,286.75a3.993,3.993,0,0,0,.577.645l1.747,1.757c.772.747,1.7,1.674,2.713,2.819s2.247,2.363,3.441,3.882q.924,1.106,1.941,2.315c.679.806,1.3,1.7,1.98,2.591,1.4,1.771,2.713,3.795,4.139,5.891a116.713,116.713,0,0,1,7.9,14.461,116.73,116.73,0,0,1,5.571,15.529c.621,2.46,1.262,4.785,1.66,7.007.214,1.106.485,2.164.626,3.2s.306,2.024.446,2.975c.33,1.893.442,3.625.611,5.144s.257,2.824.306,3.882.112,1.839.15,2.47a4.079,4.079,0,0,0,.1.864,4.587,4.587,0,0,0,.034-.864c0-.636,0-1.456-.029-2.48s-.049-2.4-.194-3.921-.214-3.266-.514-5.173q-.2-1.456-.412-3c-.146-1.038-.388-2.111-.592-3.222-.374-2.242-.971-4.581-1.606-7.061a111.665,111.665,0,0,0-5.571-15.626,113.318,113.318,0,0,0-7.987-14.558c-1.456-2.1-2.785-4.12-4.212-5.886-.7-.893-1.339-1.781-2.019-2.582l-1.97-2.3c-1.223-1.49-2.475-2.708-3.528-3.819s-2-2.024-2.8-2.747l-1.834-1.669A4.852,4.852,0,0,0,114.13,286.75Z" transform="translate(-94.91 -190.017)"/>
      <path id="Path_14" data-name="Path 14" class="cls-2" d="M610.263,201.808s-4.629-3.062-10.273,8.012a141.071,141.071,0,0,0-7.764,17.47s-1.495,2.32-3.086.8-3.775-5.823-6.483-5.042c-2.81.8-3.737,3.936-3.2,8.546s1.339,14.742,1.412,15.66-.451,2.227-1.7,1.368-8.449-8.876-12.049-5.231,0,16.232.369,17.615.1,1.975-.563,2.32-2.819-2.582-4.959-4.78-5.008-4.367-6.91-2.091-2.509,11.724,6.483,27.068l4.629,6.837,8.284-.461c17.664-2.062,24.836-8.25,25.51-11.122s-2.79-3.882-5.823-4.256-6.677-.359-6.794-1.087.185-1.305,1.509-1.844,13.549-5.246,14.286-10.312-9.992-5.988-11.428-6.469-.694-1.694.068-2.179,9.346-5.964,13.35-8.308,5.944-4.974,4.9-7.7c-1.014-2.63-5.765-1.781-7.934-2.14s-1.218-2.946-1.218-2.946A148.778,148.778,0,0,0,610.1,214.8c5.44-11.161.068-13.049.068-13.049" transform="translate(-321.268 -146.095)"/>
      <path id="Path_15" data-name="Path 15" class="cls-3" d="M611.832,222.64s-.029.083-.1.238-.184.393-.32.694c-.3.616-.723,1.5-1.267,2.65-1.106,2.305-2.722,5.624-4.736,9.705-4.033,8.191-9.705,19.459-15.98,31.882s-11.981,23.681-16.048,31.853l-4.809,9.676c-.568,1.135-1,2.024-1.31,2.635-.15.291-.262.514-.345.679l-.126.228s.029-.082.1-.238l.32-.694c.3-.616.723-1.509,1.267-2.654,1.1-2.3,2.722-5.619,4.736-9.705,4.033-8.191,9.705-19.459,15.985-31.887s11.971-23.676,16.043-31.843l4.809-9.681,1.31-2.63c.15-.291.262-.519.345-.679S611.832,222.64,611.832,222.64Z" transform="translate(-327.909 -157.017)"/>
      <path id="Path_16" data-name="Path 16" class="cls-3" d="M618.93,258.62a2.7,2.7,0,0,1,.209.563c.121.364.277.9.485,1.558.374,1.32.844,3.154,1.325,5.192s.893,3.824,1.213,5.217l.379,1.577a2.428,2.428,0,0,1,.116.587,2.7,2.7,0,0,1-.209-.563c-.121-.364-.277-.9-.461-1.558-.359-1.325-.806-3.169-1.286-5.2s-.922-3.819-1.252-5.207c-.155-.626-.286-1.15-.388-1.577A2.551,2.551,0,0,1,618.93,258.62Z" transform="translate(-354.747 -175.537)"/>
      <path id="Path_17" data-name="Path 17" class="cls-3" d="M628.14,284.075c0-.068,3.722-1.2,8.361-2.538s8.41-2.358,8.429-2.29-3.722,1.2-8.361,2.538S628.159,284.143,628.14,284.075Z" transform="translate(-359.488 -186.153)"/>
      <path id="Path_18" data-name="Path 18" class="cls-3" d="M606.45,327a3.4,3.4,0,0,1,.612-.029h1.655c1.4,0,3.334,0,5.464-.087s4.057-.214,5.454-.325l1.65-.131a3.083,3.083,0,0,1,.611,0,2.873,2.873,0,0,1-.6.121c-.388.058-.971.131-1.65.209-1.393.16-3.319.325-5.459.4s-4.076.058-5.474,0c-.7-.029-1.267-.058-1.66-.087A2.644,2.644,0,0,1,606.45,327Z" transform="translate(-348.323 -210.431)"/>
      <path id="Path_19" data-name="Path 19" class="cls-3" d="M592,301.8a2.228,2.228,0,0,1,.32.461l.8,1.31c.665,1.106,1.567,2.65,2.553,4.367s1.863,3.271,2.489,4.4l.728,1.349a2.2,2.2,0,0,1,.233.51,2.485,2.485,0,0,1-.32-.461l-.8-1.305c-.665-1.111-1.567-2.654-2.552-4.367s-1.864-3.266-2.485-4.4c-.286-.529-.534-.971-.728-1.349A2.277,2.277,0,0,1,592,301.8Z" transform="translate(-340.885 -197.764)"/>
      <path id="Path_20" data-name="Path 20" class="cls-3" d="M568.59,333.29a3.847,3.847,0,0,1,.408.6l1.029,1.669c.859,1.417,2.033,3.4,3.314,5.566s2.426,4.164,3.251,5.6c.388.694.709,1.271.971,1.713a3.615,3.615,0,0,1,.32.65,4.208,4.208,0,0,1-.408-.6l-1.029-1.674c-.859-1.417-2.033-3.4-3.314-5.561s-2.426-4.164-3.251-5.6l-.971-1.713A3.692,3.692,0,0,1,568.59,333.29Z" transform="translate(-328.835 -213.973)"/>
      <path id="Path_21" data-name="Path 21" class="cls-3" d="M587.48,363.579a3.958,3.958,0,0,1,.772-.053l2.1-.073c1.776-.058,4.227-.15,6.925-.325s5.144-.4,6.91-.573l2.1-.2a4.365,4.365,0,0,1,.772-.044,4.472,4.472,0,0,1-.762.146c-.485.078-1.2.175-2.082.286-1.766.218-4.207.485-6.915.641s-5.163.243-6.939.257h-2.106A4.088,4.088,0,0,1,587.48,363.579Z" transform="translate(-338.559 -228.908)"/>
      <path id="Path_22" data-name="Path 22" class="cls-4" d="M462.411,87.41h33.314a2.625,2.625,0,0,1,2.625,2.625V112.11a2.625,2.625,0,0,1-2.625,2.625H478.2l-8.342,8.342v-8.342h-7.444a1.941,1.941,0,0,1-1.941-1.941V89.356a1.941,1.941,0,0,1,1.941-1.946Z" transform="translate(-273.182 -87.41)"/>
      <path id="Path_23" data-name="Path 23" class="cls-5" d="M483.132,114.461a1.941,1.941,0,1,1-1.941-1.941A1.941,1.941,0,0,1,483.132,114.461Z" transform="translate(-282.849 -100.335)"/>
      <path id="Path_24" data-name="Path 24" class="cls-5" d="M499.112,114.461a1.941,1.941,0,1,1-1.941-1.941A1.941,1.941,0,0,1,499.112,114.461Z" transform="translate(-291.074 -100.335)"/>
      <path id="Path_25" data-name="Path 25" class="cls-5" d="M515.082,114.461a1.941,1.941,0,1,1-1.941-1.941A1.941,1.941,0,0,1,515.082,114.461Z" transform="translate(-299.295 -100.335)"/>
    </g>
    <g id="freepik--Plants--inject-183" transform="translate(17.821 119.608)">
      <path id="Path_26" data-name="Path 26" class="cls-4" d="M568.053,367.762c-8.337-8.109-8.482-20.653-6.308-31.542.359-1.82.485-3.78,1.606-5.246s3.343-2.232,4.853-1.194c1.257.864,1.592,2.543,2.14,3.974a10.865,10.865,0,0,0,3.625,4.8,4.2,4.2,0,0,0,3.7.971c1.718-.616,2.261-2.766,2.548-4.586q.791-5.1,1.592-10.191a17.61,17.61,0,0,1,1.432-5.338,5.673,5.673,0,0,1,4.173-3.237,3.5,3.5,0,0,1,3.882,2.984,16.557,16.557,0,0,1-.315,2.276,1.937,1.937,0,0,0,.825,1.985,2.245,2.245,0,0,0,2.135-.51,24.612,24.612,0,0,0,5.416-5.852,34.792,34.792,0,0,1,5.154-6.11,9.989,9.989,0,0,1,7.279-2.654,5.956,5.956,0,0,1,5.391,5.008c.243,2.669-1.679,5.032-3.649,6.842a41.077,41.077,0,0,1-9.773,6.687,3.417,3.417,0,0,0-1.665,1.291c-.592,1.15.364,2.543,1.495,3.135a21.618,21.618,0,0,0,4.173,1.174c1.393.4,2.824,1.271,3.145,2.7.442,1.98-1.432,3.678-3.174,4.707a35.207,35.207,0,0,1-11.268,4.266,12.071,12.071,0,0,0-4.13,1.237,3.423,3.423,0,0,0-1.708,3.683,3.482,3.482,0,0,0,3.494,2.043,24.309,24.309,0,0,0,4.241-.878c2.659-.534,5.862.165,7.109,2.586a5.829,5.829,0,0,1-.218,5.2,13.471,13.471,0,0,1-3.489,4.047,35.4,35.4,0,0,1-16.659,8.065c-6.134,1.063-11.6.738-17.018-2.31" transform="translate(-342.524 -308.257)"/>
      <path id="Path_27" data-name="Path 27" class="cls-6" d="M573,378.117A80.88,80.88,0,0,1,578.42,363.6a164.545,164.545,0,0,1,9.336-16.5l2.669-4.2c.878-1.378,1.752-2.742,2.688-4.023a82.121,82.121,0,0,1,5.794-7.066c1.941-2.159,3.882-4.134,5.707-5.969s3.557-3.5,5.2-4.964a65.663,65.663,0,0,1,8.25-6.308c1.034-.665,1.849-1.155,2.426-1.456l.636-.369a1.455,1.455,0,0,1,.223-.112,2.02,2.02,0,0,1-.2.146l-.621.393c-.544.34-1.349.849-2.368,1.529a69.5,69.5,0,0,0-8.182,6.362c-1.63,1.456-3.348,3.149-5.158,4.989s-3.732,3.819-5.673,5.978a82.928,82.928,0,0,0-5.765,7.036c-.927,1.276-1.791,2.635-2.674,4.013s-1.762,2.781-2.664,4.188a169.966,169.966,0,0,0-9.341,16.46,82.408,82.408,0,0,0-5.469,14.446" transform="translate(-348.927 -310.508)"/>
      <path id="Path_28" data-name="Path 28" class="cls-6" d="M614.6,345a3.81,3.81,0,0,1-.053-.806c0-.519,0-1.267,0-2.2.034-1.854.175-4.411.34-7.23s.272-5.377.281-7.226v-2.193a3.489,3.489,0,0,1,.029-.806,3.624,3.624,0,0,1,.1.8c.049.514.087,1.267.112,2.193.053,1.854,0,4.421-.18,7.245s-.325,5.3-.442,7.226c-.048.869-.087,1.6-.116,2.193A3.883,3.883,0,0,1,614.6,345Z" transform="translate(-370.311 -316.638)"/>
      <path id="Path_29" data-name="Path 29" class="cls-6" d="M638.737,364.835a5.2,5.2,0,0,1-.971-.044c-.611-.044-1.495-.112-2.582-.16-2.184-.121-5.2-.175-8.536-.092s-6.347.3-8.526.51c-1.087.1-1.941.2-2.572.272a5.122,5.122,0,0,1-.971.073,4.955,4.955,0,0,1,.932-.209c.6-.107,1.456-.247,2.567-.379,2.179-.277,5.2-.524,8.546-.611a83.877,83.877,0,0,1,8.555.194c1.092.082,1.975.184,2.582.272A4.754,4.754,0,0,1,638.737,364.835Z" transform="translate(-370.329 -337.032)"/>
      <path id="Path_30" data-name="Path 30" class="cls-6" d="M577.585,383.119a1.967,1.967,0,0,1-.116-.311c-.063-.209-.155-.548-.262-.912-.223-.791-.519-1.941-.864-3.4-.694-2.863-1.524-6.852-2.383-11.263s-1.65-8.4-2.281-11.282c-.311-1.4-.568-2.548-.762-3.4-.078-.374-.146-.679-.2-.927a1.3,1.3,0,0,1-.048-.33,1.963,1.963,0,0,1,.116.311c.063.209.155.548.262.912.223.791.519,1.941.864,3.4.689,2.863,1.524,6.852,2.383,11.268s1.65,8.4,2.281,11.278l.757,3.4c.083.369.151.679.2.927A1.273,1.273,0,0,1,577.585,383.119Z" transform="translate(-347.727 -330.413)"/>
      <path id="Path_31" data-name="Path 31" class="cls-6" d="M617.641,406.649a1.359,1.359,0,0,1-.33.078l-.971.155-3.508.534c-2.96.456-7.041,1.131-11.549,1.878s-8.57,1.4-11.554,1.781c-1.485.2-2.688.345-3.523.427l-.97.092a1.033,1.033,0,0,1-.335,0,1.277,1.277,0,0,1,.33-.078l.971-.155,3.5-.534c2.96-.456,7.046-1.131,11.554-1.878s8.6-1.388,11.574-1.781c1.485-.2,2.688-.345,3.523-.427l.971-.092A1.253,1.253,0,0,1,617.641,406.649Z" transform="translate(-355.052 -358.898)"/>
      <path id="Path_32" data-name="Path 32" class="cls-4" d="M112.884,351.7a10.142,10.142,0,0,1,7.808,1.388,17.857,17.857,0,0,1,5.551,5.891c2.79,4.46,3.746,10.433,3.838,15.694-5.823-.272-10.792-4.887-13.16-7.386-3.741-3.95-8.114-13.359-4.037-15.567" transform="translate(-111.247 -330.473)"/>
      <path id="Path_33" data-name="Path 33" class="cls-4" d="M166.14,389a8.6,8.6,0,0,1-2.912-8.162,11.462,11.462,0,0,1,4.984-7.332,4.8,4.8,0,0,1,3.945-1,3.688,3.688,0,0,1,2.373,2.912,7.487,7.487,0,0,1-.485,3.882c-1.5,4.246-3.727,8.08-7.9,9.744" transform="translate(-137.935 -341.26)"/>
      <path id="Path_34" data-name="Path 34" class="cls-6" d="M174.465,412.939a3.974,3.974,0,0,1-.582-.941c-.335-.621-.81-1.533-1.359-2.674a37.18,37.18,0,0,1-3.232-9.39,18.579,18.579,0,0,1,.786-9.875,11.816,11.816,0,0,1,1.427-2.669,3.461,3.461,0,0,1,.723-.839,26.142,26.142,0,0,0-1.762,3.654,19.449,19.449,0,0,0-.592,9.628,42.912,42.912,0,0,0,3.028,9.317A33.679,33.679,0,0,1,174.465,412.939Z" transform="translate(-140.961 -348.557)"/>
      <path id="Path_35" data-name="Path 35" class="cls-6" d="M122.78,366.16a10.261,10.261,0,0,1,1.267,1.31c.786.869,1.9,2.145,3.266,3.737,2.722,3.178,6.415,7.638,10.375,12.661s7.42,9.657,9.875,13.054c1.228,1.7,2.208,3.081,2.868,4.052a10.561,10.561,0,0,1,.971,1.533,11.285,11.285,0,0,1-1.16-1.4l-3.018-3.935c-2.538-3.329-6.056-7.92-10.006-12.937s-7.59-9.511-10.229-12.758l-3.13-3.858A11.089,11.089,0,0,1,122.78,366.16Z" transform="translate(-117.184 -338.062)"/>
      <path id="Path_36" data-name="Path 36" class="cls-4" d="M138.358,415.421a20.206,20.206,0,0,0-18.125-3.513c-1.558.485-3.29,1.422-3.445,3.043s1.364,2.912,2.829,3.625a17.266,17.266,0,0,0,18.955-2.766" transform="translate(-114.094 -361.196)"/>
      <path id="Path_37" data-name="Path 37" class="cls-6" d="M131.89,418.1a3.678,3.678,0,0,1,1.014-.306,9.049,9.049,0,0,1,1.223-.223,14.564,14.564,0,0,1,1.635-.17,21.2,21.2,0,0,1,4.285.189,22.672,22.672,0,0,1,9.705,3.843,21.355,21.355,0,0,1,3.251,2.8,13.494,13.494,0,0,1,1.082,1.242,8.617,8.617,0,0,1,.738,1,3.688,3.688,0,0,1,.529.912c-.092.068-.927-1.189-2.645-2.863a23.773,23.773,0,0,0-3.261-2.64,26.635,26.635,0,0,0-4.547-2.388,26.067,26.067,0,0,0-4.945-1.364,23.55,23.55,0,0,0-4.188-.311C133.4,417.869,131.914,418.214,131.89,418.1Z" transform="translate(-121.873 -364.42)"/>
    </g>
    <g id="freepik--speech-bubble--inject-183" transform="translate(70.114)">
      <path id="Path_38" data-name="Path 38" class="cls-4" d="M268.311,90.686l-4.071,3.4-1.98-.883-.408-1.679s4.367-3.227,4.207-3.4a2.514,2.514,0,0,0-1.5-.689,4.013,4.013,0,0,0-2.951.791l-.767.577a4.712,4.712,0,0,0-1.859,4.576,1.456,1.456,0,0,0,.029.15l-12.069,10.03a3.882,3.882,0,1,0,2.567,2.844l11.933-10.016a2.528,2.528,0,0,0,1.713.621,4.445,4.445,0,0,0,3.237-1.31l1.009-.971A4.052,4.052,0,0,0,268.311,90.686Zm-23.293,18.183a20.426,20.426,0,1,1-.019,0Z" transform="translate(-230.76 -74.968)"/>
      <path id="Path_39" data-name="Path 39" class="cls-6" d="M274.81,100.644l-13,1.087.044-.024a24.152,24.152,0,0,1-18.071,8.662,25.079,25.079,0,0,1-8.424-1.334,23.957,23.957,0,0,1-7.978-4.605,24.263,24.263,0,0,1-8.351-17.795,8.688,8.688,0,0,1,0-1.33c0-.442.049-.888.068-1.334a10.268,10.268,0,0,1,.17-1.33l.218-1.344c.092-.442.218-.878.325-1.315s.209-.888.359-1.315.311-.854.485-1.281l.233-.645c.078-.214.194-.417.286-.626a24.646,24.646,0,0,1,6.187-8.322,24.006,24.006,0,0,1,18.159-5.906,24.307,24.307,0,0,1,19.692,13.743,12.3,12.3,0,0,1,.718,1.65c.2.558.408,1.1.592,1.65a26.054,26.054,0,0,1,.733,3.261c.073.534.175,1.053.218,1.572s.049,1.034.073,1.533a4.893,4.893,0,0,0,.039.747,3.656,3.656,0,0,1-.034.733c0,.485-.044.971-.068,1.417v-.044c4.605,7.823,7.085,12.03,7.352,12.491l-7.473-12.413h0q.029-.689.058-1.412c0-.243.024-.485.029-.728s-.024-.485-.039-.742c-.024-.485-.053-1-.078-1.524s-.155-1.029-.228-1.563a25.641,25.641,0,0,0-.733-3.232c-.184-.544-.393-1.082-.6-1.635a12.739,12.739,0,0,0-.713-1.635,24.006,24.006,0,0,0-37.535-7.764,24.467,24.467,0,0,0-6.114,8.25c-.1.209-.209.4-.286.616l-.233.641-.485,1.267c-.15.427-.233.869-.354,1.3s-.233.864-.325,1.3-.131.883-.2,1.32a11.026,11.026,0,0,0-.165,1.32c-.024.442-.048.878-.068,1.32a9.164,9.164,0,0,0,0,1.315,24.089,24.089,0,0,0,16.169,22.211,24.986,24.986,0,0,0,8.347,1.334,24.031,24.031,0,0,0,17.955-8.541h.029Z" transform="translate(-219.007 -61.779)"/>
    </g>
    <g id="freepik--Device--inject-183" transform="translate(40.15 58.577)">
      <rect id="Rectangle_16" data-name="Rectangle 16" class="cls-7" width="198.003" height="130.94" rx="14.57" transform="translate(8.002 0)"/>
      <path id="Path_40" data-name="Path 40" class="cls-7" d="M157.26,432.36H371.782v2.819a8.638,8.638,0,0,1-8.638,8.638H165.9a8.638,8.638,0,0,1-8.638-8.638Z" transform="translate(-157.26 -311.106)"/>
      <rect id="Rectangle_17" data-name="Rectangle 17" class="cls-8" width="186.818" height="110.573" transform="translate(13.597 5.202)"/>
      <path id="Path_41" data-name="Path 41" class="cls-6" d="M338.11,432.252h3.261l9.05-.039,30.266-.063h.223l-.112.194c-.379.65-.791,1.349-1.2,2.058s-.864,1.456-1.271,2.174l-.039.063h-.073l-37.458-.068h-.034v-.029l-1.941-3.188-.485-.81-.16-.267.189.281c.121.194.3.461.524.81.456.713,1.131,1.757,2,3.115l-.049-.029,37.458-.068-.112.063,1.271-2.179c.412-.7.82-1.407,1.2-2.058l.107.194-30.14-.068-9.138-.058h-3.125Z" transform="translate(-250.349 -310.998)"/>
      <path id="Path_42" data-name="Path 42" class="cls-9" d="M323.5,231.575a6.376,6.376,0,0,1,1.189-1.208l-.281-1.548,2.392-1.024.922,1.276a6.375,6.375,0,0,1,1.694,0l.893-1.291,2.426.971-.247,1.553a6.524,6.524,0,0,1,1.208,1.189l1.548-.281,1.024,2.392-1.276.922a6.374,6.374,0,0,1,0,1.694l1.291.9-.971,2.426-1.548-.247a6.552,6.552,0,0,1-1.189,1.213l.281,1.543-2.392,1.024-.922-1.276a6.415,6.415,0,0,1-1.7,0l-.893,1.3-2.426-.971.248-1.553a6.405,6.405,0,0,1-1.213-1.189l-1.543.281L321,237.252l1.276-.922a6.184,6.184,0,0,1,0-1.694l-1.276-.9.971-2.426,1.553.247Zm2.591,2.688a2.79,2.79,0,1,0,1.506-1.518A2.79,2.79,0,0,0,326.09,234.263Z" transform="translate(-241.542 -205.802)"/>
      <path id="Path_43" data-name="Path 43" class="cls-10" d="M298.408,327.264a18.742,18.742,0,0,1,3.441-3.513l-.82-4.484,6.934-2.955L310.637,320a18.5,18.5,0,0,1,4.916-.058l2.586-3.746,7,2.815-.723,4.494a18.6,18.6,0,0,1,3.513,3.441l4.484-.815,2.955,6.954-3.693,2.669a18.306,18.306,0,0,1,.053,4.916l3.751,2.591-2.815,6.993-4.494-.723a18.6,18.6,0,0,1-3.441,3.513l.815,4.484-6.934,2.96-2.669-3.693a18.507,18.507,0,0,1-4.916.053l-2.586,3.746-7-2.81.723-4.5a18.441,18.441,0,0,1-3.513-3.441l-4.484.82-2.96-6.935,3.693-2.674a18.471,18.471,0,0,1-.053-4.911l-3.746-2.577,2.81-7,4.5.723Zm7.5,7.793a6.22,6.22,0,1,1,0,.01Z" transform="translate(-226.152 -251.315)"/>
      <path id="Path_44" data-name="Path 44" class="cls-11" d="M229.687,351.779a10.331,10.331,0,0,1,1.9-1.941l-.451-2.48,3.834-1.635,1.456,2.043a9.982,9.982,0,0,1,2.717-.029l1.432-2.077,3.882,1.558-.408,2.489a10.161,10.161,0,0,1,1.941,1.9l2.48-.451,1.64,3.834-2.043,1.48a10.386,10.386,0,0,1,.029,2.717l2.072,1.456-1.558,3.882-2.485-.4a10.191,10.191,0,0,1-1.907,1.941l.456,2.48-3.829,1.6-1.456-2.043a10.021,10.021,0,0,1-2.722.029l-1.456,2.077-3.882-1.558.4-2.485a10.353,10.353,0,0,1-1.941-1.907l-2.48.456-1.635-3.848,2.043-1.456a10.221,10.221,0,0,1-.029-2.722l-2.072-1.431,1.553-3.882,2.489.4Zm4.149,4.309a2.394,2.394,0,1,0-.024,0Z" transform="translate(-192.447 -266.479)"/>
      <path id="Path_45" data-name="Path 45" class="cls-6" d="M242.071,364.088a3.334,3.334,0,0,1,.485-.971,4.426,4.426,0,0,1,2.426-1.737,4.518,4.518,0,0,1,4.27.971,4.3,4.3,0,0,1,.854,1.009,4.392,4.392,0,0,1,.539,1.267,4.566,4.566,0,1,1-8.929.534,3.421,3.421,0,0,1,.325-1.058,10.511,10.511,0,0,0-.228,1.072,4.484,4.484,0,0,0,.621,2.839,4.37,4.37,0,1,0,6.672-5.5,4.445,4.445,0,0,0-2.053-1.039,4.368,4.368,0,0,0-2.014.063,4.464,4.464,0,0,0-2.426,1.621C242.231,363.724,242.1,364.1,242.071,364.088Z" transform="translate(-200.707 -274.478)"/>
      <path id="Path_46" data-name="Path 46" class="cls-6" d="M229.594,351.676h-.155l-.485-.063-1.863-.277.044-.029L225.6,355.19l-.024-.078,2.082,1.422.034.029v.044a10.306,10.306,0,0,0,.039,2.7v.049l-.044.034-2.038,1.48.029-.107,1.65,3.829-.112-.058,2.48-.456h.063l.039.053a10.1,10.1,0,0,0,1.941,1.878l.058.039v.068c-.121.772-.257,1.621-.393,2.489l-.073-.126,3.882,1.553-.141.044L236.5,368l.039-.058h.073a10.218,10.218,0,0,0,2.688-.034h.073l.044.058L240.9,370l-.15-.039,3.838-1.64-.078.141c-.146-.786-.3-1.63-.451-2.48v-.078l.058-.049A10.058,10.058,0,0,0,246,363.944h0l.049-.063h.078l2.489.4-.141.078q.786-1.941,1.558-3.882l.044.15L248,359.174l-.063-.044v-.073a10.189,10.189,0,0,0-.029-2.688V356.3l.063-.044,2.043-1.456-.044.146-1.63-3.838.131.073-2.485.446h-.068l-.044-.058a10.19,10.19,0,0,0-1.941-1.883l-.053-.039v-.068c.141-.854.272-1.679.4-2.489l.068.116-3.882-1.563.116-.034-1.456,2.067-.034.049h-.053a10.192,10.192,0,0,0-2.7,0H236.3l-.029-.039c-.534-.742-1.019-1.412-1.456-2.048l.087.024L231.05,347.3l.034-.063c.175.971.32,1.805.437,2.484v.024h0a11.051,11.051,0,0,0-1.49,1.4l-.325.388-.112.126a.971.971,0,0,1,.092-.141c.068-.092.17-.228.311-.4a10,10,0,0,1,1.456-1.432v.039c-.131-.674-.281-1.49-.485-2.48V347.2h.044l3.829-1.655h.058l.034.049,1.485,2.038-.082-.034a10.3,10.3,0,0,1,2.742-.039l-.083.039c.451-.66.922-1.349,1.427-2.077l.044-.063.073.029,3.882,1.548.083.029v.083c-.131.81-.262,1.635-.4,2.489l-.044-.107a10.536,10.536,0,0,1,1.97,1.941l-.112-.039,2.48-.456h.092l.039.087q.791,1.873,1.64,3.834l.039.092-.082.058-2.038,1.456.049-.116a10.235,10.235,0,0,1,.029,2.752l-.053-.116,2.077,1.432.082.058-.039.092-1.553,3.882-.039.092h-.1l-2.489-.4.126-.053h0a10.582,10.582,0,0,1-1.941,1.965l.044-.126c.155.854.311,1.7.456,2.48v.1l-.1-.019-3.838,1.635-.092.039-.058-.078-1.456-2.048.116.053a10.473,10.473,0,0,1-2.751.024l.116-.049-1.456,2.072-.053.078-.087-.034-3.882-1.563-.087-.034v-.092c.141-.864.281-1.713.4-2.485l.044.107a10.414,10.414,0,0,1-1.941-1.941l.1.039-2.48.446h-.078l-.034-.073q-.859-2.024-1.626-3.843l-.029-.063.058-.044,2.048-1.456-.034.083a10.4,10.4,0,0,1-.024-2.742l.034.073-2.067-1.456-.044-.029V355.1c.645-1.572,1.174-2.873,1.577-3.882v-.029h.029l1.844.315.485.087Z" transform="translate(-192.354 -266.376)"/>
      <path id="Path_47" data-name="Path 47" class="cls-9" d="M206.776,229a25.268,25.268,0,0,1,3.193-5.993l-2.849-5.6,8-6.638,4.984,3.834a25.345,25.345,0,0,1,6.473-2l1.941-5.974,10.351.971.815,6.231a25.525,25.525,0,0,1,5.979,3.174l5.6-2.844,6.634,8-3.829,4.979a25.635,25.635,0,0,1,1.994,6.464l5.969,1.941-.971,10.351-6.231.81a25.336,25.336,0,0,1-3.135,6l2.844,5.6-8,6.638-4.984-3.829a25.335,25.335,0,0,1-6.483,1.98l-1.941,5.974-10.351-.971-.815-6.226a25.541,25.541,0,0,1-6-3.145l-5.6,2.844-6.638-8,3.814-4.979a25.661,25.661,0,0,1-2-6.473l-5.969-1.941.971-10.351,6.226-.815Zm12.981,7.347a11.161,11.161,0,1,0,12.132-10.069A11.161,11.161,0,0,0,219.757,236.347Z" transform="translate(-179.038 -194.911)"/>
      <path id="Path_48" data-name="Path 48" class="cls-6" d="M371.769,432.236c0,.068-44.329.121-98.994.121s-98.994-.053-98.994-.121,44.319-.116,98.994-.116S371.769,432.173,371.769,432.236Z" transform="translate(-165.763 -310.983)"/>
    </g>
    <g id="freepik--Character--inject-183" transform="translate(87.158 23.873)">
      <path id="Path_49" data-name="Path 49" class="cls-6" d="M342.333,125.79c-3.052,1.339-4.828,4.634-5.493,7.9s-.451,6.643-.738,9.967-1.2,6.794-3.625,9.079c-2.261,2.135-5.585,3-7.512,5.445a6.842,6.842,0,0,0,3.882,10.923c-1.524,2.426-.762,5.78,1.189,7.861a12.935,12.935,0,0,0,7.628,3.5,20.714,20.714,0,0,0,14.437-2.839,15.487,15.487,0,0,0,7.109-12.568" transform="translate(-289.832 -118.601)"/>
      <path id="Path_50" data-name="Path 50" class="cls-7" d="M334.162,200.171a3.882,3.882,0,0,1-.539-1.082,6.512,6.512,0,0,1-.194-3.271,9.219,9.219,0,0,1,.7-2.179,12.456,12.456,0,0,1,1.4-2.213,41.011,41.011,0,0,1,4.2-4.246,43.712,43.712,0,0,0,4.081-4.319,20.2,20.2,0,0,0,2.616-4.071,14.229,14.229,0,0,0,1.058-3.081c.092-.374.116-.674.16-.873a1.3,1.3,0,0,1,.068-.306,1.5,1.5,0,0,1,0,.311c-.029.2-.039.51-.116.888a13.057,13.057,0,0,1-1,3.135A19.542,19.542,0,0,1,344,183a41.936,41.936,0,0,1-4.086,4.367,41.727,41.727,0,0,0-4.193,4.212,11.771,11.771,0,0,0-1.393,2.159,8.809,8.809,0,0,0-.713,2.121,6.6,6.6,0,0,0,.116,3.217A9.994,9.994,0,0,0,334.162,200.171Z" transform="translate(-294.884 -143.689)"/>
      <path id="Path_51" data-name="Path 51" class="cls-6" d="M421.336,148.38c0,4.484,2.067,8.594,3.926,10.108,2.635,2.135,6.5,3.169,9.041,3.882a10.08,10.08,0,0,1,7.279,8.1,8.276,8.276,0,0,1-5.765,8.866c2.344,2.392,1.645,6.507-.281,9.22-3.654,5.187-10.948,7.182-16.984,5.26s-10.676-7.279-12.491-13.359" transform="translate(-332.333 -130.229)"/>
      <path id="Path_52" data-name="Path 52" class="cls-7" d="M444.042,205.9a3.916,3.916,0,0,0,1.427-.626,4.124,4.124,0,0,0,1.194-1.368,5.047,5.047,0,0,0,.641-2.31,5.687,5.687,0,0,0-.752-2.8,9.084,9.084,0,0,0-2.179-2.557c-1.839-1.548-4.338-2.514-6.755-3.882a13.277,13.277,0,0,1-3.2-2.519,7.45,7.45,0,0,1-1.121-1.6,7.165,7.165,0,0,1-.631-1.762,12.037,12.037,0,0,1-.155-3.436c.082-1.072.218-2.058.311-2.965a13.19,13.19,0,0,0-.068-4.27c-.063-.243-.121-.456-.175-.65s-.131-.335-.175-.461a3.524,3.524,0,0,1-.141-.383,2.023,2.023,0,0,1,.184.364c.053.126.136.272.2.456l.2.655a12.651,12.651,0,0,1,.146,4.309c-.083.907-.209,1.9-.281,2.96a11.945,11.945,0,0,0,.175,3.4,6.935,6.935,0,0,0,1.708,3.251,13.1,13.1,0,0,0,3.149,2.47c2.392,1.373,4.906,2.354,6.794,3.94a9.19,9.19,0,0,1,2.213,2.63,5.784,5.784,0,0,1,.747,2.912,5.082,5.082,0,0,1-.694,2.373,4.237,4.237,0,0,1-1.257,1.378,3.557,3.557,0,0,1-1.072.485A2.144,2.144,0,0,1,444.042,205.9Z" transform="translate(-345.819 -143.576)"/>
      <path id="Path_53" data-name="Path 53" class="cls-7" d="M453.722,184.069a2.363,2.363,0,0,0,.456-1.247,3.052,3.052,0,0,0-.349-1.514,3.814,3.814,0,0,0-1.373-1.519,6.726,6.726,0,0,0-2.392-.8c-.9-.16-1.888-.218-2.912-.379a15.606,15.606,0,0,1-6.275-2.48,15.4,15.4,0,0,1-4.639-4.906,15.58,15.58,0,0,1-1.9-5.183,14.581,14.581,0,0,1-.2-3.722,9.912,9.912,0,0,1,.117-1,1.457,1.457,0,0,1,.068-.345c.024,0-.058.485-.092,1.359a15.965,15.965,0,0,0,2.2,8.783,15.422,15.422,0,0,0,4.581,4.819,15.7,15.7,0,0,0,6.177,2.46c1.019.165,2.009.233,2.912.4a6.712,6.712,0,0,1,2.426.859,3.853,3.853,0,0,1,1.407,1.6,3.081,3.081,0,0,1,.32,1.577,2.188,2.188,0,0,1-.32.971c-.063.092-.126.16-.165.209Z" transform="translate(-346.764 -136.709)"/>
      <path id="Path_54" data-name="Path 54" class="cls-12" d="M358.275,188.482c.641-6.7,1.189-13.767,1.189-13.767S350.977,172.434,350.3,161c-.65-10.9,3.557-35.526,3.557-35.526h0a32.506,32.506,0,0,1,35.182,11.787h0l-6.085,54.35c-.7,6.308-6.692,10.724-13.442,9.914h0C362.7,200.7,357.669,194.868,358.275,188.482Z" transform="translate(-303.595 -117.762)"/>
      <path id="Path_55" data-name="Path 55" class="cls-6" d="M360.352,166.171a1.456,1.456,0,0,0,1.247,1.592,1.383,1.383,0,0,0,1.616-1.155,1.456,1.456,0,0,0-1.247-1.592,1.383,1.383,0,0,0-1.616,1.155Z" transform="translate(-308.802 -138.78)"/>
      <path id="Path_56" data-name="Path 56" class="cls-6" d="M355.842,162.27c.16.209,1.334-.485,2.887-.34s2.616,1.048,2.8.873c.092-.078-.058-.432-.519-.844a3.984,3.984,0,0,0-2.223-.932,3.882,3.882,0,0,0-2.32.485C355.959,161.853,355.765,162.178,355.842,162.27Z" transform="translate(-306.476 -136.728)"/>
      <path id="Path_57" data-name="Path 57" class="cls-6" d="M393.072,169.961a1.456,1.456,0,0,0,1.252,1.592,1.383,1.383,0,0,0,1.616-1.155,1.456,1.456,0,0,0-1.247-1.592,1.388,1.388,0,0,0-1.621,1.155Z" transform="translate(-325.644 -140.731)"/>
      <path id="Path_58" data-name="Path 58" class="cls-6" d="M389.142,166.72c.16.209,1.334-.485,2.887-.335s2.616,1.043,2.8.869c.087-.073-.058-.432-.519-.844a4,4,0,0,0-2.223-.932,3.882,3.882,0,0,0-2.32.485C389.259,166.3,389.065,166.628,389.142,166.72Z" transform="translate(-323.617 -139.019)"/>
      <path id="Path_59" data-name="Path 59" class="cls-6" d="M371.1,176.992a10.644,10.644,0,0,0-2.48-.7c-.393-.082-.757-.2-.8-.485a2.052,2.052,0,0,1,.383-1.15l1.456-2.912c2.053-4.139,3.581-7.56,3.4-7.643s-1.965,3.212-4.018,7.352c-.485,1.024-.97,1.994-1.427,2.912a2.324,2.324,0,0,0-.359,1.533.971.971,0,0,0,.6.645,2.67,2.67,0,0,0,.665.16A9.641,9.641,0,0,0,371.1,176.992Z" transform="translate(-312.35 -138.319)"/>
      <path id="Path_60" data-name="Path 60" class="cls-13" d="M369.126,225.648A28.742,28.742,0,0,0,384.6,223.11s-4.44,7.376-15.6,5.212Z" transform="translate(-313.257 -168.695)"/>
      <path id="Path_62" data-name="Path 62" class="cls-6" d="M378.725,193.809c-.252-.039-.422,1.645-1.985,2.7s-3.339.694-3.373.927c-.034.1.369.369,1.126.485a4.2,4.2,0,0,0,2.8-.679,3.649,3.649,0,0,0,1.553-2.276C379.012,194.246,378.842,193.809,378.725,193.809Z" transform="translate(-315.505 -153.612)"/>
      <path id="Path_63" data-name="Path 63" class="cls-14" d="M417.631,175.865a6.731,6.731,0,0,1,3.6.587,4.7,4.7,0,0,1,2.426,2.669,4.911,4.911,0,0,1-.32,3.6,8.362,8.362,0,0,1-2.349,2.829,5.639,5.639,0,0,1-2.329,1.233,2.679,2.679,0,0,1-2.47-.636" transform="translate(-337.548 -144.354)"/>
      <path id="Path_64" data-name="Path 64" class="cls-15" d="M419.024,185.1c-.141.029.311.81,1.456.621a2.383,2.383,0,0,0,1.456-1.053,5.411,5.411,0,0,0,.8-1.941,3.213,3.213,0,0,0-.3-2.169,2.13,2.13,0,0,0-1.49-1.092c-1.131-.136-1.563.616-1.456.65a2.16,2.16,0,0,1,1.286,0,2.033,2.033,0,0,1,1.029,2.426c-.272,1.179-.844,2.31-1.533,2.528S419.111,185,419.024,185.1Z" transform="translate(-338.993 -146.22)"/>
      <path id="Path_65" data-name="Path 65" class="cls-6" d="M358.813,125.729a13.791,13.791,0,0,1-9.293,7.827,33.629,33.629,0,0,1,.053-8.351,13.18,13.18,0,0,1,3.581-7.405,8.311,8.311,0,0,1,7.682-2.261" transform="translate(-303.11 -113.207)"/>
      <path id="Path_66" data-name="Path 66" class="cls-6" d="M369.69,118.392a11.074,11.074,0,0,0,11.447,15.1,4.749,4.749,0,0,1,2.2.044,4.044,4.044,0,0,1,1.669,1.64c1.8,2.684,3.693,5.474,6.522,7.027s6.876,1.4,8.769-1.218a9.7,9.7,0,0,0,1.4-4.44c.718-5.226,1.014-10.841-1.48-15.49a17.674,17.674,0,0,0-8.7-7.585,34.136,34.136,0,0,0-11.452-2.426,15.246,15.246,0,0,0-6.736.718,6.2,6.2,0,0,0-4.052,5.052" transform="translate(-313.21 -110.975)"/>
      <path id="Path_67" data-name="Path 67" class="cls-7" d="M404,140.572a2.873,2.873,0,0,1-.136-.383c-.078-.252-.209-.626-.379-1.1a20.512,20.512,0,0,0-1.917-3.819,19.982,19.982,0,0,0-4.207-4.693,27.281,27.281,0,0,0-6.74-3.795c-2.543-1.068-5.032-1.941-7.211-2.965a25.2,25.2,0,0,1-5.44-3.324,14.165,14.165,0,0,1-2.883-3.179,9.222,9.222,0,0,1-.577-1.019,1.941,1.941,0,0,1-.17-.369,3.453,3.453,0,0,1,.214.349,11.269,11.269,0,0,0,.611.971,14.689,14.689,0,0,0,2.912,3.1,25.3,25.3,0,0,0,5.42,3.251c2.169,1,4.659,1.878,7.211,2.946a27.34,27.34,0,0,1,6.794,3.843,19.734,19.734,0,0,1,4.212,4.78,19.488,19.488,0,0,1,1.859,3.882c.16.485.277.859.335,1.121a2.423,2.423,0,0,1,.092.4Z" transform="translate(-316.006 -113.526)"/>
      <path id="Path_68" data-name="Path 68" class="cls-7" d="M400.5,140.254a1.839,1.839,0,0,1-.189-.32c-.126-.209-.311-.519-.582-.893a11.89,11.89,0,0,0-2.79-2.693,27.451,27.451,0,0,0-5.124-2.693c-1-.432-2.067-.878-3.145-1.393s-2.179-1.087-3.266-1.737a28.384,28.384,0,0,1-5.648-4.367,21.806,21.806,0,0,1-3.533-4.634,18.289,18.289,0,0,1-1.553-3.61c-.126-.446-.218-.8-.262-1.034a1.944,1.944,0,0,1-.068-.369,1.854,1.854,0,0,1,.112.354c.063.238.17.577.311,1.019a19.35,19.35,0,0,0,1.611,3.552A22.134,22.134,0,0,0,379.911,126a28.981,28.981,0,0,0,5.619,4.333c1.077.645,2.169,1.218,3.242,1.737s2.125.971,3.13,1.4a26.407,26.407,0,0,1,5.134,2.756,11.428,11.428,0,0,1,2.771,2.781,7.843,7.843,0,0,1,.544.922A2.423,2.423,0,0,1,400.5,140.254Z" transform="translate(-316.006 -113.824)"/>
      <path id="Path_69" data-name="Path 69" class="cls-7" d="M348.924,138.1a1.708,1.708,0,0,1-.107-.262c-.063-.17-.16-.427-.267-.762a13.125,13.125,0,0,1-.485-2.912,14,14,0,0,1,2.912-9.191,12.641,12.641,0,0,1,1.941-2.019c.7-.573,1.427-1.058,2.116-1.514a22.266,22.266,0,0,0,3.5-2.606,7.765,7.765,0,0,0,1.718-2.358c.281-.636.344-1.024.369-1.019a1.014,1.014,0,0,1-.044.281,5.42,5.42,0,0,1-.238.772,7.565,7.565,0,0,1-1.684,2.426,21.465,21.465,0,0,1-3.5,2.669,25.713,25.713,0,0,0-2.092,1.514,12.776,12.776,0,0,0-1.912,1.98,13.825,13.825,0,0,0-2.387,4.731,14,14,0,0,0-.539,4.309,14.646,14.646,0,0,0,.408,2.912q.131.485.218.772a1.149,1.149,0,0,1,.068.277Z" transform="translate(-302.474 -113.284)"/>
      <path id="Path_70" data-name="Path 70" class="cls-16" d="M399.511,193.01a10.836,10.836,0,0,1-7.211-2.645l.311-.345a10.22,10.22,0,0,0,16.349-11.341l.432-.17a11.059,11.059,0,0,1-3.853,12.69,10.6,10.6,0,0,1-6.027,1.81Z" transform="translate(-325.251 -145.738)"/>
      <circle id="Ellipse_5" data-name="Ellipse 5" class="cls-16" cx="2.237" cy="2.237" r="2.237" transform="translate(66.035 43.06)"/>
      <ellipse id="Ellipse_6" data-name="Ellipse 6" class="cls-16" cx="7.488" cy="7.488" rx="7.488" ry="7.488" transform="translate(76.853 40.129) rotate(-80.83)"/>
      <path id="Path_71" data-name="Path 71" class="cls-16" d="M399.59,146.223a9.144,9.144,0,0,1,.039-1.9l.087-2.218c0-.864.039-1.849,0-2.936,0-.544-.039-1.111-.068-1.7s-.092-1.2-.15-1.839-.17-1.281-.252-1.941c-.063-.33-.126-.67-.189-1.009s-.131-.689-.223-1.034a19.793,19.793,0,0,0-3.921-8.25,18.246,18.246,0,0,0-7.463-5.231,32.892,32.892,0,0,0-7.347-1.844c-2.155-.3-3.916-.393-5.129-.485a9.321,9.321,0,0,1-1.893-.155,9.541,9.541,0,0,1,1.9-.121,46.055,46.055,0,0,1,5.187.248,31.124,31.124,0,0,1,7.527,1.737,18.469,18.469,0,0,1,7.764,5.386,20.022,20.022,0,0,1,4.013,8.57c.087.354.155.708.214,1.063s.116.694.175,1.034c.078.689.184,1.349.223,1.994s.1,1.271.107,1.868.039,1.174,0,1.723c0,1.1-.063,2.092-.112,2.96s-.136,1.611-.209,2.223a9.742,9.742,0,0,1-.277,1.854Z" transform="translate(-315.357 -113.334)"/>
      <g id="Group_11" data-name="Group 11" class="cls-17" transform="translate(78.905 27.203)">
        <circle id="Ellipse_7" data-name="Ellipse 7" cx="5.154" cy="5.154" r="5.154" transform="translate(0 3.971) rotate(-22.66)"/>
      </g>
      <path id="Path_72" data-name="Path 72" class="cls-6" d="M424.858,170.588a1.13,1.13,0,0,1,.233-.116,3.48,3.48,0,0,1,.713-.214,4.086,4.086,0,0,1,2.674.456,3.63,3.63,0,0,1,1.373,1.32,4,4,0,0,1,.548,2.111,3.882,3.882,0,0,1-5.513,3.45,3.8,3.8,0,0,1-1.718-1.694,3.931,3.931,0,0,1-.442-2.14,4.061,4.061,0,0,1,.636-1.8,3.727,3.727,0,0,1,2.135-1.66,2.451,2.451,0,0,1,.742-.087,1.1,1.1,0,0,1,.257.039,3.6,3.6,0,0,0-.971.136,3.731,3.731,0,0,0-2.014,1.664,3.644,3.644,0,0,0-.146,3.741,3.606,3.606,0,0,0,1.621,1.582,3.78,3.78,0,0,0,4.469-1.087,3.727,3.727,0,0,0,.728-2.155,3.8,3.8,0,0,0-.485-2,3.43,3.43,0,0,0-1.286-1.271,4.052,4.052,0,0,0-2.572-.514A8.009,8.009,0,0,0,424.858,170.588Z" transform="translate(-340.906 -141.46)"/>
      <path id="Path_73" data-name="Path 73" class="cls-6" d="M430.259,188.766a2.563,2.563,0,0,1-.233-1.218,2.606,2.606,0,0,1,.131-1.228,4.333,4.333,0,0,1,.107,1.218,4.25,4.25,0,0,1,0,1.228Z" transform="translate(-344.657 -149.758)"/>
      <path id="Path_74" data-name="Path 74" class="cls-6" d="M435.494,186.994a5.731,5.731,0,0,1-.844-2.174,5.731,5.731,0,0,1,.844,2.174Z" transform="translate(-347.05 -148.986)"/>
      <path id="Path_75" data-name="Path 75" class="cls-6" d="M438.832,183.309c-.044.049-.4-.2-.791-.553s-.67-.684-.626-.733.4.2.791.553S438.876,183.261,438.832,183.309Z" transform="translate(-348.471 -147.543)"/>
      <path id="Path_76" data-name="Path 76" class="cls-6" d="M439.5,177.79c-.024.063-.277.029-.573-.078s-.514-.243-.485-.306.277-.029.573.078S439.519,177.727,439.5,177.79Z" transform="translate(-348.998 -145.153)"/>
      <path id="Path_77" data-name="Path 77" class="cls-6" d="M423.6,186.679a3.989,3.989,0,0,1,1.121-2.189,4.826,4.826,0,0,1-.519,1.116A4.956,4.956,0,0,1,423.6,186.679Z" transform="translate(-341.362 -148.816)"/>
      <path id="Path_78" data-name="Path 78" class="cls-6" d="M420.424,182.025c-.049-.049.247-.412.655-.81s.776-.689.825-.641-.247.412-.655.81S420.473,182.074,420.424,182.025Z" transform="translate(-339.725 -146.798)"/>
      <path id="Path_79" data-name="Path 79" class="cls-6" d="M421.833,176.153c0,.063-.194.175-.485.247s-.514.083-.529,0,.189-.18.485-.252S421.814,176.09,421.833,176.153Z" transform="translate(-339.93 -144.497)"/>
      <path id="Path_80" data-name="Path 80" class="cls-12" d="M493.739,231.637a8.915,8.915,0,0,0-2.358-5.013,13.543,13.543,0,0,0-2.373-2.038,14.505,14.505,0,0,0-3.513-1.694c-1.169-.252-1.456-1.771-.485-2.208s4.222.189,7.342,2.48,1.538-3.513,1-5.639-1.859-8.774-1.373-9.443c.772-.971,1.99-.311,2.48,1.825s2.4,8.444,3.508,8.133-1.781-11.093-1.781-11.093-.971-2.213.286-2.611c2.3-.723,4.513,10.952,4.7,12.069.126.772,1.349.485,1.169-.345s-3.125-10.7-.791-11.457c1.791-.577,1.912,9.589,3.659,11.326s-.883-7.721.854-8.206c.645-.18,1.155-.223,1.878,5.406.393,3.023.141,7.192,1.32,12.961" transform="translate(-372.669 -159.014)"/>
      <path id="Path_81" data-name="Path 81" class="cls-12" d="M473.738,273.509l10.608,15.223-5.09-39.258,15.165-5.983s19.139,73.372-6.527,74.4c0,0-17.766-.485-31.023-31.232Z" transform="translate(-358.487 -179.185)"/>
      <path id="Path_82" data-name="Path 82" class="cls-13" d="M518.444,242.9c.029.039-.33.277-.8.8a5.4,5.4,0,0,0-1.242,2.426l-.058.286-.209-.214a6.794,6.794,0,0,0-.786-.684,6.726,6.726,0,0,0-3.222-1.252c-.9-.1-1.456,0-1.456-.053a3.237,3.237,0,0,1,1.485-.175,6.187,6.187,0,0,1,4.222,1.941l-.272.073a5.056,5.056,0,0,1,1.407-2.523,2.388,2.388,0,0,1,.932-.626Z" transform="translate(-386.18 -178.881)"/>
      <path id="Path_83" data-name="Path 83" class="cls-18" d="M361.762,307.389l-12.835-16.281-3.339,16.654a34.508,34.508,0,0,0,2,20.085l1.655,3.965H289.807l1.485-5.294c.839-6.483-.281-13.248-.087-22.536l-1.65-10.467-8.992,38.3H254.13s14.495-59.44,23.6-71.2c11.457-14.825,31.479-12.869,31.479-12.869l12.263,19.226,11.981-17.339s20.585-4.367,36.657,23.293l8.6,14.738h0l-3.994-30.344,18.625-4.29s6.721,29.81,6.279,45.775c-.393,14.257-6.464,21.735-14.873,22.473C371.5,322.427,361.762,307.389,361.762,307.389Z" transform="translate(-254.13 -181.328)"/>
      <path id="Path_84" data-name="Path 84" class="cls-18" d="M362.673,245.287l.209-2.4s9.084,2.019,12.132,17.882c0,0,3.057-14.641,12.84-16.111l1.65,4.217-6.008,15.64-10.55,3.086-10.268-3.086L358,255.245Z" transform="translate(-307.595 -178.876)"/>
      <path id="Path_85" data-name="Path 85" class="cls-6" d="M315.449,260.83a2.508,2.508,0,0,1,.049.408c0,.291.049.684.087,1.184.063,1.024.17,2.5.315,4.338.3,3.659.8,8.711,1.587,14.257s1.732,10.54,2.475,14.136c.374,1.8.684,3.251.912,4.256.1.485.184.873.247,1.155a2.343,2.343,0,0,1,.068.408,2.745,2.745,0,0,1-.116-.393q-.112-.422-.291-1.15c-.252-.995-.592-2.426-.971-4.236-.786-3.591-1.747-8.584-2.548-14.141S316,270.438,315.75,266.77c-.126-1.834-.209-3.319-.248-4.343,0-.485-.029-.893-.039-1.184S315.444,260.83,315.449,260.83Z" transform="translate(-285.692 -188.11)"/>
      <path id="Path_86" data-name="Path 86" class="cls-6" d="M407.26,250.56a1.256,1.256,0,0,1-.131.228l-.408.631-1.514,2.31c-1.271,1.941-2.984,4.683-4.77,7.764-.068.121-.141.238-.2.354l-.116.2-.1-.209a7.162,7.162,0,0,0-1.305-2.1,2.373,2.373,0,0,0-2.024-.757,2.781,2.781,0,0,0-1.669,1.1,5.158,5.158,0,0,0-.835,1.6c-.34,1.068-.539,1.965-.8,2.548a5.3,5.3,0,0,1-.315.655q-.131.214-.146.2a7.388,7.388,0,0,0,.379-.893c.214-.587.393-1.456.723-2.562a5.129,5.129,0,0,1,.835-1.669,2.911,2.911,0,0,1,1.791-1.189,2.567,2.567,0,0,1,2.218.806,7.183,7.183,0,0,1,1.364,2.164h-.214l.2-.354c1.786-3.086,3.528-5.823,4.853-7.735.655-.971,1.2-1.742,1.577-2.271.184-.243.33-.446.446-.607A1.24,1.24,0,0,1,407.26,250.56Z" transform="translate(-325.575 -182.824)"/>
      <path id="Path_87" data-name="Path 87" class="cls-6" d="M392.106,267.763a1.363,1.363,0,0,1-.1.2l-.32.563-1.218,2.048-1.834,3.014-1.092,1.781c-.194.306-.388.621-.587.941a.864.864,0,0,1-.228.233.432.432,0,0,1-.369.048.922.922,0,0,1-.485-.442c-1.7-2.562-2.975-5.042-3.969-6.794-.485-.878-.9-1.582-1.179-2.067a6.526,6.526,0,0,1-.427-.762,1.351,1.351,0,0,1,.141.18c.083.121.214.3.364.534.311.485.738,1.165,1.247,2.033,1.034,1.723,2.329,4.188,4.028,6.736.1.165.2.306.33.344s.233-.048.335-.189l.582-.932,1.1-1.771,1.878-2.989,1.281-2c.146-.214.262-.393.364-.539A.909.909,0,0,1,392.106,267.763Z" transform="translate(-319.074 -191.044)"/>
      <path id="Path_88" data-name="Path 88" class="cls-6" d="M460.807,272a2.54,2.54,0,0,1-.141.315q-.16.335-.437.888c-.388.767-.932,1.883-1.582,3.271s-1.388,3.062-2.164,4.935-1.567,3.96-2.334,6.173-1.407,4.367-1.941,6.308-.971,3.727-1.325,5.221-.6,2.713-.767,3.552c-.082.4-.15.723-.2.971a1.761,1.761,0,0,1-.087.335,1.635,1.635,0,0,1,.039-.344c.039-.248.092-.573.155-.971.136-.849.374-2.072.694-3.576s.747-3.28,1.276-5.246,1.189-4.1,1.941-6.308,1.577-4.3,2.354-6.177,1.548-3.542,2.223-4.925,1.237-2.489,1.65-3.242l.485-.864A1.638,1.638,0,0,1,460.807,272Z" transform="translate(-354.863 -193.86)"/>
      <path id="Path_89" data-name="Path 89" class="cls-6" d="M379.55,385.292a3.506,3.506,0,0,1-.369,0l-1.063-.082c-.485-.039-1.024-.087-1.674-.17s-1.4-.155-2.213-.281c-1.64-.223-3.581-.563-5.721-1s-4.474-1.034-6.9-1.747-4.688-1.524-6.731-2.305-3.843-1.577-5.338-2.286c-.757-.34-1.422-.684-2.009-.971s-1.092-.553-1.495-.776l-.937-.51a2.424,2.424,0,0,1-.315-.189,1.879,1.879,0,0,1,.34.146l.971.485c.412.209.917.485,1.509.738s1.262.611,2.019.937c1.5.689,3.314,1.456,5.338,2.232s4.3,1.558,6.716,2.281,4.746,1.291,6.871,1.762,4.067.81,5.7,1.053c.81.141,1.553.228,2.2.315s1.208.16,1.669.209l1.058.131A2.089,2.089,0,0,1,379.55,385.292Z" transform="translate(-300.796 -246.862)"/>
      <path id="Path_90" data-name="Path 90" class="cls-6" d="M384.841,398.379a1.058,1.058,0,0,1-.248.063l-.708.136c-.616.112-1.514.252-2.625.408a88.242,88.242,0,0,1-17.47.607c-1.121-.078-2.024-.155-2.645-.228l-.718-.082a1.664,1.664,0,0,1-.247-.044.918.918,0,0,1,.252,0l.718.039c.626.044,1.529.1,2.65.15,2.232.107,5.338.18,8.735.063s6.493-.408,8.735-.67c1.111-.131,2.009-.247,2.63-.33l.718-.092a.835.835,0,0,1,.223-.019Z" transform="translate(-308.717 -258.911)"/>
      <path id="Path_91" data-name="Path 91" class="cls-6" d="M454.35,307.93a1.731,1.731,0,0,1,.068-.349l.247-.971.922-3.635c.781-3.067,1.815-7.313,3.091-11.972.641-2.329,1.3-4.537,1.941-6.532s1.267-3.771,1.839-5.246c.272-.747.553-1.407.786-1.99s.451-1.077.636-1.48l.422-.927a2.1,2.1,0,0,1,.165-.32,2.222,2.222,0,0,1-.121.34c-.092.233-.218.548-.379.941s-.374.912-.6,1.5-.485,1.247-.752,1.994c-.553,1.48-1.155,3.266-1.786,5.255s-1.276,4.2-1.917,6.527c-1.271,4.654-2.329,8.895-3.154,11.952-.408,1.529-.747,2.766-.995,3.615l-.291.971A1.592,1.592,0,0,1,454.35,307.93Z" transform="translate(-357.19 -195.152)"/>
      <path id="Path_92" data-name="Path 92" class="cls-6" d="M317.788,303.037a2.909,2.909,0,0,1-.252-.291c-.155-.2-.4-.485-.675-.878a25.293,25.293,0,0,1-2.121-3.484,33.743,33.743,0,0,1-2.227-5.629,49.722,49.722,0,0,1-1.543-7.245c-.708-5.212-.825-9.977-1.038-13.4-.1-1.718-.189-3.106-.257-4.067-.034-.461-.063-.83-.083-1.1a2.608,2.608,0,0,1,0-.388,2.251,2.251,0,0,1,.063.383c.029.247.078.621.126,1.1.1.971.218,2.344.335,4.057.257,3.431.4,8.191,1.106,13.384a50.682,50.682,0,0,0,1.519,7.216,34.577,34.577,0,0,0,2.15,5.619,28.54,28.54,0,0,0,2.043,3.508c.262.4.485.689.641.9A2,2,0,0,1,317.788,303.037Z" transform="translate(-282.675 -191.055)"/>
      <path id="Path_93" data-name="Path 93" class="cls-6" d="M318.937,319.72c0,.073-.689.223-1.456.67s-1.228.971-1.281.922a3.4,3.4,0,0,1,2.717-1.592Z" transform="translate(-286.079 -218.423)"/>
      <path id="Path_94" data-name="Path 94" class="cls-6" d="M317.327,306.876a12.781,12.781,0,0,0-1.815.65,13.1,13.1,0,0,0-1.563,1.126,3.824,3.824,0,0,1,3.4-1.776Z" transform="translate(-284.921 -211.81)"/>
      <path id="Path_95" data-name="Path 95" class="cls-6" d="M315.223,295.119a12.788,12.788,0,0,0-1.456.485,13.03,13.03,0,0,0-1.257.849,2.742,2.742,0,0,1,2.693-1.335Z" transform="translate(-284.18 -205.75)"/>
      <path id="Path_96" data-name="Path 96" class="cls-6" d="M314.012,282.984c0,.068-.607.189-1.305.485s-1.213.66-1.257.607a2.426,2.426,0,0,1,1.16-.83A2.46,2.46,0,0,1,314.012,282.984Z" transform="translate(-283.634 -199.506)"/>
      <path id="Path_97" data-name="Path 97" class="cls-6" d="M313.248,273.206c0,.068-.611.184-1.31.514s-1.184.733-1.228.679a2.305,2.305,0,0,1,1.126-.9A2.334,2.334,0,0,1,313.248,273.206Z" transform="translate(-283.254 -194.474)"/>
      <path id="Path_98" data-name="Path 98" class="cls-6" d="M454.712,327.354c-.058.044-.374-.383-.971-.611a6.768,6.768,0,0,0-1.111-.228,1.3,1.3,0,0,1,1.2,0C454.508,326.787,454.775,327.335,454.712,327.354Z" transform="translate(-356.305 -221.845)"/>
      <path id="Path_99" data-name="Path 99" class="cls-6" d="M457.912,316.536a3.12,3.12,0,0,0-2.572-1.664c0-.029.18-.092.485-.083a2.354,2.354,0,0,1,1.145.374,2.315,2.315,0,0,1,.81.893C457.922,316.347,457.941,316.526,457.912,316.536Z" transform="translate(-357.699 -215.884)"/>
      <path id="Path_100" data-name="Path 100" class="cls-6" d="M460.558,306.064a3.271,3.271,0,0,0-2.708-1.072c0-.024.155-.112.446-.15a2.276,2.276,0,0,1,1.126.146,2.3,2.3,0,0,1,.917.665C460.524,305.88,460.582,306.055,460.558,306.064Z" transform="translate(-358.991 -210.756)"/>
      <path id="Path_101" data-name="Path 101" class="cls-6" d="M464.625,295.595c-.063.034-.315-.446-.878-.733a5.191,5.191,0,0,0-1.1-.311c0-.029.126-.087.354-.1a1.762,1.762,0,0,1,1.5.8C464.625,295.44,464.649,295.58,464.625,295.595Z" transform="translate(-361.462 -205.415)"/>
      <path id="Path_102" data-name="Path 102" class="cls-6" d="M468.177,285.8a3.3,3.3,0,0,0-.971-.835,3.454,3.454,0,0,0-1.276-.214c0-.024.126-.116.383-.16a1.834,1.834,0,0,1,1.752.81C468.182,285.629,468.2,285.794,468.177,285.8Z" transform="translate(-363.15 -200.337)"/>
      <path id="Path_103" data-name="Path 103" class="cls-6" d="M393.056,273.22a1,1,0,0,1-.107.223l-.34.621c-.3.534-.747,1.305-1.31,2.252s-1.242,2.062-2.019,3.29c-.393.611-.806,1.252-1.252,1.907a21.127,21.127,0,0,1-1.456,1.975,2.144,2.144,0,0,1-.485.446.335.335,0,0,1-.214.044.685.685,0,0,1-.184-.058,1.974,1.974,0,0,1-.277-.189,6.945,6.945,0,0,1-.849-.888c-.485-.611-.97-1.233-1.373-1.825-.835-1.194-1.543-2.3-2.13-3.227s-1.043-1.689-1.354-2.223l-.349-.616a.78.78,0,0,1-.107-.223,1.455,1.455,0,0,1,.146.2l.388.592c.354.544.835,1.281,1.417,2.184s1.33,2,2.169,3.183c.422.592.874,1.2,1.373,1.805a7.187,7.187,0,0,0,.82.854c.146.116.33.243.422.17a2.061,2.061,0,0,0,.422-.388,22.208,22.208,0,0,0,1.456-1.941c.446-.65.864-1.286,1.257-1.9.786-1.218,1.48-2.324,2.062-3.261s1.034-1.655,1.373-2.208l.383-.6C393,273.283,393.046,273.215,393.056,273.22Z" transform="translate(-318.533 -194.488)"/>
      <path id="Path_104" data-name="Path 104" class="cls-6" d="M386.319,285.181c-.029,0-.082-.165-.063-.446a1.912,1.912,0,0,1,.408-1,1.888,1.888,0,0,1,.878-.631c.267-.082.442-.068.446-.039a3.5,3.5,0,0,0-1.136.82,3.4,3.4,0,0,0-.534,1.3Z" transform="translate(-322.137 -199.544)"/>
      <path id="Path_105" data-name="Path 105" class="cls-6" d="M392.753,291.274a8.477,8.477,0,0,1-.029-3.824,12.428,12.428,0,0,1,.034,1.912A12.657,12.657,0,0,1,392.753,291.274Z" transform="translate(-325.364 -201.813)"/>
      <path id="Path_106" data-name="Path 106" class="cls-6" d="M398.546,283.681a4.338,4.338,0,0,0-.723-.932,4.733,4.733,0,0,0-1.043-.543c0-.029.146-.063.378-.024a1.771,1.771,0,0,1,.82.383,1.741,1.741,0,0,1,.524.738C398.58,283.54,398.576,283.671,398.546,283.681Z" transform="translate(-327.557 -199.092)"/>
      <path id="Path_107" data-name="Path 107" class="cls-6" d="M403.627,275.34a4.716,4.716,0,0,0-.6-1,4.953,4.953,0,0,0-.971-.665c0-.029.15-.044.374,0a1.772,1.772,0,0,1,.762.485,1.728,1.728,0,0,1,.427.791C403.681,275.19,403.656,275.335,403.627,275.34Z" transform="translate(-330.274 -194.706)"/>
      <path id="Path_108" data-name="Path 108" class="cls-6" d="M381.3,277c-.029,0-.107-.18-.116-.485a2.49,2.49,0,0,1,.3-1.223,2.558,2.558,0,0,1,.849-.932c.277-.17.485-.209.485-.184a3.339,3.339,0,0,0-1.519,2.844Z" transform="translate(-319.526 -194.975)"/>
      <g id="Group_12" data-name="Group 12" class="cls-17" transform="translate(54.951 66.371)">
        <path id="Path_109" data-name="Path 109" d="M367.37,247.748c1.038,3.989,2.776,10.487,4.654,15.567a1.654,1.654,0,0,0,.359.645,1.306,1.306,0,0,0,1.747-.306,11.766,11.766,0,0,0,1.024-1.567,2.024,2.024,0,0,1,1.49-1.014,1.737,1.737,0,0,1,1.32.66,7.552,7.552,0,0,1,.81,1.3.97.97,0,0,0,.573.548.345.345,0,0,0,.408-.485l-1.66-4.309s-.762-3.159-3.4-2.669c-2.95.548-1.611,5.4-1.611,5.4S367.326,247.579,367.37,247.748Z" transform="translate(-367.369 -247.747)"/>
      </g>
      <path id="Path_110" data-name="Path 110" class="cls-6" d="M379.97,263.294a1.162,1.162,0,0,1-.141-.281c-.087-.189-.209-.485-.359-.83-.3-.757-.713-1.805-1.223-3.091-.131-.325-.272-.665-.422-1.014a3.18,3.18,0,0,0-.607-.971,2.912,2.912,0,0,0-2.3-.859,2.27,2.27,0,0,0-1.213.543,3.023,3.023,0,0,0-.655,1.257,3.557,3.557,0,0,0-.1,1.456,12.417,12.417,0,0,0,.277,1.543c.044.189.092.379.136.553l-.233.068c-.679-1.941-1.456-3.766-2.174-5.4s-1.373-3.111-1.888-4.367-.893-2.271-1.121-2.989c-.121-.354-.194-.636-.247-.83a1.221,1.221,0,0,1-.068-.291,1.815,1.815,0,0,1,.112.277c.068.189.155.485.291.815.252.7.655,1.718,1.189,2.95s1.2,2.7,1.941,4.333,1.519,3.45,2.2,5.416l-.228.073c-.044-.18-.092-.369-.141-.558a12.613,12.613,0,0,1-.277-1.577,3.741,3.741,0,0,1,.116-1.572,3.252,3.252,0,0,1,.718-1.349,2.465,2.465,0,0,1,1.349-.6,3.082,3.082,0,0,1,2.47.941,3.451,3.451,0,0,1,.631,1.043c.15.354.281.7.413,1.024.485,1.3.869,2.354,1.15,3.12.131.349.233.631.315.844A1.759,1.759,0,0,1,379.97,263.294Z" transform="translate(-312.552 -181.398)"/>
      <g id="Group_13" data-name="Group 13" class="cls-17" transform="translate(67.606 68.226)">
        <path id="Path_111" data-name="Path 111" d="M393.492,265.123c-.1.068-.024.247.092.272a.422.422,0,0,0,.335-.116,7.321,7.321,0,0,0,1.4-1.854,2.439,2.439,0,0,1,1.854-1.271,2.483,2.483,0,0,1,1.907,1.412,8.916,8.916,0,0,0,1.281,2.121A58.183,58.183,0,0,0,407.4,251.57a8.454,8.454,0,0,0-2.222,2.742q-2.363,3.945-4.727,7.886a6.067,6.067,0,0,0-1.335-2.1,2.591,2.591,0,0,0-2.29-.738,3.411,3.411,0,0,0-2,1.883,11.194,11.194,0,0,0-1.267,3.926" transform="translate(-393.447 -251.57)"/>
      </g>
      <path id="Path_112" data-name="Path 112" class="cls-6" d="M515.665,344.019a2.865,2.865,0,0,1-.315-.529c-.189-.349-.451-.864-.757-1.5a55.366,55.366,0,0,1-2.13-5.12,54.62,54.62,0,0,1-1.6-5.3c-.17-.689-.291-1.247-.369-1.64a3.434,3.434,0,0,1-.092-.607,2.943,2.943,0,0,1,.184.587c.116.427.267.97.442,1.616.378,1.364.937,3.237,1.664,5.27s1.485,3.834,2.058,5.124c.277.611.485,1.126.684,1.529A2.991,2.991,0,0,1,515.665,344.019Z" transform="translate(-386.041 -223.365)"/>
      <path id="Path_113" data-name="Path 113" class="cls-6" d="M510.152,342.679a2.792,2.792,0,0,1-.194-.529c-.112-.349-.252-.854-.408-1.485a32.319,32.319,0,0,1-.8-10.094c.053-.645.112-1.17.17-1.529a2.116,2.116,0,0,1,.112-.553,2.609,2.609,0,0,1,0,.563c-.029.359-.058.883-.092,1.529a39.328,39.328,0,0,0,.791,10.045c.136.636.247,1.145.335,1.5a2.17,2.17,0,0,1,.082.553Z" transform="translate(-385.142 -222.937)"/>
      <path id="Path_114" data-name="Path 114" class="cls-6" d="M522.38,270.19a1.729,1.729,0,0,1,.369.141l.073.034-.073.029a65.686,65.686,0,0,1-9.249,2.368c-2.708.485-5.188.786-6.983.932-.9.073-1.626.116-2.13.131a4.438,4.438,0,0,1-.786,0,5.566,5.566,0,0,1,.776-.1l2.125-.209c1.786-.189,4.256-.485,6.954-1,4.5-.82,8.206-1.912,9.288-2.193v.058A1.7,1.7,0,0,1,522.38,270.19Z" transform="translate(-382.54 -192.928)"/>
      <path id="Path_115" data-name="Path 115" class="cls-6" d="M533.1,265.579a.323.323,0,0,1,.194-.121.777.777,0,0,1,.626.141.888.888,0,0,1,.4.864.7.7,0,0,1-.354.485.97.97,0,0,1-.621.116,1.048,1.048,0,0,1-.573-.267.766.766,0,0,1-.228-.558.97.97,0,0,1,.519-.8.893.893,0,0,1,.626-.1c.15.039.209.107.2.116a1.01,1.01,0,0,0-.742.131.811.811,0,0,0-.383.65.626.626,0,0,0,.607.582.611.611,0,0,0,.728-.408.8.8,0,0,0-.786-.864C533.176,265.559,533.108,265.6,533.1,265.579Z" transform="translate(-397.437 -190.423)"/>
      <path id="Path_116" data-name="Path 116" class="cls-5" d="M350.433,287a2.726,2.726,0,0,1-.267.233c-.184.136-.437.369-.8.611a18.2,18.2,0,0,1-3.227,1.839,19.718,19.718,0,0,1-5.3,1.5,20.273,20.273,0,0,1-3.256.175,19.821,19.821,0,0,1-3.475-.432c-2.349-.529-4.464-1.393-6.459-1.941a17.165,17.165,0,0,0-2.858-.563,11.581,11.581,0,0,0-2.548.029,7.764,7.764,0,0,0-3.431,1.208,13.369,13.369,0,0,0-1.053.849,4.742,4.742,0,0,1,1-.927,7.643,7.643,0,0,1,3.465-1.3,11.8,11.8,0,0,1,2.572-.053,16.877,16.877,0,0,1,2.912.548c2.014.524,4.13,1.383,6.449,1.907a20.281,20.281,0,0,0,3.436.432,21.025,21.025,0,0,0,3.217-.16,19.834,19.834,0,0,0,5.26-1.456,19.1,19.1,0,0,0,3.242-1.757c.374-.228.631-.446.825-.573a1.533,1.533,0,0,1,.3-.175Z" transform="translate(-286.882 -201.581)"/>
      <path id="Path_117" data-name="Path 117" class="cls-5" d="M384.716,324.042a.693.693,0,0,1-.146-.068l-.422-.218c-.184-.092-.422-.189-.7-.315a6.262,6.262,0,0,0-.971-.335,15.33,15.33,0,0,0-6.609-.238,37.927,37.927,0,0,0-4.5,1.019c-1.6.437-3.31.946-5.144,1.32a19.032,19.032,0,0,1-5.867.359,28,28,0,0,1-6.139-1.456c-2.053-.689-4.013-1.456-5.94-2.1a30.087,30.087,0,0,0-5.663-1.393,26.64,26.64,0,0,0-9.822.534,29.248,29.248,0,0,0-3.62,1.169c-.51.223-.995.422-1.427.631s-.825.4-1.169.592l-.917.51-.655.408-.4.243a.485.485,0,0,1-.146.078l.131-.1.393-.267c.17-.112.383-.262.641-.422l.907-.534c.345-.2.742-.388,1.169-.611s.912-.422,1.427-.655a28.767,28.767,0,0,1,3.625-1.208,26.512,26.512,0,0,1,9.895-.587,30.087,30.087,0,0,1,5.712,1.388c1.941.641,3.882,1.407,5.935,2.1a28.1,28.1,0,0,0,6.09,1.456,18.639,18.639,0,0,0,5.8-.34c1.825-.364,3.528-.864,5.134-1.3a37.76,37.76,0,0,1,4.528-.995,15.091,15.091,0,0,1,6.624.3c.383.107.708.252.995.359a4.924,4.924,0,0,1,.694.335l.408.243A.768.768,0,0,1,384.716,324.042Z" transform="translate(-290.331 -218.659)"/>
      <path id="Path_118" data-name="Path 118" class="cls-5" d="M398.24,283.18a10.854,10.854,0,0,0,1.242.272,9.021,9.021,0,0,0,3.421-.272,42.023,42.023,0,0,0,4.819-1.805,15.85,15.85,0,0,1,2.941-.873,13.863,13.863,0,0,1,3.285-.189,19.023,19.023,0,0,1,6.158,1.456,32.657,32.657,0,0,1,4.591,2.383c1.257.767,2.242,1.456,2.912,1.9.325.223.582.4.776.543a1.819,1.819,0,0,1,.262.2,1.492,1.492,0,0,1-.286-.16l-.8-.485c-.7-.437-1.694-1.082-2.96-1.829a35.43,35.43,0,0,0-4.586-2.324,19.266,19.266,0,0,0-6.09-1.456,14.223,14.223,0,0,0-3.232.18,16.1,16.1,0,0,0-2.912.854,35.383,35.383,0,0,1-4.853,1.762,8.633,8.633,0,0,1-3.475.2A4.3,4.3,0,0,1,398.24,283.18Z" transform="translate(-328.308 -198.125)"/>
      <path id="Path_119" data-name="Path 119" class="cls-5" d="M437.722,259.579a4.648,4.648,0,0,1-.689.209c-.228.063-.485.131-.825.194s-.689.15-1.1.209a25.074,25.074,0,0,1-2.912.315,28.819,28.819,0,0,1-3.542-.039,28.486,28.486,0,0,1-3.533-.543,25.584,25.584,0,0,1-2.81-.8c-.393-.126-.738-.277-1.048-.393s-.568-.233-.776-.33a4.221,4.221,0,0,1-.645-.325,4.255,4.255,0,0,1,.679.238c.218.087.485.189.791.291s.66.243,1.053.359c.786.252,1.737.51,2.8.742a28.373,28.373,0,0,0,7.051.6c1.087-.049,2.067-.141,2.883-.257.412-.049.776-.121,1.1-.175s.6-.107.825-.155a3.589,3.589,0,0,1,.7-.141Z" transform="translate(-339.426 -186.695)"/>
      <path id="Path_120" data-name="Path 120" class="cls-5" d="M315.86,259.414a1.536,1.536,0,0,1,.209-.184c.146-.116.359-.291.641-.485.558-.427,1.373-1.029,2.426-1.728a33.834,33.834,0,0,1,8.788-4.338,20.672,20.672,0,0,1,9.734-.679,15.323,15.323,0,0,1,2.863.82c.33.121.573.252.742.325a1.311,1.311,0,0,1,.247.131l-1.019-.369a16.3,16.3,0,0,0-2.863-.738,21.225,21.225,0,0,0-9.637.738,35.763,35.763,0,0,0-8.735,4.251c-1.053.679-1.888,1.262-2.46,1.664l-.665.485A1.033,1.033,0,0,1,315.86,259.414Z" transform="translate(-285.904 -183.414)"/>
      <path id="Path_121" data-name="Path 121" class="cls-5" d="M384.96,369.026a.445.445,0,0,1-.136.039l-.408.087a4.7,4.7,0,0,1-.67.1l-.427.049h-.485a18.007,18.007,0,0,1-5.76-1.058c-1.184-.369-2.465-.825-3.858-1.237a23.722,23.722,0,0,0-4.537-.878,39.473,39.473,0,0,0-10.564.757c-3.707.674-7.23,1.514-10.491,1.9a32.737,32.737,0,0,1-8.706.053,18.05,18.05,0,0,1-5.61-1.694l-.815-.427-.582-.345-.349-.228-.112-.082a.452.452,0,0,1,.126.063l.359.2.582.345.82.408a18.721,18.721,0,0,0,5.6,1.611,33.38,33.38,0,0,0,8.652-.107c3.246-.4,6.75-1.247,10.477-1.941a38.312,38.312,0,0,1,10.627-.738,23.534,23.534,0,0,1,4.571.907c1.4.422,2.679.883,3.853,1.262a18.344,18.344,0,0,0,5.712,1.131h.485l.427-.039a4.412,4.412,0,0,0,.67-.078l.408-.063Z" transform="translate(-293.929 -242.137)"/>
      <g id="Group_14" data-name="Group 14" class="cls-19" transform="translate(48.265 130.233)">
        <path id="Path_122" data-name="Path 122" d="M353.6,379.35c2.2,5.488,6.454,9.385,12.311,10.191s11.782-.534,17.47-2.087c-10.37-1.456-19.547-2.887-29.8-8.1" transform="translate(-353.59 -379.35)"/>
      </g>
      <path id="Path_123" data-name="Path 123" class="cls-5" d="M386.425,404.586l-.141-.053-.412-.175-1.567-.7c-1.368-.6-3.324-1.519-5.765-2.577a25.458,25.458,0,0,0-4.11-1.393,13.184,13.184,0,0,0-4.93-.228,17.379,17.379,0,0,0-2.62.6,27.522,27.522,0,0,0-2.625.971c-1.752.767-3.494,1.718-5.289,2.679a42.086,42.086,0,0,1-5.4,2.514,16.686,16.686,0,0,1-5.43,1.1,12.2,12.2,0,0,1-4.916-.971,33.421,33.421,0,0,1-3.882-1.98c-1.16-.665-2.2-1.267-3.149-1.728a16.845,16.845,0,0,0-2.509-1.019,8.674,8.674,0,0,0-.971-.257,5.344,5.344,0,0,0-.708-.136l-.442-.073a.6.6,0,0,1-.15-.029.486.486,0,0,1,.15,0l.446.049a5.049,5.049,0,0,1,.718.116,8.3,8.3,0,0,1,.971.233,16.738,16.738,0,0,1,2.538.971c.971.451,2.014,1.048,3.174,1.7a33.316,33.316,0,0,0,3.882,1.941,12.132,12.132,0,0,0,4.853.927,16.585,16.585,0,0,0,5.338-1.106,42.184,42.184,0,0,0,5.338-2.5c1.791-.97,3.538-1.912,5.3-2.679a26.846,26.846,0,0,1,2.654-1,18.314,18.314,0,0,1,2.659-.592,13.34,13.34,0,0,1,5,.252,24.789,24.789,0,0,1,4.134,1.456c2.426,1.082,4.367,2.024,5.736,2.65l1.548.738.4.2A1.193,1.193,0,0,1,386.425,404.586Z" transform="translate(-293.909 -259.26)"/>
    </g>
  </g>
</svg>
