<svg id="Group_50" data-name="Group 50" xmlns="http://www.w3.org/2000/svg" width="242.763" height="214.788" viewBox="0 0 242.763 214.788">
  <defs>
    <style>
      .cls-1 {
        fill: #ffc67d;
      }

      .cls-2 {
        fill: #ffccd5;
      }

      .cls-3 {
        fill: #f6acb9;
      }

      .cls-4 {
        fill: #ffdfe5;
      }

      .cls-5 {
        fill: #fafafa;
      }

      .cls-6 {
        fill: #f5f5f5;
      }

      .cls-7 {
        fill: #fff;
      }

      .cls-8 {
        fill: #263238;
      }

      .cls-9 {
        fill: #ee3359;
      }

      .cls-10 {
        fill: #e2e7ff;
      }

      .cls-11 {
        fill: #455a64;
      }

      .cls-12 {
        opacity: 0.5;
      }

      .cls-13 {
        fill: #b78876;
      }

      .cls-14 {
        fill: #a36957;
      }

      .cls-15, .cls-20 {
        fill: #3a4aa1;
      }

      .cls-16 {
        fill: #ffbe9d;
      }

      .cls-17 {
        fill: #eb996e;
      }

      .cls-18 {
        fill: #f97f34;
      }

      .cls-19 {
        fill: #ff725e;
      }

      .cls-20 {
        opacity: 0.2;
      }
    </style>
  </defs>
  <ellipse id="Ellipse_13" data-name="Ellipse 13" class="cls-1" cx="101.086" cy="100.628" rx="101.086" ry="100.628" transform="translate(21.875 13.531)"/>
  <g id="Delivery-pana" transform="translate(0)">
    <g id="freepik--background-complete--inject-42" transform="translate(0 0)">
      <path id="Path_207" data-name="Path 207" class="cls-2" d="M157.553,348.809l-.6,33.7-52.883.126-.077-34.152Z" transform="translate(-103.99 -211.029)"/>
      <path id="Path_208" data-name="Path 208" class="cls-3" d="M153.726,383.1c-.072,0,0-7.524.176-16.8s.356-16.8.423-16.795,0,7.519-.176,16.8S153.794,383.1,153.726,383.1Z" transform="translate(-131.317 -211.589)"/>
      <path id="Path_209" data-name="Path 209" class="cls-3" d="M104.16,383.221a3.157,3.157,0,0,1,.216-.356l.653-.986,2.454-3.6,8.163-11.864c3.188-4.624,6.056-8.821,8.1-11.882,1.027-1.526,1.837-2.778,2.4-3.638.266-.419.477-.756.635-1a2.281,2.281,0,0,1,.239-.342,3.744,3.744,0,0,1-.194.365l-.6,1.027c-.531.9-1.324,2.143-2.328,3.688-2.008,3.084-4.854,7.3-8.046,11.927s-6.1,8.789-8.222,11.8l-2.517,3.562-.693.959A2.474,2.474,0,0,1,104.16,383.221Z" transform="translate(-104.083 -211.617)"/>
      <path id="Path_210" data-name="Path 210" class="cls-3" d="M126.6,383.022a2.194,2.194,0,0,1-.243-.333l-.657-.977-2.391-3.6-7.934-11.851c-3.111-4.624-5.9-8.825-7.884-11.891-.986-1.535-1.8-2.783-2.319-3.647l-.617-1a2.4,2.4,0,0,1-.2-.356,2.351,2.351,0,0,1,.243.329l.657.977c.576.869,1.387,2.1,2.386,3.6l7.938,11.851c3.111,4.624,5.9,8.825,7.88,11.9.991,1.531,1.8,2.778,2.323,3.647l.617,1a2.867,2.867,0,0,1,.2.36Z" transform="translate(-104.188 -211.512)"/>
      <rect id="Rectangle_18" data-name="Rectangle 18" class="cls-3" width="8.492" height="1.738" transform="translate(36.36 167.836) rotate(-178.97)"/>
      <path id="Path_211" data-name="Path 211" class="cls-3" d="M166.84,408.442a34.008,34.008,0,0,1,4.151-.149,35.224,35.224,0,0,1,4.156.1,35.121,35.121,0,0,1-4.151.149,35.2,35.2,0,0,1-4.156-.1Z" transform="translate(-138.541 -243.898)"/>
      <path id="Path_212" data-name="Path 212" class="cls-3" d="M186.484,348.687l-.234,13.008-1.833-1.454-2.377,1.378.234-13.008Z" transform="translate(-146.897 -211.1)"/>
      <path id="Path_213" data-name="Path 213" class="cls-4" d="M158.949,292.212l-.459,25.719-40.357.095-.063-26.066Z" transform="translate(-111.73 -179.957)"/>
      <path id="Path_214" data-name="Path 214" class="cls-3" d="M156.035,318.382c-.054,0,0-5.741.135-12.823s.27-12.819.324-12.819,0,5.741-.135,12.823S156.084,318.382,156.035,318.382Z" transform="translate(-132.59 -180.386)"/>
      <path id="Path_215" data-name="Path 215" class="cls-3" d="M118.21,318.493a2.03,2.03,0,0,1,.162-.27q.189-.279.5-.756c.45-.662,1.09-1.6,1.873-2.747,1.6-2.328,3.8-5.516,6.232-9.037s4.62-6.754,6.182-9.068c.779-1.171,1.4-2.121,1.828-2.778l.482-.765a3.157,3.157,0,0,1,.18-.261,2.14,2.14,0,0,1-.149.284l-.45.779c-.405.671-1.009,1.639-1.774,2.814-1.535,2.355-3.706,5.574-6.142,9.1s-4.66,6.7-6.277,9.005l-1.918,2.7c-.225.306-.4.554-.531.734A1.891,1.891,0,0,1,118.21,318.493Z" transform="translate(-111.807 -180.425)"/>
      <path id="Path_216" data-name="Path 216" class="cls-3" d="M135.34,318.327a1.575,1.575,0,0,1-.189-.252l-.5-.747c-.45-.662-1.058-1.6-1.824-2.747l-6.07-9.046c-2.373-3.526-4.5-6.754-6.015-9.077-.752-1.171-1.351-2.121-1.77-2.783l-.45-.765c-.1-.176-.158-.27-.153-.27a1.494,1.494,0,0,1,.185.252l.5.743c.45.666,1.058,1.6,1.8,2.751l6.061,9.046c2.373,3.526,4.5,6.731,6.011,9.073.756,1.171,1.351,2.125,1.774,2.787l.473.761a2.286,2.286,0,0,1,.162.275Z" transform="translate(-111.895 -180.331)"/>
      <rect id="Rectangle_19" data-name="Rectangle 19" class="cls-3" width="6.479" height="1.328" transform="translate(34.39 135.022) rotate(-178.854)"/>
      <path id="Path_217" data-name="Path 217" class="cls-3" d="M166,337.724a27.113,27.113,0,0,1,3.152-.113,27.578,27.578,0,0,1,3.152.077,25.974,25.974,0,0,1-3.152.113A25.372,25.372,0,0,1,166,337.724Z" transform="translate(-138.079 -205.046)"/>
      <path id="Path_218" data-name="Path 218" class="cls-3" d="M186.6,292.129l-.18,9.928-1.4-1.112L183.21,302l.176-9.928Z" transform="translate(-147.54 -180.018)"/>
      <path id="Path_219" data-name="Path 219" class="cls-3" d="M175.321,327.9a7.344,7.344,0,0,0-6.623-4.989l-1.238-68.147h5.961v1.018h1.121v-2.44H165.28s1.1,50.276,1.9,69.638a7.961,7.961,0,0,0-1.175.284,7.348,7.348,0,0,0-5,7.105l-21.117-.279.6,2.774,20.816-.572c.027.095.05.189.081.288a7.353,7.353,0,1,0,13.931-4.7Z" transform="translate(-123.726 -158.726)"/>
      <path id="Path_220" data-name="Path 220" class="cls-3" d="M148.88,433.8H150l2.152-4.223-1.779.05Z" transform="translate(-128.668 -255.612)"/>
      <rect id="Rectangle_20" data-name="Rectangle 20" class="cls-2" width="21.144" height="5.844" transform="translate(172.239)"/>
      <rect id="Rectangle_21" data-name="Rectangle 21" class="cls-2" width="21.144" height="5.844" transform="translate(34.247 38.542)"/>
      <rect id="Rectangle_22" data-name="Rectangle 22" class="cls-2" width="21.144" height="5.844" transform="translate(190.317 123.714)"/>
      <rect id="Rectangle_23" data-name="Rectangle 23" class="cls-4" width="21.144" height="5.844" transform="translate(166.872 5.84)"/>
      <rect id="Rectangle_24" data-name="Rectangle 24" class="cls-4" width="21.144" height="5.844" transform="translate(25.341 45.323)"/>
      <rect id="Rectangle_25" data-name="Rectangle 25" class="cls-4" width="15.192" height="5.844" transform="translate(182.811 129.743)"/>
      <rect id="Rectangle_26" data-name="Rectangle 26" class="cls-2" width="45.548" height="93.146" transform="translate(63.248 19.447)"/>
      <path id="Path_221" data-name="Path 221" class="cls-3" d="M267.194,86.4s-9.338,42.253-22.774,45.139c0,0,5.4,29.641,5.921,48.007h-5.9V86.4Z" transform="translate(-181.19 -66.953)"/>
      <path id="Path_222" data-name="Path 222" class="cls-3" d="M295.38,86.4s9.338,42.253,22.792,45.139c0,0-5.4,29.641-5.916,48.007h5.916V86.4Z" transform="translate(-209.204 -66.953)"/>
      <rect id="Rectangle_27" data-name="Rectangle 27" class="cls-5" width="1.661" height="93.326" transform="translate(85.194 19.267)"/>
      <rect id="Rectangle_28" data-name="Rectangle 28" class="cls-5" width="0.41" height="93.326" transform="translate(73.784 19.267)"/>
      <rect id="Rectangle_29" data-name="Rectangle 29" class="cls-5" width="0.41" height="93.326" transform="translate(98.373 19.267)"/>
      <path id="Path_223" data-name="Path 223" class="cls-5" d="M290.008,137.4v.374l-45.549.185v-.374Z" transform="translate(-181.212 -94.99)"/>
      <path id="Path_224" data-name="Path 224" class="cls-5" d="M290.008,240.32v.365l-45.549.185V240.5Z" transform="translate(-181.212 -151.569)"/>
      <rect id="Rectangle_30" data-name="Rectangle 30" class="cls-5" width="45.548" height="1.553" transform="translate(63.248 65.085)"/>
      <path id="Path_225" data-name="Path 225" class="cls-6" d="M289.881,179.4H243V84.9h46.881Zm-45.548-1.351h44.2V86.251h-44.18Z" transform="translate(-180.409 -66.129)"/>
      <rect id="Rectangle_31" data-name="Rectangle 31" class="cls-2" width="45.548" height="93.146" transform="translate(196.539 19.447)"/>
      <path id="Path_226" data-name="Path 226" class="cls-3" d="M563.264,86.4s-9.339,42.253-22.774,45.139c0,0,5.4,29.641,5.916,48.007H540.49V86.4Z" transform="translate(-343.951 -66.953)"/>
      <path id="Path_227" data-name="Path 227" class="cls-3" d="M591.41,86.4s9.338,42.253,22.779,45.139c0,0-5.4,29.641-5.921,48.007h5.921V86.4Z" transform="translate(-371.943 -66.953)"/>
      <rect id="Rectangle_32" data-name="Rectangle 32" class="cls-5" width="1.661" height="93.326" transform="translate(218.481 19.267)"/>
      <rect id="Rectangle_33" data-name="Rectangle 33" class="cls-5" width="0.41" height="93.326" transform="translate(207.071 19.267)"/>
      <rect id="Rectangle_34" data-name="Rectangle 34" class="cls-5" width="0.41" height="93.326" transform="translate(231.66 19.267)"/>
      <path id="Path_228" data-name="Path 228" class="cls-5" d="M586.039,137.4v.374l-45.549.185v-.374Z" transform="translate(-343.951 -94.99)"/>
      <path id="Path_229" data-name="Path 229" class="cls-5" d="M586.039,240.32v.365l-45.549.185V240.5Z" transform="translate(-343.951 -151.569)"/>
      <rect id="Rectangle_35" data-name="Rectangle 35" class="cls-5" width="45.548" height="1.553" transform="translate(196.539 65.085)"/>
      <path id="Path_230" data-name="Path 230" class="cls-6" d="M585.895,179.4H539V84.9h46.895Zm-45.549-1.351h44.2V86.251H540.351Z" transform="translate(-343.132 -66.129)"/>
      <path id="Path_231" data-name="Path 231" class="cls-2" d="M316.9,408.346a8.425,8.425,0,0,0-5.228-.635,4.405,4.405,0,0,0-2.585,1.153,1.86,1.86,0,0,0-.027,2.58,2.458,2.458,0,0,0,1.63.414c1.382,0,2.913-.261,4.021.572.63.477,1.049,1.265,1.8,1.5a1.8,1.8,0,0,0,1.963-.874,3.075,3.075,0,0,0,.221-2.251A3.44,3.44,0,0,0,316.9,408.346Z" transform="translate(-216.445 -243.501)"/>
      <path id="Path_232" data-name="Path 232" class="cls-2" d="M327.255,376.069c-.973,1.391-2.864.932-3.742.081a7.068,7.068,0,0,1-1.585-3.246c-.77-2.7-1.549-5.489-.973-8.217a4.529,4.529,0,0,1,1.049-2.251,2.391,2.391,0,0,1,2.251-.752,3.488,3.488,0,0,1,1.972,2.076,19.519,19.519,0,0,1,1.936,8.4,6.951,6.951,0,0,1-.9,3.89" transform="translate(-223.155 -218.262)"/>
      <path id="Path_233" data-name="Path 233" class="cls-2" d="M339.853,383.539a5.052,5.052,0,0,1-.783-4.651,8.938,8.938,0,0,1,2.756-4,14.833,14.833,0,0,1,4.953-2.913A5.3,5.3,0,0,1,349,371.6a2.323,2.323,0,0,1,1.86,1.126c.522.991.023,2.193-.518,3.152a36.89,36.89,0,0,1-3.242,4.953,8.751,8.751,0,0,1-3.562,3.053c-1.481.567-3.021.5-3.8-.527" transform="translate(-233.082 -223.737)"/>
      <path id="Path_234" data-name="Path 234" class="cls-7" d="M326.495,424.645a2.66,2.66,0,0,1-.09-.63c-.045-.45-.1-1.04-.167-1.724a24.071,24.071,0,0,0-.387-2.531,20.088,20.088,0,0,0-.9-2.981,10.95,10.95,0,0,0-1.526-2.7,5.669,5.669,0,0,0-1.923-1.6,5.284,5.284,0,0,0-1.625-.5,2.765,2.765,0,0,1-.626-.095,3.179,3.179,0,0,1,.639,0,4.837,4.837,0,0,1,1.689.45,5.646,5.646,0,0,1,2.035,1.616,10.7,10.7,0,0,1,1.576,2.751,18.517,18.517,0,0,1,.9,3.035,22.1,22.1,0,0,1,.338,2.557c.054.734.072,1.324.081,1.733a3.208,3.208,0,0,1-.014.621Z" transform="translate(-222.327 -245.873)"/>
      <path id="Path_235" data-name="Path 235" class="cls-7" d="M331.15,402.524a1.352,1.352,0,0,1,0-.293v-.837c0-.725,0-1.8-.036-3.08-.068-2.6-.288-6.182-.72-10.126s-1.013-7.492-1.54-10.036c-.126-.639-.248-1.216-.369-1.715s-.207-.941-.3-1.292-.144-.6-.2-.815a1.205,1.205,0,0,1-.05-.288,1.511,1.511,0,0,1,.1.275c.068.212.144.477.243.806s.221.779.347,1.279.27,1.076.405,1.711a95.861,95.861,0,0,1,1.616,10.045,98.977,98.977,0,0,1,.648,10.158c0,1.3,0,2.355-.05,3.084,0,.338-.036.617-.05.837A1.134,1.134,0,0,1,331.15,402.524Z" transform="translate(-227.104 -225.08)"/>
      <path id="Path_236" data-name="Path 236" class="cls-7" d="M334.979,398.2a5.629,5.629,0,0,1,0-.874c.032-.563.108-1.378.266-2.373a32.043,32.043,0,0,1,.77-3.454,30.694,30.694,0,0,1,1.445-4.088,21.756,21.756,0,0,1,4.273-6.605,10.65,10.65,0,0,1,1-.928c.153-.131.288-.261.428-.36l.387-.27a4.9,4.9,0,0,1,.738-.45,25.219,25.219,0,0,0-2.418,2.152,22.963,22.963,0,0,0-4.138,6.583,33.1,33.1,0,0,0-1.45,4.052,35.131,35.131,0,0,0-.819,3.418c-.185.986-.288,1.8-.351,2.35A5.14,5.14,0,0,1,334.979,398.2Z" transform="translate(-230.964 -227.697)"/>
    </g>
    <g id="freepik--Floor--inject-42" transform="translate(8.33 178.993)">
      <path id="Path_237" data-name="Path 237" class="cls-8" d="M349.881,440.857c0,.063-50.907.117-113.691.117s-113.7-.054-113.7-.117,50.88-.117,113.7-.117S349.881,440.794,349.881,440.857Z" transform="translate(-122.49 -440.74)"/>
    </g>
    <g id="freepik--Plant--inject-42" transform="translate(195.728 120.036)">
      <path id="Path_238" data-name="Path 238" class="cls-9" d="M546.843,354.174c-6.547-4.286-8.208-12.49-8.136-19.9a7.8,7.8,0,0,1,.414-3.634,2.567,2.567,0,0,1,3.075-1.382c.941.41,1.351,1.468,1.914,2.341a7.281,7.281,0,0,0,3.008,2.7,2.819,2.819,0,0,0,2.575.171c1.067-.617,1.157-2.094,1.121-3.323q-.108-3.435-.212-6.871a11.206,11.206,0,0,1,.284-3.661,3.837,3.837,0,0,1,2.368-2.639,2.346,2.346,0,0,1,2.936,1.481,11.558,11.558,0,0,1,.077,1.531,1.292,1.292,0,0,0,.792,1.2,1.493,1.493,0,0,0,1.351-.594,16.443,16.443,0,0,0,2.868-4.5,22.618,22.618,0,0,1,2.661-4.638,6.74,6.74,0,0,1,4.5-2.639,4.019,4.019,0,0,1,4.2,2.616c.491,1.715-.486,3.508-1.567,4.953a27.688,27.688,0,0,1-5.651,5.565A2.252,2.252,0,0,0,564.48,324c-.248.828.558,1.625,1.382,1.873a14.591,14.591,0,0,0,2.918.252,2.8,2.8,0,0,1,2.427,1.387c.54,1.243-.491,2.585-1.517,3.476a24.055,24.055,0,0,1-6.952,4.183,8.092,8.092,0,0,0-2.589,1.319,2.262,2.262,0,0,0-.675,2.625,2.356,2.356,0,0,0,2.575.9,17.054,17.054,0,0,0,2.7-1.094c1.693-.68,3.908-.617,5.038.819a3.836,3.836,0,0,1,.5,3.431,8.917,8.917,0,0,1-1.8,3.084,23.99,23.99,0,0,1-10.054,7.335c-3.94,1.454-7.609,1.914-11.594.581" transform="translate(-538.688 -309.801)"/>
      <path id="Path_239" data-name="Path 239" class="cls-8" d="M580.638,312a1.372,1.372,0,0,1-.117.122l-.36.333c-.32.293-.793.725-1.382,1.3a45.8,45.8,0,0,0-4.633,5.183c-.9,1.162-1.833,2.476-2.805,3.9s-2,2.963-3.021,4.615a54.57,54.57,0,0,0-2.945,5.331c-.45.95-.86,1.945-1.274,2.958s-.828,2.04-1.247,3.08a111.732,111.732,0,0,0-4.151,11.936,54.422,54.422,0,0,0-1.828,10.14,39.789,39.789,0,0,0,.054,6.948c.086.815.167,1.45.234,1.878q.04.306.068.486a.659.659,0,0,1,0,.167.806.806,0,0,1-.041-.162c-.023-.122-.054-.279-.09-.486-.086-.423-.18-1.058-.279-1.873a37.914,37.914,0,0,1-.126-6.97,53.745,53.745,0,0,1,1.8-10.18,109.329,109.329,0,0,1,4.142-11.968c.419-1.04.837-2.067,1.247-3.084s.819-2.013,1.283-2.967a55.34,55.34,0,0,1,2.967-5.345c1.027-1.652,2.062-3.183,3.044-4.611s1.923-2.738,2.832-3.895a43.956,43.956,0,0,1,4.7-5.146c.6-.563,1.085-.986,1.414-1.265l.378-.32Z" transform="translate(-548.529 -311.01)"/>
      <path id="Path_240" data-name="Path 240" class="cls-8" d="M573.166,341.463a2.705,2.705,0,0,1-.135-.522c-.072-.338-.162-.833-.266-1.441-.207-1.22-.45-2.913-.675-4.782s-.491-3.557-.716-4.773c-.112-.608-.207-1.094-.275-1.436A2.174,2.174,0,0,1,571,328a2.765,2.765,0,0,1,.167.513c.1.333.216.819.347,1.423.266,1.211.545,2.9.788,4.773l.608,4.791c.077.572.14,1.058.194,1.45A2.171,2.171,0,0,1,573.166,341.463Z" transform="translate(-556.451 -319.806)"/>
      <path id="Path_241" data-name="Path 241" class="cls-8" d="M591.754,350.469a3.891,3.891,0,0,1-.635.09c-.41.045-1,.108-1.734.212-1.463.189-3.476.522-5.678.991s-4.178.973-5.6,1.382c-.711.2-1.283.374-1.679.5a3.541,3.541,0,0,1-.621.167,3.273,3.273,0,0,1,.594-.252c.387-.144.95-.347,1.657-.567,1.409-.45,3.386-.982,5.6-1.45a55.967,55.967,0,0,1,5.7-.928c.738-.081,1.351-.122,1.747-.14A2.95,2.95,0,0,1,591.754,350.469Z" transform="translate(-559.095 -332.148)"/>
      <path id="Path_242" data-name="Path 242" class="cls-8" d="M550.83,372.866a.973.973,0,0,1-.112-.189l-.288-.567c-.248-.491-.59-1.211-1-2.107-.819-1.8-1.869-4.3-2.99-7.092s-2.143-5.3-2.922-7.11l-.919-2.139-.248-.581a.9.9,0,0,1-.077-.212,1.415,1.415,0,0,1,.117.189c.068.126.171.342.288.567.248.491.585,1.211,1,2.107.815,1.8,1.869,4.3,2.99,7.092s2.143,5.3,2.922,7.11l.928,2.139c.1.234.18.45.248.581A.728.728,0,0,1,550.83,372.866Z" transform="translate(-540.663 -333.478)"/>
      <path id="Path_243" data-name="Path 243" class="cls-8" d="M582.4,381.12a1.491,1.491,0,0,1-.212.09l-.612.221-2.251.779c-1.909.662-4.539,1.607-7.438,2.657s-5.538,1.968-7.461,2.589c-.964.315-1.742.558-2.287.716l-.626.18a.813.813,0,0,1-.225.045.8.8,0,0,1,.212-.09l.612-.221,2.251-.783c1.909-.662,4.539-1.6,7.438-2.652s5.538-1.968,7.461-2.594c.964-.311,1.742-.554,2.287-.711l.626-.18A.816.816,0,0,1,582.4,381.12Z" transform="translate(-551.113 -349.008)"/>
    </g>
    <g id="freepik--character-2--inject-42" transform="translate(116.482 10.919)">
      <rect id="Rectangle_36" data-name="Rectangle 36" class="cls-10" width="49.691" height="153.49" transform="translate(11.271 14.701)"/>
      <path id="Path_244" data-name="Path 244" class="cls-11" d="M460.13,102.72V248.173l23.774,6.867.077-152.319H460.13" transform="translate(-416.256 -86.844)"/>
      <path id="Path_245" data-name="Path 245" class="cls-7" d="M464.047,256.867c.045,1.139-.392,2.08-.977,2.107s-1.1-.9-1.144-2.022.392-2.08.977-2.1S464,255.728,464.047,256.867Z" transform="translate(-417.241 -170.475)"/>
      <path id="Path_246" data-name="Path 246" class="cls-7" d="M464.2,257.45l4.683.626a.518.518,0,0,1,.45.5h0a.518.518,0,0,1-.608.531l-4.5-.761Z" transform="translate(-418.493 -171.905)"/>
      <path id="Path_247" data-name="Path 247" class="cls-8" d="M374.83,88.06V246.98h7.8V94.661h45.792V246.98h8.586V88.06Z" transform="translate(-369.363 -78.785)"/>
      <rect id="Rectangle_37" data-name="Rectangle 37" class="cls-8" width="3.899" height="152.315" transform="translate(9.371 15.876)"/>
      <rect id="Rectangle_38" data-name="Rectangle 38" class="cls-12" width="3.899" height="152.315" transform="translate(9.371 15.876)"/>
      <rect id="Rectangle_39" data-name="Rectangle 39" class="cls-8" width="3.899" height="158.92" transform="translate(63.825 9.275)"/>
      <rect id="Rectangle_40" data-name="Rectangle 40" class="cls-12" width="3.899" height="158.92" transform="translate(63.825 9.275)"/>
      <rect id="Rectangle_41" data-name="Rectangle 41" class="cls-11" width="12.814" height="2.859" transform="translate(29.092)"/>
      <path id="Path_248" data-name="Path 248" class="cls-8" d="M425.953,155.8a6.479,6.479,0,0,0,4.908,5.943c1.391.338,2.994.18,4.1,1.112,1.891,1.607.783,4.953,2.062,7.083.783,1.324,2.341,1.972,3.224,3.228,1.468,2.085.482,5.241-1.517,6.794s-4.669,1.851-7.173,1.8c-5.516-.144-11.167-1.9-15.151-5.8-1.873-1.837-7.947-8.821-5.187-18.884" transform="translate(-388.977 -116.024)"/>
      <path id="Path_249" data-name="Path 249" class="cls-13" d="M379.745,167.648s-9.649,8.388-9.906,7.366c-1.351-5.552-.973-12.643-.752-15.358.149-.23.324-.486.531-.77a3.472,3.472,0,0,1,.86-.842,5.617,5.617,0,0,1,1.315-.738.45.45,0,0,0,.126-.86,3.909,3.909,0,0,0-2.765,1.13c-1.144.955-.675-1.315-.522-2.143s.513-3.422.293-3.665c-.32-.36-.77-.072-.9.761s-.72,3.3-1.157,3.215.419-4.314.419-4.314.324-.878-.176-1c-.9-.221-1.468,4.327-1.513,4.759-.032.3-.509.221-.45-.1s.941-4.192.027-4.426c-.7-.18-.5,3.733-1.135,4.444s.153-2.99-.527-3.152c-.252-.054-.45-.059-.59,2.125a48.015,48.015,0,0,0,.189,5.268c-.6,5.989-1.774,24.337,6.515,23.706,9.78-.747,12.031-8.456,12.031-8.456Z" transform="translate(-362.688 -113.068)"/>
      <path id="Path_250" data-name="Path 250" class="cls-13" d="M413.849,158.69a33.05,33.05,0,0,0-.108-4.025,3.477,3.477,0,0,1-3.008-3.3c-.122-2.94.167-9.721.167-9.721l5.309-2.548,5.709,4.6-.991,14.949Z" transform="translate(-389.084 -106.838)"/>
      <path id="Path_251" data-name="Path 251" class="cls-8" d="M412.23,155.3a.369.369,0,1,0,.374-.369.374.374,0,0,0-.374.369Z" transform="translate(-389.923 -115.546)"/>
      <path id="Path_252" data-name="Path 252" class="cls-8" d="M411.452,154.28c.045.05.32-.18.716-.194s.689.185.729.131-.027-.117-.158-.207a.932.932,0,0,0-.585-.171.968.968,0,0,0-.567.221C411.466,154.163,411.43,154.257,411.452,154.28Z" transform="translate(-389.492 -114.945)"/>
      <path id="Path_253" data-name="Path 253" class="cls-8" d="M421.66,155.459a.369.369,0,1,0,.374-.369.374.374,0,0,0-.374.369Z" transform="translate(-395.107 -115.634)"/>
      <path id="Path_254" data-name="Path 254" class="cls-8" d="M421.163,154.46c.05.05.324-.18.72-.2s.684.189.729.135-.027-.117-.158-.212a.955.955,0,0,0-1.153.054C421.181,154.338,421.14,154.433,421.163,154.46Z" transform="translate(-394.831 -115.044)"/>
      <path id="Path_255" data-name="Path 255" class="cls-8" d="M416.651,158.225a2.166,2.166,0,0,0-.644-.1c-.1,0-.2-.027-.216-.1a.644.644,0,0,1,.063-.324l.284-.833a15.235,15.235,0,0,0,.639-2.179,15.369,15.369,0,0,0-.8,2.121c-.095.3-.189.572-.275.842a.662.662,0,0,0-.045.423.243.243,0,0,0,.167.153.612.612,0,0,0,.171,0,2.494,2.494,0,0,0,.653,0Z" transform="translate(-391.8 -115.414)"/>
      <path id="Path_256" data-name="Path 256" class="cls-7" d="M418.418,163.381a7.634,7.634,0,0,1-1.918.639,1.076,1.076,0,0,0,1.3.405.856.856,0,0,0,.617-1.045Z" transform="translate(-392.271 -120.165)"/>
      <path id="Path_257" data-name="Path 257" class="cls-14" d="M417.45,172.152a7.033,7.033,0,0,0,3.818-1.252,3.692,3.692,0,0,1-3.769,1.972Z" transform="translate(-392.793 -124.325)"/>
      <path id="Path_258" data-name="Path 258" class="cls-8" d="M425.644,144.261c-.027-.207-.059-.522-.09-.851h0c-.045-.45-.095-.937-.153-1.2a9.226,9.226,0,0,0-7.726-7.407c-1.117-.023-3.053-.684-5.948,2.3a5.79,5.79,0,0,0-1.391,6.263l.486-.45,4.21-1.036a5.5,5.5,0,0,1,.486-3.264l.027-.027c.761,4.417,5.475,4.953,5.475,4.953l-.45,11.707c4.642-.937,5.011-8.465,5-11.013Z" transform="translate(-388.668 -104.439)"/>
      <path id="Path_259" data-name="Path 259" class="cls-13" d="M448.86,272.4v-.153A.588.588,0,0,1,448.86,272.4Z" transform="translate(-410.06 -180.038)"/>
      <path id="Path_260" data-name="Path 260" class="cls-13" d="M448.82,272.735v0Z" transform="translate(-410.038 -180.233)"/>
      <path id="Path_261" data-name="Path 261" class="cls-13" d="M426.608,344.134s-10.869-36.638-11.076-37.822c-.189-1.058,4.845-26.764,5.574-33.432l-15.282.144v.113l-7.384.2,3.7,73.213,8.1.212L410.12,322.7c4.007,11.752,9.077,25.03,9.077,25.03Z" transform="translate(-382.342 -180.387)"/>
      <path id="Path_262" data-name="Path 262" class="cls-13" d="M448.9,272.22Z" transform="translate(-410.082 -180.024)"/>
      <path id="Path_263" data-name="Path 263" class="cls-13" d="M448.89,272.26Z" transform="translate(-410.077 -180.046)"/>
      <path id="Path_264" data-name="Path 264" class="cls-14" d="M413.364,343.49a4.108,4.108,0,0,1-.05.8,16.053,16.053,0,0,0,.041,2.17,19.836,19.836,0,0,0,.54,3.174,30.951,30.951,0,0,0,1.3,3.737c1,2.63,1.9,5.011,2.544,6.754l.765,2.053a5.3,5.3,0,0,1,.243.765,5.855,5.855,0,0,1-.329-.734l-.815-2.026c-.68-1.716-1.6-4.093-2.612-6.722-.248-.657-.491-1.3-.729-1.923a16.925,16.925,0,0,1-.554-1.842,18.529,18.529,0,0,1-.5-3.215,13.708,13.708,0,0,1,.036-2.193c.027-.257.059-.45.086-.59A.652.652,0,0,1,413.364,343.49Z" transform="translate(-390.445 -219.204)"/>
      <path id="Path_265" data-name="Path 265" class="cls-14" d="M421.307,384.259c0-.221.144-8.159.144-8.159s-2.666-7.357-2.733-7.137S421.307,384.259,421.307,384.259Z" transform="translate(-393.49 -233.206)"/>
      <path id="Path_266" data-name="Path 266" class="cls-9" d="M440.5,434.6h0l7.15-3.467.824,1.535-2.526,1.427c-1.725.941-7.587,4.012-8.974,4.259C435.428,438.631,440.5,434.6,440.5,434.6Z" transform="translate(-403.364 -267.383)"/>
      <path id="Path_267" data-name="Path 267" class="cls-8" d="M436.62,439.887c-.036-.054,2.576-1.351,5.831-2.886s5.916-2.738,5.948-2.7-2.576,1.351-5.831,2.882S436.651,439.941,436.62,439.887Z" transform="translate(-403.331 -269.125)"/>
      <path id="Path_268" data-name="Path 268" class="cls-8" d="M458.69,434.086c-.036,0-.05-.135-.036-.351a2.066,2.066,0,0,1,.23-.824,1.4,1.4,0,0,1,.68-.626c.239-.095.405-.072.405-.05a2.77,2.77,0,0,1-.315.185,1.648,1.648,0,0,0-.545.585,4.219,4.219,0,0,0-.279.756C458.771,433.965,458.721,434.091,458.69,434.086Z" transform="translate(-415.441 -267.98)"/>
      <path id="Path_269" data-name="Path 269" class="cls-8" d="M444.3,439.493c0,.063.221.149.5.243s.522.158.563.1-.162-.225-.473-.329S444.309,439.425,444.3,439.493Z" transform="translate(-407.553 -271.95)"/>
      <path id="Path_270" data-name="Path 270" class="cls-8" d="M443.21,440.368c0,.068.189.189.45.275s.522.113.554.05-.18-.18-.45-.27S443.228,440.3,443.21,440.368Z" transform="translate(-406.954 -272.443)"/>
      <path id="Path_271" data-name="Path 271" class="cls-8" d="M442.306,441.158c-.027.059.126.171.324.275s.392.162.45.113-.086-.2-.3-.315S442.338,441.095,442.306,441.158Z" transform="translate(-406.456 -272.877)"/>
      <path id="Path_272" data-name="Path 272" class="cls-8" d="M442.271,437.154a1.5,1.5,0,0,0-.077-.752,2.152,2.152,0,0,0-.369-.765,1.917,1.917,0,0,0-.387-.374,1.211,1.211,0,0,0-.275-.149.536.536,0,0,0-.392,0,.405.405,0,0,0-.135.608,2.863,2.863,0,0,0,.333.405,4.985,4.985,0,0,0,.666.567,2.251,2.251,0,0,0,.711.405c.027-.027-.221-.212-.585-.527a7.168,7.168,0,0,1-.6-.585,2.731,2.731,0,0,1-.288-.369c-.081-.117-.059-.261.023-.293a.443.443,0,0,1,.383.113,1.675,1.675,0,0,1,.347.315,2.359,2.359,0,0,1,.392.689A4.078,4.078,0,0,0,442.271,437.154Z" transform="translate(-405.493 -269.553)"/>
      <path id="Path_273" data-name="Path 273" class="cls-8" d="M440.994,438.434a1.973,1.973,0,0,0-.707-.45,3.953,3.953,0,0,0-.9-.275,3.193,3.193,0,0,0-.563-.05,1.384,1.384,0,0,0-.32.041.451.451,0,0,0-.18.086.248.248,0,0,0-.095.212.734.734,0,0,0,.45.477,2,2,0,0,0,.549.176,4.25,4.25,0,0,0,.941.027c.545-.032.842-.221.815-.243a7.8,7.8,0,0,1-.824.077,4.951,4.951,0,0,1-.9-.076,1.745,1.745,0,0,1-.45-.158c-.135-.072-.288-.207-.3-.293s.167-.1.338-.09a2.743,2.743,0,0,1,.513.027,4.921,4.921,0,0,1,.855.216,5.4,5.4,0,0,0,.774.3Z" transform="translate(-404.216 -270.973)"/>
      <path id="Path_274" data-name="Path 274" class="cls-8" d="M445.469,434.515A20.564,20.564,0,0,0,449.1,433a21.079,21.079,0,0,0,3.372-1.873,30.422,30.422,0,0,0-3.553,1.634A37.165,37.165,0,0,0,445.469,434.515Z" transform="translate(-408.195 -267.378)"/>
      <path id="Path_275" data-name="Path 275" class="cls-9" d="M401.905,436.32h0l7.173.054-.122,2.076h-.45c-2.08,0-10.586-.153-11.95-.59C395.016,437.383,401.905,436.32,401.905,436.32Z" transform="translate(-381.183 -270.236)"/>
      <path id="Path_276" data-name="Path 276" class="cls-8" d="M396.44,438.981c0-.059,2.823.049,6.3.243s6.281.405,6.277.45-2.819-.045-6.3-.239S396.436,439.053,396.44,438.981Z" transform="translate(-381.243 -271.69)"/>
      <path id="Path_277" data-name="Path 277" class="cls-8" d="M419.313,438.884c-.027-.022.04-.14.185-.315a2.5,2.5,0,0,1,.7-.594,1.733,1.733,0,0,1,.977-.212c.261.031.4.126.383.149a1.888,1.888,0,0,1-.392,0,1.949,1.949,0,0,0-.828.243,4.39,4.39,0,0,0-.7.509C419.461,438.817,419.34,438.9,419.313,438.884Z" transform="translate(-393.814 -271.027)"/>
      <path id="Path_278" data-name="Path 278" class="cls-8" d="M407.5,436.527c-.049.05.1.234.3.45s.36.383.428.351,0-.266-.216-.5S407.548,436.477,407.5,436.527Z" transform="translate(-387.317 -270.344)"/>
      <path id="Path_279" data-name="Path 279" class="cls-8" d="M405.983,436.749c-.054.045.054.248.243.45s.392.338.45.3-.045-.239-.243-.45S406.055,436.7,405.983,436.749Z" transform="translate(-386.481 -270.468)"/>
      <path id="Path_280" data-name="Path 280" class="cls-8" d="M404.75,436.992c-.063.036,0,.2.117.383s.239.32.311.3.05-.212-.072-.405S404.808,436.956,404.75,436.992Z" transform="translate(-385.797 -270.602)"/>
      <path id="Path_281" data-name="Path 281" class="cls-8" d="M406.8,433.725a1.684,1.684,0,0,0,.387-.671,1.986,1.986,0,0,0,.14-.824,1.456,1.456,0,0,0-.113-.5,1,1,0,0,0-.149-.252.531.531,0,0,0-.347-.18.45.45,0,0,0-.491.45,2.394,2.394,0,0,0,.05.5,4.052,4.052,0,0,0,.234.792,1.775,1.775,0,0,0,.383.675,3.07,3.07,0,0,0-.2-.72,5.506,5.506,0,0,1-.171-.779,2.5,2.5,0,0,1-.027-.45c0-.135.1-.243.2-.234s.207.126.266.275a1.35,1.35,0,0,1,.113.45,2.174,2.174,0,0,1-.072.765A3.514,3.514,0,0,0,406.8,433.725Z" transform="translate(-386.625 -267.475)"/>
      <path id="Path_282" data-name="Path 282" class="cls-8" d="M405.022,434.251a1.666,1.666,0,0,0-.356-.7,3.336,3.336,0,0,0-.612-.648,2.8,2.8,0,0,0-.45-.306,1.315,1.315,0,0,0-.3-.117.541.541,0,0,0-.212,0,.3.3,0,0,0-.212.135.612.612,0,0,0,.09.6,1.472,1.472,0,0,0,.374.405,4.056,4.056,0,0,0,.811.45,1.351,1.351,0,0,0,.865.171,6.136,6.136,0,0,1-.77-.32,4.585,4.585,0,0,1-.734-.477,1.54,1.54,0,0,1-.311-.351.491.491,0,0,1-.081-.387c0-.04.2,0,.347.081a2.249,2.249,0,0,1,.45.266,3.954,3.954,0,0,1,.621.581C404.819,434.013,404.981,434.265,405.022,434.251Z" transform="translate(-384.759 -268.118)"/>
      <path id="Path_283" data-name="Path 283" class="cls-8" d="M409.08,436.276a18.669,18.669,0,0,0,3.444.23,21.582,21.582,0,0,0,3.449-.122,30.027,30.027,0,0,0-3.445-.117C410.629,436.249,409.084,436.213,409.08,436.276Z" transform="translate(-388.192 -270.193)"/>
      <path id="Path_284" data-name="Path 284" class="cls-15" d="M416.683,197.736s.293-1.1-.54-7.83a7.648,7.648,0,0,0-4.5-5.853v-.036l-.185-.054a17.56,17.56,0,0,0-5.6-1.63l-7.56-.122s-5.534-.689-9.059,3.152-5.93,6.1-5.93,6.1l5.633,6.754,1.508-1.49a11.1,11.1,0,0,0,.869,4.926l2.436,4.286-1.58,7.551c-1,2.877-4.3,13.4-3,23.823,1.6,12.909,1.855,16.682,1.855,16.682l18.254,2.494s7.294-27.331,4.8-38.187c-1.715-7.461-3.026-7.114-3.449-8.731l.459-11.612Z" transform="translate(-374.025 -130.517)"/>
      <path id="Path_285" data-name="Path 285" class="cls-8" d="M400.527,208.92a4.753,4.753,0,0,1-.657,1.351,4.589,4.589,0,0,1-.86,1.216,4.907,4.907,0,0,1,.657-1.351,4.711,4.711,0,0,1,.86-1.216Z" transform="translate(-382.656 -145.226)"/>
      <path id="Path_286" data-name="Path 286" class="cls-8" d="M420.4,239.94a3.237,3.237,0,0,1-.581.113c-.378.063-.928.135-1.6.2a44.752,44.752,0,0,1-5.327.221,45.927,45.927,0,0,1-5.318-.41c-.675-.095-1.22-.185-1.594-.257a2.923,2.923,0,0,1-.581-.14,3.373,3.373,0,0,1,.594.05l1.6.185c1.351.144,3.228.3,5.3.338s3.949-.054,5.3-.153l1.607-.126a2.589,2.589,0,0,1,.594-.023Z" transform="translate(-386.169 -162.13)"/>
      <path id="Path_287" data-name="Path 287" class="cls-8" d="M423.871,285.7a1.74,1.74,0,0,1-.068.356c-.063.257-.144.6-.248,1.027-.059.221-.117.45-.185.734s-.18.554-.279.865c-.207.612-.41,1.328-.738,2.076l-.486,1.189c-.171.41-.392.819-.6,1.256-.4.874-.932,1.756-1.468,2.7a35.4,35.4,0,0,1-9.456,10.293c-.9.612-1.725,1.216-2.567,1.684-.414.243-.806.5-1.2.7l-1.144.581a20.75,20.75,0,0,1-2.008.9c-.3.126-.576.248-.833.347l-.72.243-1,.333a2.134,2.134,0,0,1-.351.1,1.733,1.733,0,0,1,.338-.144l.982-.374.711-.261c.257-.1.527-.234.824-.365.585-.27,1.274-.536,1.986-.937l1.13-.594c.392-.207.779-.45,1.189-.707.833-.473,1.657-1.081,2.539-1.693a36.019,36.019,0,0,0,9.415-10.23c.54-.928,1.076-1.8,1.477-2.67.212-.45.45-.833.608-1.243s.342-.8.5-1.175c.338-.743.549-1.445.77-2.053.1-.306.212-.59.293-.855s.144-.509.2-.729l.293-1.009a2.7,2.7,0,0,1,.095-.347Z" transform="translate(-383.486 -187.435)"/>
      <path id="Path_288" data-name="Path 288" class="cls-7" d="M427.912,194.548a1.35,1.35,0,0,1-.288.167c-.189.1-.45.248-.842.423a11.486,11.486,0,0,1-3.3,1.09,6.16,6.16,0,0,1-2.409-.131,4.474,4.474,0,0,1-1.247-.545,4.8,4.8,0,0,1-1.067-.968A20.951,20.951,0,0,1,417.142,192a4.389,4.389,0,0,0-2.251-2.143,5.341,5.341,0,0,0-3.129.2,12.3,12.3,0,0,1-2.99.644,4.354,4.354,0,0,1-4.5-4.629,4.553,4.553,0,0,1,.338-1.463,3.192,3.192,0,0,1,.68-1.076,6.14,6.14,0,0,0-.594,1.112,4.5,4.5,0,0,0-.293,1.436,4.268,4.268,0,0,0,4.381,4.4,12.063,12.063,0,0,0,2.931-.653,9.9,9.9,0,0,1,1.585-.347,3.841,3.841,0,0,1,1.684.153,3.562,3.562,0,0,1,1.414.932,7.428,7.428,0,0,1,.959,1.315,22.087,22.087,0,0,0,1.585,2.566,4.21,4.21,0,0,0,2.2,1.459,5.984,5.984,0,0,0,2.337.158,11.994,11.994,0,0,0,3.282-1.013l.86-.383A2.252,2.252,0,0,1,427.912,194.548Z" transform="translate(-385.542 -131.268)"/>
      <path id="Path_289" data-name="Path 289" class="cls-7" d="M414.853,230.429a2.157,2.157,0,0,0,.32-.761,2.49,2.49,0,0,0-.7-2.049,3.265,3.265,0,0,0-1.3-.815,8.172,8.172,0,0,0-1.756-.383c-.635-.086-1.315-.135-2.008-.284a4.895,4.895,0,0,1-2.022-.869,3.124,3.124,0,0,1-.743-.856,5.718,5.718,0,0,1-.45-1,10.5,10.5,0,0,0-.734-1.851,3.318,3.318,0,0,0-2.738-1.621,3.408,3.408,0,0,0-2.112.684,6.76,6.76,0,0,0-.617.563,1.255,1.255,0,0,1,.117-.185,3.117,3.117,0,0,1,.45-.45,3.4,3.4,0,0,1,2.17-.779,3.48,3.48,0,0,1,2.918,1.675,10.6,10.6,0,0,1,.765,1.887,3.6,3.6,0,0,0,1.121,1.743,4.746,4.746,0,0,0,1.918.828c.675.149,1.351.2,1.986.3a4.988,4.988,0,0,1,3.152,1.3,2.539,2.539,0,0,1,.671,2.179,1.562,1.562,0,0,1-.261.581.949.949,0,0,1-.144.162Z" transform="translate(-383.195 -151.196)"/>
      <path id="Path_290" data-name="Path 290" class="cls-7" d="M431.487,285.44a6.39,6.39,0,0,0-1.8.077,20.537,20.537,0,0,0-2.058.536,9.933,9.933,0,0,1-2.787.5,8.1,8.1,0,0,1-3.368-.662,6.979,6.979,0,0,1-3.053-2.476,6.331,6.331,0,0,1-.977-4.219,6.11,6.11,0,0,1,.7-2.22,5.376,5.376,0,0,1,1.589-1.8,5,5,0,0,0,1.67-1.562,1.706,1.706,0,0,0,.153-1.054,4.051,4.051,0,0,0-.36-1.045,6.1,6.1,0,0,1-.756-2.107,4.5,4.5,0,0,1,.315-2.134,5.2,5.2,0,0,1,2.769-2.751,7.7,7.7,0,0,1,3.377-.608,17.4,17.4,0,0,0,2.805-.081,4.548,4.548,0,0,0,1.945-.756,2.9,2.9,0,0,0,.9-.977c.144-.27.176-.428.194-.423a1.577,1.577,0,0,1-.153.45,2.841,2.841,0,0,1-.874,1.027,4.629,4.629,0,0,1-1.977.815,16.962,16.962,0,0,1-2.828.117,7.587,7.587,0,0,0-3.3.617,5.011,5.011,0,0,0-2.638,2.666,4.236,4.236,0,0,0-.293,2.031,5.922,5.922,0,0,0,.738,2.035,4.052,4.052,0,0,1,.378,1.1,1.9,1.9,0,0,1-.171,1.193,5.226,5.226,0,0,1-1.738,1.643,5.4,5.4,0,0,0-2.2,3.845,6.137,6.137,0,0,0,.928,4.052,6.862,6.862,0,0,0,2.949,2.422,8.078,8.078,0,0,0,3.291.671,9.809,9.809,0,0,0,2.756-.45,18.46,18.46,0,0,1,2.076-.5,5.246,5.246,0,0,1,1.351-.063A2.426,2.426,0,0,1,431.487,285.44Z" transform="translate(-392.763 -174.23)"/>
      <path id="Path_291" data-name="Path 291" class="cls-7" d="M415.017,333.48a5.854,5.854,0,0,1,.031-.878,5.11,5.11,0,0,0-.41-2.305,2.251,2.251,0,0,0-1.094-1.108,4.211,4.211,0,0,0-1.8-.275,5.273,5.273,0,0,1-2.112-.261,2.5,2.5,0,0,1-.9-.707,5.767,5.767,0,0,1-.621-.986,8.152,8.152,0,0,0-1.153-1.9,5.717,5.717,0,0,0-1.6-1.279,5.493,5.493,0,0,0-3.381-.6,6,6,0,0,0-2.22.783c-.477.293-.711.5-.725.491s.05-.063.158-.167a5.326,5.326,0,0,1,2.765-1.27,5.538,5.538,0,0,1,3.5.576,5.782,5.782,0,0,1,1.675,1.315,5.881,5.881,0,0,1,.662.9c.189.333.351.68.527,1.022a3.152,3.152,0,0,0,1.418,1.589,5.174,5.174,0,0,0,2.022.257,4.444,4.444,0,0,1,1.9.311,2.445,2.445,0,0,1,1.162,1.216,5.079,5.079,0,0,1,.351,2.382c-.023.284-.049.5-.077.648A1.349,1.349,0,0,1,415.017,333.48Z" transform="translate(-382.664 -207.911)"/>
      <path id="Path_292" data-name="Path 292" class="cls-7" d="M402.458,263.64a7.131,7.131,0,0,1-.369.774,5.956,5.956,0,0,0-.671,2.188,2.881,2.881,0,0,0,.329,1.508,12.365,12.365,0,0,0,1.027,1.517,5.439,5.439,0,0,1,1.013,4.079,4.588,4.588,0,0,1-2.476,3.372,4.12,4.12,0,0,1-1.824.45,3.962,3.962,0,0,1-3.345-1.909,3.339,3.339,0,0,1-.261-.581.736.736,0,0,1-.05-.221,8.279,8.279,0,0,0,.392.756,3.859,3.859,0,0,0,1.734,1.445,3.664,3.664,0,0,0,1.526.311,3.927,3.927,0,0,0,1.734-.45,4.408,4.408,0,0,0,2.341-3.215,5.3,5.3,0,0,0-.964-3.926,12.118,12.118,0,0,1-1.022-1.553,3.044,3.044,0,0,1-.32-1.607,5.664,5.664,0,0,1,.756-2.215c.135-.243.243-.428.324-.549a1.1,1.1,0,0,1,.126-.176Z" transform="translate(-380.908 -175.308)"/>
      <path id="Path_293" data-name="Path 293" class="cls-8" d="M440.033,213.394a2.513,2.513,0,0,1-.054-.536c0-.4-.045-.9-.072-1.468-.063-1.288-.144-2.967-.234-4.827s-.153-3.6-.167-4.836V200.26a2.365,2.365,0,0,1,.036-.54,2.207,2.207,0,0,1,.054.54c.022.392.045.9.077,1.463.059,1.288.14,2.967.234,4.827s.149,3.6.162,4.836v1.468a2.366,2.366,0,0,1-.036.54Z" transform="translate(-404.917 -140.168)"/>
      <path id="Path_294" data-name="Path 294" class="cls-13" d="M412.947,217.156s.752,9.086-.113,9.717c-4.813,3.363-11.212,4.714-13.508,5.115-.32-.117-.689-.257-1.117-.45a3.566,3.566,0,0,1-1-.671,5.7,5.7,0,0,1-.991-1.135.45.45,0,0,0-.865.063,3.912,3.912,0,0,0,1.684,2.49c1.175.919-1.135.973-1.977,1s-3.436.261-3.625.536c-.279.4.09.783.932.729s3.363-.032,3.368.423-4.282.558-4.282.558-.9-.126-.932.4c-.027.946,4.5.486,4.953.45.3-.036.32.45,0,.482s-4.273,0-4.309.968c-.027.738,3.737-.342,4.561.126s-2.94.522-2.936,1.229c0,.266.036.45,2.188.113a42.713,42.713,0,0,0,4.557-1.216v.023s22.383-1.918,21.82-12.008c-.378-6.83-.252-5.57-.671-9.158" transform="translate(-377.988 -149.635)"/>
    </g>
    <g id="freepik--character-1--inject-42" transform="translate(44.36 38.356)">
      <path id="Path_295" data-name="Path 295" class="cls-9" d="M214.686,430.294l.734-4.584-8.208-1.351L206.05,431.2l.5.117c2.251.509,11.464,2.278,13.058,2.049C221.386,433.1,214.686,430.294,214.686,430.294Z" transform="translate(-204.456 -291.098)"/>
      <path id="Path_296" data-name="Path 296" class="cls-8" d="M219.984,440.776c0,.077-3.093-.351-6.884-.959s-6.853-1.162-6.839-1.238,3.093.351,6.884.959S220,440.7,219.984,440.776Z" transform="translate(-204.571 -298.91)"/>
      <path id="Path_297" data-name="Path 297" class="cls-8" d="M225.2,438.755c-.063-.045.032-.279.248-.491s.45-.3.5-.239-.1.248-.3.45S225.26,438.8,225.2,438.755Z" transform="translate(-214.971 -298.6)"/>
      <path id="Path_298" data-name="Path 298" class="cls-8" d="M226.239,439.409c-.068-.041,0-.306.221-.563s.45-.4.5-.342-.086.275-.279.518S226.311,439.45,226.239,439.409Z" transform="translate(-215.541 -298.867)"/>
      <path id="Path_299" data-name="Path 299" class="cls-8" d="M209.159,437.055c-.036,0-.14-.122-.288-.351a5.182,5.182,0,0,0-.6-.837,1.891,1.891,0,0,0-.828-.531c-.243-.072-.414-.058-.419-.1s.162-.122.45-.09a1.666,1.666,0,0,1,1,.531,3.027,3.027,0,0,1,.576.941C209.154,436.874,209.19,437.041,209.159,437.055Z" transform="translate(-204.989 -297.021)"/>
      <path id="Path_300" data-name="Path 300" class="cls-8" d="M224.557,437.7c.027.068-.135.207-.387.252s-.45,0-.45-.09.18-.14.4-.185S224.526,437.624,224.557,437.7Z" transform="translate(-214.17 -298.401)"/>
      <path id="Path_301" data-name="Path 301" class="cls-8" d="M224.269,436.455c0,.081-.234.113-.513.072s-.486-.135-.45-.212.243-.108.509-.068S224.273,436.379,224.269,436.455Z" transform="translate(-213.94 -297.624)"/>
      <path id="Path_302" data-name="Path 302" class="cls-9" d="M279.357,429.678l-.171-4.638-8.316.252.185,6.939h.518c2.3.063,11.707,0,13.206-.527C286.472,431.128,279.357,429.678,279.357,429.678Z" transform="translate(-240.09 -291.472)"/>
      <path id="Path_303" data-name="Path 303" class="cls-8" d="M285.2,438.877c0,.081-3.1.257-6.939.4s-6.948.189-6.952.113,3.107-.257,6.943-.4S285.2,438.8,285.2,438.877Z" transform="translate(-240.332 -299.06)"/>
      <path id="Path_304" data-name="Path 304" class="cls-8" d="M290.081,436.366c-.072-.032-.023-.279.149-.527s.383-.387.45-.333-.045.261-.2.491S290.153,436.4,290.081,436.366Z" transform="translate(-250.633 -297.219)"/>
      <path id="Path_305" data-name="Path 305" class="cls-8" d="M291.273,436.791c-.072-.022-.045-.3.108-.594s.36-.477.423-.45-.032.284-.171.558S291.35,436.818,291.273,436.791Z" transform="translate(-251.286 -297.357)"/>
      <path id="Path_306" data-name="Path 306" class="cls-8" d="M273.869,437.912a1.161,1.161,0,0,1-.347-.293,5.655,5.655,0,0,0-.756-.7,1.909,1.909,0,0,0-.9-.36,2.6,2.6,0,0,1-.45,0c-.032-.022.135-.153.45-.18a1.648,1.648,0,0,1,1.081.329,3.018,3.018,0,0,1,.747.81C273.829,437.728,273.9,437.89,273.869,437.912Z" transform="translate(-240.388 -297.703)"/>
      <path id="Path_307" data-name="Path 307" class="cls-8" d="M289.154,435.46c.045.063-.09.23-.324.324s-.45.072-.45,0,.149-.176.356-.261S289.109,435.393,289.154,435.46Z" transform="translate(-249.716 -297.182)"/>
      <path id="Path_308" data-name="Path 308" class="cls-8" d="M288.565,434.365c0,.077-.212.153-.491.167s-.5-.036-.5-.117.221-.153.491-.167S288.552,434.288,288.565,434.365Z" transform="translate(-249.271 -296.533)"/>
      <path id="Path_309" data-name="Path 309" class="cls-16" d="M310.727,163.966l-.45-1.513a13.545,13.545,0,0,0-.734-2.553,3.945,3.945,0,0,0-.666-1.144,6.124,6.124,0,0,0-1.166-1.157.5.5,0,0,1,.113-.95,4.228,4.228,0,0,1,2.589,2c.928,1.346,1.1-1.189,1.18-2.112s.45-3.764.761-3.953c.45-.284.837.149.738,1.067s-.212,3.7.275,3.733.824-4.674.824-4.674-.09-1.022.477-1c1.018.032.284,5,.2,5.466-.054.329.473.378.518.027s.23-4.705,1.265-4.683c.8,0-.563,4.088-.1,5.025s.716-3.206,1.477-3.152c.279,0,.491.068,0,2.413s-2.913,8.663-2.913,8.663l-4.422-1.58" transform="translate(-260.185 -141.212)"/>
      <path id="Path_310" data-name="Path 310" class="cls-16" d="M247.008,153.648l7.483.554c.1-.864.248-4.228.248-4.228a3.72,3.72,0,0,0,3.35-3.386c.225-3.093.135-10.23.135-10.23h0a10.775,10.775,0,0,0-10.892.693l-.482.324Z" transform="translate(-226.885 -132.137)"/>
      <path id="Path_311" data-name="Path 311" class="cls-8" d="M269.634,148.553a.452.452,0,1,1,.639.009A.452.452,0,0,1,269.634,148.553Z" transform="translate(-239.34 -139.055)"/>
      <path id="Path_312" data-name="Path 312" class="cls-8" d="M269.637,147.4c-.054.05-.342-.2-.77-.23s-.747.171-.792.113.036-.117.176-.212a1.022,1.022,0,0,1,.639-.158,1.04,1.04,0,0,1,.608.248C269.619,147.289,269.66,147.4,269.637,147.4Z" transform="translate(-238.547 -138.574)"/>
      <path id="Path_313" data-name="Path 313" class="cls-8" d="M259.734,148.07a.451.451,0,1,1-.626.108A.451.451,0,0,1,259.734,148.07Z" transform="translate(-233.578 -139.166)"/>
      <path id="Path_314" data-name="Path 314" class="cls-8" d="M259.3,147.621c-.049.05-.338-.2-.765-.23s-.747.171-.792.113.032-.117.176-.212a1,1,0,0,1,.635-.158,1.026,1.026,0,0,1,.608.248C259.289,147.522,259.329,147.6,259.3,147.621Z" transform="translate(-232.867 -138.695)"/>
      <path id="Path_315" data-name="Path 315" class="cls-8" d="M264.513,151.7a2.179,2.179,0,0,1,.7-.1c.113,0,.2-.027.216-.086a.622.622,0,0,0-.059-.329c-.095-.288-.185-.581-.284-.9a12.048,12.048,0,0,1-.594-2.319,12.237,12.237,0,0,1,.819,2.251c.09.306.176.6.266.9a.725.725,0,0,1,.031.45.3.3,0,0,1-.2.167.715.715,0,0,1-.189,0,2.251,2.251,0,0,1-.7-.036Z" transform="translate(-236.583 -139.156)"/>
      <path id="Path_316" data-name="Path 316" class="cls-7" d="M261.313,157.055a8.289,8.289,0,0,0,2.053.734,1.18,1.18,0,0,1-1.418.383C261.043,157.776,261.313,157.055,261.313,157.055Z" transform="translate(-234.798 -144.122)"/>
      <path id="Path_317" data-name="Path 317" class="cls-17" d="M259.542,166.206a7.231,7.231,0,0,1-3.962-1.4,3.816,3.816,0,0,0,3.922,2.2Z" transform="translate(-231.685 -148.414)"/>
      <path id="Path_318" data-name="Path 318" class="cls-8" d="M246.273,139.329l.374,2.22,1.378-.027-.09-4.624s5.466.423,6.092-1.765c0,0,1.607,2.418,3.6,2.409,0,0,1.747-.18.086-2.616-2.567-3.746-11.707-.734-11.707-.734a6.3,6.3,0,0,0-.329,2.125C245.642,138.712,246.273,139.329,246.273,139.329Z" transform="translate(-226.24 -130.952)"/>
      <path id="Path_319" data-name="Path 319" class="cls-18" d="M245.095,134.521l12.157-2.413s-.865-4.872-7.434-3.453C243.442,130.045,245.095,134.521,245.095,134.521Z" transform="translate(-225.815 -128.395)"/>
      <path id="Path_320" data-name="Path 320" class="cls-19" d="M245.33,138.68c.171-.032,14.886.315,15.935-1.72.5-.973-3.854-1-3.854-1l.1.306Z" transform="translate(-226.05 -132.554)"/>
      <path id="Path_321" data-name="Path 321" class="cls-20" d="M245.33,138.68c.171-.032,14.886.315,15.935-1.72.5-.973-3.854-1-3.854-1l.1.306Z" transform="translate(-226.05 -132.554)"/>
      <path id="Path_322" data-name="Path 322" class="cls-16" d="M245.607,146.1c-.068-.027-2.3-.315-2.085,2.314s2.8,1.549,2.8,1.472S245.607,146.1,245.607,146.1Z" transform="translate(-225.048 -138.118)"/>
      <path id="Path_323" data-name="Path 323" class="cls-17" d="M246.234,150.136a1.133,1.133,0,0,1-.122.081.45.45,0,0,1-.342.032,1.13,1.13,0,0,1-.6-.973,1.468,1.468,0,0,1,.077-.666.522.522,0,0,1,.315-.383.234.234,0,0,1,.279.1c.041.072.032.126.045.131s.054-.05,0-.158a.3.3,0,0,0-.117-.158.351.351,0,0,0-.257-.045.657.657,0,0,0-.45.45,1.616,1.616,0,0,0-.1.747,1.2,1.2,0,0,0,.761,1.085.5.5,0,0,0,.414-.1C246.234,150.2,246.243,150.141,246.234,150.136Z" transform="translate(-225.841 -139.224)"/>
      <rect id="Rectangle_42" data-name="Rectangle 42" class="cls-8" width="1.49" height="1.49" transform="translate(26.242 2.419) rotate(-1.1)"/>
      <rect id="Rectangle_43" data-name="Rectangle 43" class="cls-8" width="0.747" height="0.747" transform="matrix(1, -0.019, 0.019, 1, 26.968, 1.597)"/>
      <path id="Path_324" data-name="Path 324" class="cls-15" d="M252.5,173s-2.3,14.643-3.922,14.719c-1.851.09-7.542-7.983-7.542-7.983h0c-3.643-5.619-8.447-6.529-10.2-6.668v-.693l-8.609-.707v1.391h-3.814s-6.826-.315-7.853,8.857l4.912,3.881,2.013,7.488c.612,2.287-.324,5.205-1.351,10.329l-.617-.144-.261,5.164c-.036.243-.072.491-.1.738h.068l-2.08,41.239L202.51,290.557l11.972.45,11.04-38.97s.959-31.158,1.932-31.176c1.634-.032,2.679,69.313,3.3,69.156s12.923-.032,12.923-.032-4.07-80.795-4.03-80.795h0L238.6,193.881l-.4-4.422h0c2.337,3.287,6.754,8.42,11.473,8.33,7.686-.149,8.767-23.976,8.767-23.976Z" transform="translate(-202.51 -152.185)"/>
      <path id="Path_325" data-name="Path 325" class="cls-8" d="M256.93,267.872a10.638,10.638,0,0,0,.711-1.351,10.04,10.04,0,0,0,.581-3.571v-3.679a9.007,9.007,0,0,1,.059-1.522,10.608,10.608,0,0,1,.108,1.522c.027.941.086,2.251.072,3.683a12.9,12.9,0,0,1-.18,2.031,6.906,6.906,0,0,1-.482,1.6,5.085,5.085,0,0,1-.576.968C257.043,267.768,256.962,267.885,256.93,267.872Z" transform="translate(-232.427 -199.506)"/>
      <path id="Path_326" data-name="Path 326" class="cls-8" d="M234.825,265.7a1.32,1.32,0,0,1,.063.423c.023.275.05.666.063,1.162a7.727,7.727,0,0,1-.752,3.76,4.223,4.223,0,0,1-1.432,1.594,3.4,3.4,0,0,1-1.666.522,2.7,2.7,0,0,1-1.162-.2,1.023,1.023,0,0,1-.369-.225,3.485,3.485,0,0,0,1.522.261,3.418,3.418,0,0,0,1.558-.545A4.157,4.157,0,0,0,234,270.932a8.186,8.186,0,0,0,.792-3.647,15.337,15.337,0,0,1,.032-1.585Z" transform="translate(-217.386 -203.877)"/>
      <path id="Path_327" data-name="Path 327" class="cls-8" d="M280.106,273.824a.943.943,0,0,1-.293.279,1.9,1.9,0,0,1-1.076.279,2.67,2.67,0,0,1-1.549-.576,5.921,5.921,0,0,1-1.351-1.486,7.654,7.654,0,0,1-1.247-3.39,6.969,6.969,0,0,1-.032-1.1,1.135,1.135,0,0,1,.063-.4c.041,0,0,.572.135,1.477a8.158,8.158,0,0,0,1.274,3.282,6.041,6.041,0,0,0,1.288,1.445,2.566,2.566,0,0,0,1.423.581,1.99,1.99,0,0,0,1.027-.194C279.989,273.909,280.093,273.806,280.106,273.824Z" transform="translate(-242.113 -204.828)"/>
      <path id="Path_328" data-name="Path 328" class="cls-8" d="M215.851,430.264c0,.068-2.657.023-5.925-.095S204,429.9,204,429.837s2.657-.023,5.93.1S215.855,430.2,215.851,430.264Z" transform="translate(-203.329 -294.094)"/>
      <path id="Path_329" data-name="Path 329" class="cls-8" d="M277.481,426.787a1.9,1.9,0,0,1-.5.068l-1.351.1c-1.153.072-2.742.158-4.5.239s-3.354.14-4.5.176l-1.351.022a2.024,2.024,0,0,1-.5-.022,2.177,2.177,0,0,1,.5-.068l1.351-.1c1.153-.077,2.742-.162,4.5-.243s3.354-.14,4.5-.171l1.351-.027A2.381,2.381,0,0,1,277.481,426.787Z" transform="translate(-236.737 -292.418)"/>
      <path id="Path_330" data-name="Path 330" class="cls-8" d="M229.641,282.35a.742.742,0,0,1,0,.176v.518c0,.45-.022,1.135-.036,1.99-.041,1.724-.117,4.223-.243,7.312s-.3,6.754-.54,10.838c-.122,2.04-.257,4.178-.45,6.394-.095,1.108-.18,2.251-.374,3.377s-.45,2.274-.684,3.431c-2.053,9.208-4.359,17.43-6.16,23.342-.9,2.958-1.711,5.322-2.278,6.956l-.689,1.864c-.081.2-.14.365-.189.482a.639.639,0,0,1-.068.162.684.684,0,0,1,.045-.167c.041-.122.095-.284.167-.491l.648-1.882c.54-1.639,1.351-4.012,2.206-6.97,1.756-5.921,4.052-14.152,6.088-23.351.248-1.148.5-2.287.684-3.413s.279-2.251.374-3.359c.185-2.215.324-4.354.45-6.389.252-4.052.45-7.749.59-10.833s.243-5.57.32-7.308c.032-.855.059-1.522.077-1.99a3.819,3.819,0,0,1,.027-.513A1.729,1.729,0,0,1,229.641,282.35Z" transform="translate(-210.987 -213.03)"/>
      <path id="Path_331" data-name="Path 331" class="cls-8" d="M277.321,350.466a.654.654,0,0,1-.023-.162,2.55,2.55,0,0,0-.036-.477c-.032-.45-.072-1.049-.126-1.837-.095-1.607-.23-3.913-.4-6.754-.32-5.7-.72-13.593-1.09-22.3s-.639-16.61-.815-22.32c-.077-2.846-.144-5.155-.185-6.754,0-.788-.031-1.4-.041-1.837v-.482a.9.9,0,0,1,0-.162.9.9,0,0,1,0,.162,3.315,3.315,0,0,0,.027.477c0,.45.045,1.054.081,1.842.063,1.607.149,3.917.261,6.754.225,5.718.54,13.6.9,22.31s.743,16.6,1.022,22.306c.14,2.846.248,5.151.329,6.754.032.788.059,1.4.077,1.842v.477A.9.9,0,0,1,277.321,350.466Z" transform="translate(-242.142 -215.795)"/>
      <path id="Path_332" data-name="Path 332" class="cls-8" d="M251.725,172.68a7.211,7.211,0,0,1,0,1.211,17.56,17.56,0,0,1-.3,3.012l-.027.149-.135-.072c-.288-.149-.585-.306-.878-.482-1.252-.729-2.314-1.49-3.1-2.013a12.593,12.593,0,0,1-1.256-.869,7.362,7.362,0,0,1,1.351.729c.81.491,1.891,1.229,3.129,1.95.293.171.585.333.865.482l-.167.077a22.3,22.3,0,0,0,.369-2.972A7.521,7.521,0,0,1,251.725,172.68Z" transform="translate(-226.434 -152.74)"/>
      <path id="Path_333" data-name="Path 333" class="cls-8" d="M261.918,173.86a8.5,8.5,0,0,1-.243,1.121c-.086.342-.176.756-.324,1.211a5.724,5.724,0,0,1-.275.7.45.45,0,0,1-.162.194.248.248,0,0,1-.32-.036,1.436,1.436,0,0,1-.2-.4c-.419-1-.788-1.9-1.04-2.566A5.457,5.457,0,0,1,259,173a5.708,5.708,0,0,1,.522,1.027c.293.648.684,1.544,1.1,2.544a2.09,2.09,0,0,0,.149.324h.036a.27.27,0,0,0,.077-.1,6.428,6.428,0,0,0,.279-.671c.153-.45.261-.842.365-1.184a4.344,4.344,0,0,1,.387-1.081Z" transform="translate(-233.565 -152.916)"/>
      <path id="Path_334" data-name="Path 334" class="cls-8" d="M260.257,204.494a1.439,1.439,0,0,1-.036-.324c0-.234-.036-.54-.063-.923-.041-.828-.1-1.986-.176-3.4-.131-2.9-.306-6.853-.5-11.225s-.32-8.33-.45-11.23c-.045-1.418-.077-2.571-.1-3.4v-.9a2.565,2.565,0,0,1,0-.324,1.491,1.491,0,0,1,.04.32c0,.234.036.54.059.923.045.833.1,1.986.18,3.4.131,2.9.306,6.853.5,11.225s.324,8.334.45,11.23c.045,1.418.081,2.576.108,3.4v.928A1.385,1.385,0,0,1,260.257,204.494Z" transform="translate(-233.52 -152.784)"/>
      <rect id="Rectangle_44" data-name="Rectangle 44" class="cls-7" width="4.138" height="0.855" transform="matrix(1, -0.019, 0.019, 1, 28.086, 29.347)"/>
      <path id="Path_335" data-name="Path 335" class="cls-8" d="M281.65,207.354c-.068,0-.329-3.125-.585-6.993s-.414-7-.351-7,.324,3.125.585,6.988S281.735,207.35,281.65,207.354Z" transform="translate(-245.494 -164.109)"/>
      <path id="Path_336" data-name="Path 336" class="cls-8" d="M318.9,181.369a21.608,21.608,0,0,1-3.107-.59,21.946,21.946,0,0,1-3.053-.819,21.611,21.611,0,0,1,3.107.59A21.222,21.222,0,0,1,318.9,181.369Z" transform="translate(-263.108 -156.742)"/>
      <path id="Path_337" data-name="Path 337" class="cls-8" d="M315.024,176.94a.423.423,0,1,1-.414.428.419.419,0,0,1,.414-.428Z" transform="translate(-264.136 -155.082)"/>
      <rect id="Rectangle_45" data-name="Rectangle 45" class="cls-18" width="1.49" height="1.49" transform="translate(30.692 27.386) rotate(-1.1)"/>
      <rect id="Rectangle_46" data-name="Rectangle 46" class="cls-18" width="0.747" height="0.747" transform="matrix(1, -0.019, 0.019, 1, 31.413, 26.559)"/>
      <path id="Path_338" data-name="Path 338" class="cls-18" d="M276.72,205.493l-.612,24.044-37.727-.194.122-24.364Z" transform="translate(-222.229 -170.497)"/>
      <path id="Path_339" data-name="Path 339" class="cls-7" d="M273.731,229.958c-.063,0,0-5.372.189-11.99s.369-11.968.419-11.968,0,5.367-.185,11.99S273.794,229.958,273.731,229.958Z" transform="translate(-241.65 -171.057)"/>
      <path id="Path_340" data-name="Path 340" class="cls-7" d="M238.38,229.9a1.273,1.273,0,0,1,.149-.252l.45-.707,1.76-2.562,5.88-8.411c2.3-3.282,4.372-6.259,5.853-8.429.743-1.085,1.351-1.968,1.738-2.58l.45-.707a1.445,1.445,0,0,1,.207-.257,1.017,1.017,0,0,1-.135.261l-.423.734c-.383.626-.955,1.526-1.675,2.621-1.445,2.2-3.5,5.192-5.795,8.474s-4.408,6.236-5.939,8.37l-1.8,2.521c-.207.279-.378.5-.5.68A1.2,1.2,0,0,1,238.38,229.9Z" transform="translate(-222.229 -171.057)"/>
      <path id="Path_341" data-name="Path 341" class="cls-7" d="M254.227,229.933c-.054.036-3.53-5.381-7.758-12.1s-7.618-12.193-7.56-12.225,3.526,5.381,7.758,12.1S254.281,229.9,254.227,229.933Z" transform="translate(-222.52 -170.843)"/>
      <rect id="Rectangle_47" data-name="Rectangle 47" class="cls-7" width="6.056" height="1.243" transform="translate(42.531 55.725) rotate(-178.282)"/>
      <path id="Path_342" data-name="Path 342" class="cls-7" d="M283.18,248.081a37.549,37.549,0,0,1,5.925.009,37.549,37.549,0,0,1-5.925-.009Z" transform="translate(-246.857 -194.12)"/>
      <path id="Path_343" data-name="Path 343" class="cls-7" d="M302.627,205.6l-.234,9.284-1.3-1.049-1.706.973.239-9.28Z" transform="translate(-255.769 -170.799)"/>
      <path id="Path_344" data-name="Path 344" class="cls-16" d="M225.46,197.8s-1.828,12.76-.964,13.508c4.791,4.03,11.45,6.142,13.832,6.808.347-.086.756-.194,1.22-.342a3.656,3.656,0,0,0,1.121-.585,5.732,5.732,0,0,0,1.157-1.072.491.491,0,0,1,.9.167,3.973,3.973,0,0,1-2.013,2.4s3.053,4.912,4.025,5.354,3.76,1.7,3.287,1.941-3.859-.747-3.859-.747L237.3,223.4s-22.734-3.562-21.216-13.99c.928-6.389,1.941-12.157,2.305-13.607Z" transform="translate(-209.931 -165.45)"/>
      <path id="Path_345" data-name="Path 345" class="cls-15" d="M217.873,194.44l-2.04,13.922c-.45,4.291,2.4,7.69,6.263,9.609,5.88,2.913,14.611,4.989,14.539,4.975s.59-6.191.59-6.191-12.238-5.3-12.607-7.578,1.553-11.8,1.553-11.8Z" transform="translate(-209.808 -164.702)"/>
      <path id="Path_346" data-name="Path 346" class="cls-8" d="M247.012,215.211a.329.329,0,0,1,0-.108v-.324c.023-.3.054-.716.095-1.238.095-1.094.23-2.643.4-4.548l.05.081-6.16-2.981-1.8-.869c-.6-.32-1.2-.666-1.8-1.049a17.162,17.162,0,0,1-1.738-1.274c-.279-.234-.554-.477-.819-.738a1.571,1.571,0,0,1-.356-.45,1.153,1.153,0,0,1-.1-.279,2.052,2.052,0,0,1-.063-.288,15.156,15.156,0,0,1,.419-4.327c.207-1.369.45-2.7.689-3.971.45-2.526.837-4.8,1.175-6.718a14.43,14.43,0,0,0,.311-2.585,4.543,4.543,0,0,0-.4-1.9,3.178,3.178,0,0,0-.72-1c-.212-.194-.342-.266-.338-.279a1.638,1.638,0,0,1,.369.243,3.007,3.007,0,0,1,.77.991,4.5,4.5,0,0,1,.45,1.936,13.959,13.959,0,0,1-.279,2.616c-.32,1.923-.7,4.2-1.126,6.731l-.675,3.976c-.059.342-.117.693-.18,1.045s-.126.693-.176,1.049a7.835,7.835,0,0,0-.054,2.152,1.677,1.677,0,0,0,.054.261,1.112,1.112,0,0,0,.086.243,1.225,1.225,0,0,0,.311.4c.257.257.527.5.8.729A17.892,17.892,0,0,0,237.917,204c.585.383,1.18.729,1.77,1.045l1.774.874,6.128,3.026.054.027v.05c-.2,1.9-.36,3.453-.45,4.543-.059.522-.1.932-.135,1.234a1.755,1.755,0,0,1-.045.32C247,215.2,247.017,215.216,247.012,215.211Z" transform="translate(-220.186 -156.968)"/>
      <path id="Path_347" data-name="Path 347" class="cls-8" d="M258.054,242.06a3.742,3.742,0,0,1-.072.95c-.077.585-.2,1.387-.36,2.251s-.347,1.675-.5,2.251a3.832,3.832,0,0,1-.3.9c-.063,0,.243-1.432.572-3.188a26.708,26.708,0,0,1,.662-3.165Z" transform="translate(-232.362 -190.881)"/>
      <path id="Path_348" data-name="Path 348" class="cls-8" d="M238.677,247.217a.743.743,0,0,1-.212-.032l-.608-.149-2.215-.576c-1.86-.5-4.453-1.162-7.2-2.184a30.38,30.38,0,0,1-3.809-1.693,21.9,21.9,0,0,1-2.864-1.842,16.284,16.284,0,0,1-1.715-1.526c-.185-.194-.329-.351-.419-.45a.752.752,0,0,1-.131-.176s.221.2.617.572a18.524,18.524,0,0,0,1.752,1.454,21.884,21.884,0,0,0,2.864,1.8,31.4,31.4,0,0,0,3.787,1.666c2.756,1.013,5.34,1.7,7.2,2.251l2.193.653.594.185A1.184,1.184,0,0,1,238.677,247.217Z" transform="translate(-211.85 -188.973)"/>
      <path id="Path_349" data-name="Path 349" class="cls-8" d="M261.468,244.9a.4.4,0,0,1-.387.405.4.4,0,0,1-.4-.387.4.4,0,0,1,.387-.405A.4.4,0,0,1,261.468,244.9Z" transform="translate(-234.488 -192.228)"/>
    </g>
  </g>
</svg>
