<svg id="freepik--earth-globe--inject-59" xmlns="http://www.w3.org/2000/svg" xmlns:xlink="http://www.w3.org/1999/xlink" width="381.893" height="381.893" viewBox="0 0 381.893 381.893">
  <defs>
    <style>
      .cls-1 {
        fill: #878787;
        stroke: #263238;
        stroke-linecap: round;
        stroke-linejoin: round;
      }

      .cls-2 {
        fill: #5163c7;
      }

      .cls-3 {
        clip-path: url(#clip-path);
      }

      .cls-4 {
        fill: #ffbd69;
      }

      .cls-5 {
        opacity: 0.3;
      }

      .cls-6 {
        fill: none;
      }
    </style>
    <clipPath id="clip-path">
      <circle id="Ellipse_21" data-name="Ellipse 21" class="cls-1" cx="135.019" cy="135.019" r="135.019" transform="translate(0 190.946) rotate(-45)"/>
    </clipPath>
  </defs>
  <circle id="Ellipse_20" data-name="Ellipse 20" class="cls-2" cx="135.019" cy="135.019" r="135.019" transform="translate(0 190.946) rotate(-45)"/>
  <g id="Group_54" data-name="Group 54" class="cls-3">
    <path id="Path_773" data-name="Path 773" class="cls-4" d="M226.037,182.651l12.82,5.768,3.526,5.768,5.768,2.242.638,6.1-2.242,3.526-4.483.911-9.622-3.845v-1.285l5.467-2.242-1.941-6.661-8.647-3.207-3.845-5.13ZM306.786,330.7l-10.251-4.173-12.5-4.483h-9.9l-9.294-1.923-10.251,2.241-5.768.319h-3.526l-6.725,3.845-6.378,2.57-8.647-5.467,2.242-8.975-5.467-2.241h-6.378L212.9,309.56l.647-5.768-2.287-3.216-4.483.638-1.285,3.207-5.467.319-4.811-5.768-1.923-7.69,4.811-8.975,9.285.647,2.57,2.241H213.8l4.8-2.888,4.164,1.285,5.8,9.932,2.251-.319-.647-7.371-1.923-3.845.647-6.087,11.845-5.13,1.6-11.845,5.121-4.164,4.173-7.371,3.2-.638,7.371-4.811.319-2.56-5.121.319-.966-2.56h-3.526l-5.467,1.276,2.57-4.164,11.217-3.2,2.56-2.888,4.483,7.053,2.888,2.879,4.483-1.276-1.923-4.173-6.725-4.8-7.69-8.656-8.018-5.467-7.69-1.285-3.845-3.845-5.121-1.285-.647,1.285-.638,9.294,1.285,3.2-2.888,10.26-6.378-5.13.911-4.483-6.725-3.207-2.834-3.508,1.6-8.009,9.294-6.734.638-7.69-3.526.328-2.242-2.888-.911-4.8-2.242-.328-1.285,5.13-3.526.638-1.6-11.208-2.579-1.6-4.483-1.923-5.13,2.56,6.378,6.087,1.285,5.467-11.536-8.647-8.009-8.656-.647-8.647-8.328-2.57-6.378,4.164a50.675,50.675,0,0,1-4.811,2.57c-1.6.638-7.69,1.276-7.69,1.276L159.712,175l-7.362.319.638,3.526,11.845,1.923,6.087,6.734v11.217l-3.526,9.932.647,10.57-8.975,15.709-1.923,23.39,2.888,13.458,4.164,10.251,4.8.647-1.6-5.13-2.56-3.845-1.6-7.053,2.888-.638,4.483,11.536,3.207,10.251v8.337l6.087,7.362,10.934,8.018,16.62,4.428,5.13,4.8,3.845,5.13,5.768,3.526,7.053,1.923L236.3,331s-.328,3.207-.328,4.8-4.483,7.053-4.483,7.053l-3.526,6.378,2.56,7.053,7.053,2.888,9.932,10.251L252,371.348v4.8l.556,2.241a134.473,134.473,0,0,0,67.209-31.636l.164-2.323,8.656-15.7-4.164-2.888Zm33.331-126.581-3.526-6.087-4.483-7.043-1.285-9.613,5.768.957.319-3.207-4.164-.319,3.526-1.6,3.845-2.242v-3.2l-3.845-5.13-.82-6.9a135.083,135.083,0,0,0-158.464-38.388l7.39,5.23-4.483,5.768-6.087,1.285-.647,8.647-2.56.966-3.207,3.526.328,5.768,5.467.638-2.242,5.467h5.467l9.294-11.845.966-5.13,8.966-.647,2.242-3.845,9.294-.957.966-5.467,6.725-.319s4.811-2.56,5.768-2.56a39.816,39.816,0,0,1,5.467,1.595l4.811,3.845h6.725l5.768-3.517,7.371.638a7.9,7.9,0,0,0,3.526,1.285c1.6,0,6.378-2.251,6.378-2.251l9.294,5.768,3.845,2.888v4.8l4.811.647,1.595-2.888L284.4,142.6l-.328,2.57-9.613,2.56,5.467,7.053,11.536,6.378,4.811,6.378,7.052.647,1.595-3.207,2.57-.638-8.337-6.378-5.121-.638,4.164-1.285-3.845-5.467,5.467-.328,7.043,3.845,1.6,7.69,3.526,4.173,2.888,9.285,7.043,5.13v10.579l7.371,4.8-.319,3.526-.966,4.164,1.923,5.768.647,2.888,5.467.911,2.56-5.467Zm4.173-32.274v1.822l-1.6,5.121.966,4.492,3.517,1.276v6.087l-3.845-1.595-.957,17.312-3.845,7.043,2.56,8.975,4.164,3.845v17.312l4.173,13.458,4.483,10.26,7.371,1.913,2.56-6.378,1.048-.82a135.949,135.949,0,0,0,1.039-16.784,134.381,134.381,0,0,0-21.631-73.341Zm-74.024-2-21.149-9.294-9.294.319-2.242,6.087-3.845-4.164-7.053,1.6-.638,10.57,5.768,4.164,4.164-6.087,4.811,4.811,9.932,8.647,1.923,9.294,8.328,10.579,13.458-2.251-.3-4.811-2.879-5.467-.674-12.757,3.207-5.467Zm17.312,7.043-4.8-1.276-4.164,3.517,2.241,9.294h4.164Zm29.8,6.087L306.449,177.2l-2.251-3.845-2.56.966,2.242,6.378,1.923,8.337,4.8,1.923.966-1.285-2.816-4.784,8.337,3.207ZM223.8,298.626l-1.285,1.285,9.613,2.879,3.845,4.483,6.1.647,2.242-3.526-7.371-1.212Zm28.52,6.087-6.734,1.923.966,2.56h8.328l1.6-2.56-2.879.319Z" transform="translate(-39.949 -54.211)"/>
    <path id="Path_774" data-name="Path 774" class="cls-5" d="M258.02,306.267a135.6,135.6,0,0,1-135.6-135.593c0-3.472.137-6.916.392-10.324a135.593,135.593,0,1,0,237.345,99.5A135.256,135.256,0,0,1,258.02,306.267Z" transform="translate(-34.354 -58.672)"/>
  </g>
  <circle id="Ellipse_22" data-name="Ellipse 22" class="cls-6" cx="135.019" cy="135.019" r="135.019" transform="translate(0 190.946) rotate(-45)"/>
</svg>
