<svg id="Group_49" data-name="Group 49" xmlns="http://www.w3.org/2000/svg" width="275.687" height="208.054" viewBox="0 0 275.687 208.054">
  <defs>
    <style>
      .cls-1 {
        fill: #ffc67d;
      }

      .cls-2 {
        fill: #ffdfe5;
      }

      .cls-3 {
        fill: #ffccd5;
      }

      .cls-4 {
        fill: #f6acb9;
      }

      .cls-5 {
        fill: #fafafa;
      }

      .cls-6 {
        fill: #e0e0e0;
      }

      .cls-7 {
        fill: #f5f5f5;
      }

      .cls-8 {
        fill: #ebebeb;
      }

      .cls-22, .cls-9 {
        fill: #fff;
      }

      .cls-10 {
        fill: #263238;
      }

      .cls-11 {
        fill: #ee3359;
      }

      .cls-12 {
        fill: #ff725e;
      }

      .cls-13 {
        fill: #ab223e;
      }

      .cls-14 {
        opacity: 0.4;
      }

      .cls-15 {
        fill: #455a64;
      }

      .cls-16 {
        fill: #3a4aa1;
      }

      .cls-17 {
        fill: #ffbd69;
      }

      .cls-18 {
        fill: #f97f34;
      }

      .cls-19 {
        fill: #6375d6;
      }

      .cls-20 {
        opacity: 0.5;
      }

      .cls-21 {
        fill: #1c2761;
      }

      .cls-22 {
        font-size: 23px;
        font-family: OpenSans-BoldItalic, Open Sans;
        font-weight: 700;
        font-style: italic;
      }

      .cls-23 {
        opacity: 0.3;
      }

      .cls-24 {
        opacity: 0.6;
      }

      .cls-25 {
        fill: #ffbe9d;
      }

      .cls-26 {
        fill: #eb996e;
      }
    </style>
  </defs>
  <circle id="Ellipse_14" data-name="Ellipse 14" class="cls-1" cx="100.628" cy="100.628" r="100.628" transform="translate(32.641 6.797)"/>
  <g id="Free_shipping-pana" data-name="Free shipping-pana">
    <g id="freepik--background-complete--inject-52" transform="translate(0 0)">
      <path id="Path_350" data-name="Path 350" class="cls-2" d="M623.12,50.963c.233-1.674-2.132-3.052-3.905-3.195a10.161,10.161,0,0,1-2.531-.221c-1.737-.6-2.432-2.851-4.126-3.554a4.816,4.816,0,0,0-3.949.561,10.227,10.227,0,0,1-3.818,1.485c-1.185.075-2.492-.367-3.554.217-.79.434-1.185,1.331-1.9,1.86a4.491,4.491,0,0,1-2.492.675,7.008,7.008,0,0,0-2.567.419,2.013,2.013,0,0,0-1.283,2.061Z" transform="translate(-372.228 -41.691)"/>
      <rect id="Rectangle_48" data-name="Rectangle 48" class="cls-2" width="33.375" height="105.773" transform="translate(27.306 39.089)"/>
      <rect id="Rectangle_49" data-name="Rectangle 49" class="cls-3" width="16.688" height="105.481" transform="translate(43.994 39.089)"/>
      <rect id="Rectangle_50" data-name="Rectangle 50" class="cls-3" width="11.787" height="10.385" transform="translate(31.117 28.708)"/>
      <rect id="Rectangle_51" data-name="Rectangle 51" class="cls-4" width="2.808" height="10.385" transform="translate(40.092 28.708)"/>
      <path id="Path_351" data-name="Path 351" class="cls-4" d="M96.08,136.584v-.6h37.131v.6" transform="translate(-71.554 -97.495)"/>
      <rect id="Rectangle_52" data-name="Rectangle 52" class="cls-5" width="2.823" height="5.955" transform="translate(33.893 43.619)"/>
      <path id="Path_352" data-name="Path 352" class="cls-6" d="M119.808,169.825c0,.059-3.736.111-8.344.111s-8.344-.051-8.344-.111,3.736-.115,8.344-.115S119.808,169.757,119.808,169.825Z" transform="translate(-75.814 -117.905)"/>
      <rect id="Rectangle_53" data-name="Rectangle 53" class="cls-4" width="2.823" height="5.955" transform="translate(50.727 43.619)"/>
      <path id="Path_353" data-name="Path 353" class="cls-6" d="M162.428,169.825c0,.059-3.736.111-8.344.111s-8.344-.051-8.344-.111,3.736-.115,8.344-.115S162.428,169.757,162.428,169.825Z" transform="translate(-101.604 -117.905)"/>
      <rect id="Rectangle_54" data-name="Rectangle 54" class="cls-4" width="2.823" height="5.959" transform="translate(50.727 55.445)"/>
      <path id="Path_354" data-name="Path 354" class="cls-6" d="M162.428,199.765c0,.059-3.736.111-8.344.111s-8.344-.051-8.344-.111,3.736-.115,8.344-.115S162.428,199.7,162.428,199.765Z" transform="translate(-101.604 -136.023)"/>
      <rect id="Rectangle_55" data-name="Rectangle 55" class="cls-6" width="2.823" height="5.955" transform="translate(50.727 67.627)"/>
      <path id="Path_355" data-name="Path 355" class="cls-6" d="M162.428,230.615c0,.063-3.736.115-8.344.115s-8.344-.051-8.344-.115,3.736-.115,8.344-.115S162.428,230.551,162.428,230.615Z" transform="translate(-101.604 -154.691)"/>
      <rect id="Rectangle_56" data-name="Rectangle 56" class="cls-6" width="2.823" height="5.955" transform="translate(50.727 79.813)"/>
      <path id="Path_356" data-name="Path 356" class="cls-6" d="M162.428,261.465c0,.063-3.736.114-8.344.114s-8.344-.051-8.344-.114,3.736-.115,8.344-.115S162.428,261.4,162.428,261.465Z" transform="translate(-101.604 -173.359)"/>
      <rect id="Rectangle_57" data-name="Rectangle 57" class="cls-6" width="2.823" height="5.955" transform="translate(50.727 91.648)"/>
      <path id="Path_357" data-name="Path 357" class="cls-6" d="M162.428,291.435c0,.063-3.736.115-8.344.115s-8.344-.051-8.344-.115,3.736-.115,8.344-.115S162.428,291.371,162.428,291.435Z" transform="translate(-101.604 -191.494)"/>
      <rect id="Rectangle_58" data-name="Rectangle 58" class="cls-6" width="2.823" height="5.955" transform="translate(50.727 103.53)"/>
      <rect id="Rectangle_59" data-name="Rectangle 59" class="cls-6" width="2.823" height="5.955" transform="translate(50.727 115.566)"/>
      <path id="Path_358" data-name="Path 358" class="cls-6" d="M162.428,321.531c0,.063-3.736.115-8.344.115s-8.344-.051-8.344-.115,3.736-.111,8.344-.111S162.428,321.471,162.428,321.531Z" transform="translate(-101.604 -209.708)"/>
      <rect id="Rectangle_60" data-name="Rectangle 60" class="cls-5" width="2.823" height="5.955" transform="translate(33.893 55.627)"/>
      <path id="Path_359" data-name="Path 359" class="cls-6" d="M119.808,200.215c0,.063-3.736.115-8.344.115s-8.344-.051-8.344-.115,3.736-.115,8.344-.115S119.808,200.151,119.808,200.215Z" transform="translate(-75.814 -136.295)"/>
      <rect id="Rectangle_61" data-name="Rectangle 61" class="cls-5" width="2.823" height="5.955" transform="translate(33.893 67.631)"/>
      <path id="Path_360" data-name="Path 360" class="cls-6" d="M119.808,230.625c0,.063-3.736.115-8.344.115s-8.344-.051-8.344-.115,3.736-.115,8.344-.115S119.808,230.561,119.808,230.625Z" transform="translate(-75.814 -154.697)"/>
      <rect id="Rectangle_62" data-name="Rectangle 62" class="cls-5" width="2.823" height="5.955" transform="translate(33.893 79.64)"/>
      <path id="Path_361" data-name="Path 361" class="cls-6" d="M119.808,261.035c0,.059-3.736.111-8.344.111s-8.344-.051-8.344-.111,3.736-.115,8.344-.115S119.808,260.971,119.808,261.035Z" transform="translate(-75.814 -173.098)"/>
      <rect id="Rectangle_63" data-name="Rectangle 63" class="cls-5" width="2.823" height="5.955" transform="translate(33.893 91.648)"/>
      <path id="Path_362" data-name="Path 362" class="cls-6" d="M119.808,291.435c0,.063-3.736.115-8.344.115s-8.344-.051-8.344-.115,3.736-.115,8.344-.115S119.808,291.371,119.808,291.435Z" transform="translate(-75.814 -191.494)"/>
      <rect id="Rectangle_64" data-name="Rectangle 64" class="cls-5" width="2.823" height="5.955" transform="translate(33.893 103.653)"/>
      <path id="Path_363" data-name="Path 363" class="cls-6" d="M119.808,321.825c0,.063-3.736.115-8.344.115s-8.344-.051-8.344-.115,3.736-.115,8.344-.115S119.808,321.769,119.808,321.825Z" transform="translate(-75.814 -209.883)"/>
      <rect id="Rectangle_65" data-name="Rectangle 65" class="cls-5" width="2.823" height="5.955" transform="translate(33.893 115.661)"/>
      <rect id="Rectangle_66" data-name="Rectangle 66" class="cls-2" width="48.108" height="152.464" transform="translate(144.266 14.966)"/>
      <rect id="Rectangle_67" data-name="Rectangle 67" class="cls-3" width="24.052" height="152.045" transform="translate(168.318 14.966)"/>
      <path id="Path_768" data-name="Path 768" class="cls-3" d="M0,0H16.988V14.97H0Z" transform="translate(149.759)"/>
      <rect id="Rectangle_69" data-name="Rectangle 69" class="cls-4" width="4.048" height="14.97" transform="translate(162.699)"/>
      <path id="Path_364" data-name="Path 364" class="cls-4" d="M389.16,75.083V74.21h53.522v.873" transform="translate(-248.902 -60.117)"/>
      <rect id="Rectangle_70" data-name="Rectangle 70" class="cls-5" width="4.071" height="8.585" transform="translate(153.763 21.497)"/>
      <path id="Path_365" data-name="Path 365" class="cls-6" d="M423.362,122.982c0,.091-5.382.166-12.024.166s-12.028-.075-12.028-.166,5.382-.162,12.028-.162S423.362,122.891,423.362,122.982Z" transform="translate(-255.044 -89.531)"/>
      <rect id="Rectangle_71" data-name="Rectangle 71" class="cls-4" width="4.071" height="8.585" transform="translate(178.025 21.497)"/>
      <path id="Path_366" data-name="Path 366" class="cls-6" d="M484.806,122.982c0,.091-5.386.166-12.028.166s-12.028-.075-12.028-.166,5.386-.162,12.028-.162S484.806,122.891,484.806,122.982Z" transform="translate(-292.222 -89.531)"/>
      <rect id="Rectangle_72" data-name="Rectangle 72" class="cls-6" width="4.071" height="8.585" transform="translate(178.025 38.544)"/>
      <path id="Path_367" data-name="Path 367" class="cls-6" d="M484.806,166.156c0,.091-5.386.162-12.028.162s-12.028-.071-12.028-.162,5.386-.166,12.028-.166S484.806,166.065,484.806,166.156Z" transform="translate(-292.222 -115.654)"/>
      <rect id="Rectangle_73" data-name="Rectangle 73" class="cls-6" width="4.071" height="8.585" transform="translate(178.025 56.105)"/>
      <path id="Path_368" data-name="Path 368" class="cls-6" d="M484.806,210.626c0,.091-5.386.166-12.028.166s-12.028-.075-12.028-.166,5.386-.166,12.028-.166S484.806,210.535,484.806,210.626Z" transform="translate(-292.222 -142.564)"/>
      <rect id="Rectangle_74" data-name="Rectangle 74" class="cls-6" width="4.071" height="8.585" transform="translate(178.025 73.669)"/>
      <path id="Path_369" data-name="Path 369" class="cls-6" d="M484.806,255.1c0,.091-5.386.166-12.028.166s-12.028-.075-12.028-.166,5.386-.162,12.028-.162S484.806,255.011,484.806,255.1Z" transform="translate(-292.222 -169.48)"/>
      <rect id="Rectangle_75" data-name="Rectangle 75" class="cls-6" width="4.071" height="8.585" transform="translate(178.025 90.728)"/>
      <path id="Path_370" data-name="Path 370" class="cls-6" d="M484.806,298.306c0,.087-5.386.162-12.028.162s-12.028-.075-12.028-.162,5.386-.166,12.028-.166S484.806,298.215,484.806,298.306Z" transform="translate(-292.222 -195.621)"/>
      <rect id="Rectangle_76" data-name="Rectangle 76" class="cls-6" width="4.071" height="8.585" transform="translate(178.025 107.854)"/>
      <rect id="Rectangle_77" data-name="Rectangle 77" class="cls-6" width="4.071" height="8.585" transform="translate(178.025 125.209)"/>
      <path id="Path_371" data-name="Path 371" class="cls-6" d="M484.806,341.682c0,.091-5.386.166-12.028.166s-12.028-.075-12.028-.166,5.386-.162,12.028-.162S484.806,341.591,484.806,341.682Z" transform="translate(-292.222 -221.871)"/>
      <rect id="Rectangle_78" data-name="Rectangle 78" class="cls-5" width="4.071" height="8.585" transform="translate(153.763 38.805)"/>
      <path id="Path_372" data-name="Path 372" class="cls-6" d="M423.362,166.816c0,.087-5.382.162-12.024.162s-12.028-.075-12.028-.162,5.382-.166,12.028-.166S423.362,166.725,423.362,166.816Z" transform="translate(-255.044 -116.054)"/>
      <rect id="Rectangle_79" data-name="Rectangle 79" class="cls-5" width="4.071" height="8.585" transform="translate(153.763 56.113)"/>
      <path id="Path_373" data-name="Path 373" class="cls-6" d="M423.362,210.646c0,.087-5.382.162-12.024.162s-12.028-.075-12.028-.162,5.382-.166,12.028-.166S423.362,210.555,423.362,210.646Z" transform="translate(-255.044 -142.576)"/>
      <rect id="Rectangle_80" data-name="Rectangle 80" class="cls-5" width="4.071" height="8.585" transform="translate(153.763 73.42)"/>
      <path id="Path_374" data-name="Path 374" class="cls-6" d="M423.362,254.476c0,.087-5.382.162-12.024.162s-12.028-.075-12.028-.162,5.382-.166,12.028-.166S423.362,254.385,423.362,254.476Z" transform="translate(-255.044 -169.098)"/>
      <rect id="Rectangle_81" data-name="Rectangle 81" class="cls-5" width="4.071" height="8.585" transform="translate(153.763 90.728)"/>
      <path id="Path_375" data-name="Path 375" class="cls-6" d="M423.362,298.306c0,.087-5.382.162-12.024.162s-12.028-.075-12.028-.162,5.382-.166,12.028-.166S423.362,298.215,423.362,298.306Z" transform="translate(-255.044 -195.621)"/>
      <rect id="Rectangle_82" data-name="Rectangle 82" class="cls-5" width="4.071" height="8.585" transform="translate(153.763 108.036)"/>
      <path id="Path_376" data-name="Path 376" class="cls-6" d="M423.362,342.136c0,.091-5.382.162-12.024.162s-12.028-.071-12.028-.162,5.382-.166,12.028-.166S423.362,342.045,423.362,342.136Z" transform="translate(-255.044 -222.143)"/>
      <rect id="Rectangle_83" data-name="Rectangle 83" class="cls-5" width="4.071" height="8.585" transform="translate(153.763 125.343)"/>
      <path id="Path_767" data-name="Path 767" class="cls-3" d="M0,0H26.283V83.3H0Z" transform="translate(183.067 84.13)"/>
      <rect id="Rectangle_85" data-name="Rectangle 85" class="cls-3" width="13.142" height="83.067" transform="translate(196.209 84.13)"/>
      <rect id="Rectangle_86" data-name="Rectangle 86" class="cls-7" width="9.28" height="8.178" transform="translate(186.068 75.952)"/>
      <rect id="Rectangle_87" data-name="Rectangle 87" class="cls-8" width="2.211" height="8.178" transform="translate(193.137 75.952)"/>
      <path id="Path_377" data-name="Path 377" class="cls-6" d="M492.02,250.838v-.478h29.245v.478" transform="translate(-311.144 -166.708)"/>
      <rect id="Rectangle_88" data-name="Rectangle 88" class="cls-5" width="2.223" height="4.691" transform="translate(188.256 87.695)"/>
      <path id="Path_378" data-name="Path 378" class="cls-6" d="M510.712,277.011c0,.047-2.942.087-6.571.087s-6.571-.04-6.571-.087,2.942-.091,6.571-.091S510.712,276.952,510.712,277.011Z" transform="translate(-314.503 -182.78)"/>
      <rect id="Rectangle_89" data-name="Rectangle 89" class="cls-6" width="2.223" height="4.691" transform="translate(201.512 87.695)"/>
      <path id="Path_379" data-name="Path 379" class="cls-6" d="M544.282,277.011c0,.047-2.942.087-6.571.087s-6.571-.04-6.571-.087,2.942-.091,6.571-.091S544.282,276.952,544.282,277.011Z" transform="translate(-334.817 -182.78)"/>
      <rect id="Rectangle_90" data-name="Rectangle 90" class="cls-6" width="2.223" height="4.691" transform="translate(201.512 97.011)"/>
      <path id="Path_380" data-name="Path 380" class="cls-6" d="M544.282,300.591c0,.051-2.942.091-6.571.091s-6.571-.039-6.571-.091,2.942-.091,6.571-.091S544.282,300.543,544.282,300.591Z" transform="translate(-334.817 -197.049)"/>
      <rect id="Rectangle_91" data-name="Rectangle 91" class="cls-6" width="2.223" height="4.691" transform="translate(201.512 106.606)"/>
      <path id="Path_381" data-name="Path 381" class="cls-6" d="M544.282,324.861c0,.047-2.942.091-6.571.091s-6.571-.043-6.571-.091,2.942-.091,6.571-.091S544.282,324.821,544.282,324.861Z" transform="translate(-334.817 -211.735)"/>
      <rect id="Rectangle_92" data-name="Rectangle 92" class="cls-6" width="2.223" height="4.691" transform="translate(201.512 116.198)"/>
      <path id="Path_382" data-name="Path 382" class="cls-6" d="M544.282,349.191c0,.047-2.942.087-6.571.087s-6.571-.039-6.571-.087,2.942-.091,6.571-.091S544.282,349.139,544.282,349.191Z" transform="translate(-334.817 -226.458)"/>
      <rect id="Rectangle_93" data-name="Rectangle 93" class="cls-6" width="2.223" height="4.691" transform="translate(201.512 125.521)"/>
      <path id="Path_383" data-name="Path 383" class="cls-6" d="M544.282,372.791c0,.051-2.942.091-6.571.091s-6.571-.04-6.571-.091,2.942-.091,6.571-.091S544.282,372.74,544.282,372.791Z" transform="translate(-334.817 -240.738)"/>
      <rect id="Rectangle_94" data-name="Rectangle 94" class="cls-6" width="2.223" height="4.691" transform="translate(201.512 134.88)"/>
      <rect id="Rectangle_95" data-name="Rectangle 95" class="cls-6" width="2.223" height="4.691" transform="translate(201.512 144.357)"/>
      <path id="Path_384" data-name="Path 384" class="cls-6" d="M544.282,396.491c0,.047-2.942.087-6.571.087s-6.571-.039-6.571-.087,2.942-.091,6.571-.091S544.282,396.44,544.282,396.491Z" transform="translate(-334.817 -255.08)"/>
      <rect id="Rectangle_96" data-name="Rectangle 96" class="cls-5" width="2.223" height="4.691" transform="translate(188.256 97.153)"/>
      <path id="Path_385" data-name="Path 385" class="cls-6" d="M510.712,300.951c0,.051-2.942.091-6.571.091s-6.571-.039-6.571-.091,2.942-.091,6.571-.091S510.712,300.915,510.712,300.951Z" transform="translate(-314.503 -197.267)"/>
      <rect id="Rectangle_97" data-name="Rectangle 97" class="cls-5" width="2.223" height="4.691" transform="translate(188.256 106.61)"/>
      <path id="Path_386" data-name="Path 386" class="cls-6" d="M510.712,324.861c0,.047-2.942.087-6.571.087s-6.571-.039-6.571-.087,2.942-.091,6.571-.091S510.712,324.825,510.712,324.861Z" transform="translate(-314.503 -211.735)"/>
      <rect id="Rectangle_98" data-name="Rectangle 98" class="cls-5" width="2.223" height="4.691" transform="translate(188.256 116.064)"/>
      <path id="Path_387" data-name="Path 387" class="cls-6" d="M510.712,348.867c0,.051-2.942.091-6.571.091s-6.571-.039-6.571-.091,2.942-.087,6.571-.087S510.712,348.812,510.712,348.867Z" transform="translate(-314.503 -226.264)"/>
      <rect id="Rectangle_99" data-name="Rectangle 99" class="cls-5" width="2.223" height="4.691" transform="translate(188.256 125.521)"/>
      <path id="Path_388" data-name="Path 388" class="cls-6" d="M510.712,372.791c0,.051-2.942.091-6.571.091s-6.571-.04-6.571-.091,2.942-.091,6.571-.091S510.712,372.74,510.712,372.791Z" transform="translate(-314.503 -240.738)"/>
      <rect id="Rectangle_100" data-name="Rectangle 100" class="cls-5" width="2.223" height="4.691" transform="translate(188.256 134.975)"/>
      <path id="Path_389" data-name="Path 389" class="cls-6" d="M510.712,396.741c0,.047-2.942.087-6.571.087s-6.571-.039-6.571-.087,2.942-.091,6.571-.091S510.712,396.689,510.712,396.741Z" transform="translate(-314.503 -255.231)"/>
      <rect id="Rectangle_101" data-name="Rectangle 101" class="cls-5" width="2.223" height="4.691" transform="translate(188.256 144.432)"/>
      <rect id="Rectangle_102" data-name="Rectangle 102" class="cls-3" width="28.297" height="53.704" transform="translate(49.242 113.726)"/>
      <rect id="Rectangle_103" data-name="Rectangle 103" class="cls-3" width="13.268" height="53.704" transform="translate(64.271 113.726)"/>
      <rect id="Rectangle_104" data-name="Rectangle 104" class="cls-7" width="2.543" height="6.18" transform="translate(55.177 118.776)"/>
      <rect id="Rectangle_105" data-name="Rectangle 105" class="cls-7" width="2.543" height="6.18" transform="translate(55.177 142.971)"/>
      <path id="Path_390" data-name="Path 390" class="cls-7" d="M173.736,360.965c0,.055-3.364.095-7.5.095s-7.5-.039-7.5-.095,3.364-.095,7.5-.095S173.736,360.921,173.736,360.965Z" transform="translate(-109.465 -233.58)"/>
      <rect id="Rectangle_106" data-name="Rectangle 106" class="cls-7" width="2.543" height="6.18" transform="translate(55.177 130.966)"/>
      <path id="Path_391" data-name="Path 391" class="cls-7" d="M173.736,391.849c0,.051-3.364.095-7.5.095s-7.5-.043-7.5-.095,3.364-.1,7.5-.1S173.736,391.786,173.736,391.849Z" transform="translate(-109.465 -252.266)"/>
      <rect id="Rectangle_107" data-name="Rectangle 107" class="cls-6" width="2.543" height="6.18" transform="translate(67.09 118.776)"/>
      <rect id="Rectangle_108" data-name="Rectangle 108" class="cls-6" width="2.543" height="6.18" transform="translate(72.611 118.776)"/>
      <rect id="Rectangle_109" data-name="Rectangle 109" class="cls-6" width="2.543" height="6.18" transform="translate(67.09 130.508)"/>
      <rect id="Rectangle_110" data-name="Rectangle 110" class="cls-6" width="2.543" height="6.18" transform="translate(72.611 130.508)"/>
      <rect id="Rectangle_111" data-name="Rectangle 111" class="cls-6" width="2.543" height="6.18" transform="translate(67.09 142.236)"/>
      <rect id="Rectangle_112" data-name="Rectangle 112" class="cls-6" width="2.543" height="6.18" transform="translate(72.611 142.236)"/>
      <rect id="Rectangle_113" data-name="Rectangle 113" class="cls-6" width="32.55" height="1.347" transform="translate(47.117 112.427)"/>
      <path id="Path_392" data-name="Path 392" class="cls-8" d="M187.54,326.849c0,.051-6.318.095-14.125.095s-14.125-.043-14.125-.095,6.318-.1,14.125-.1S187.54,326.778,187.54,326.849Z" transform="translate(-109.803 -212.933)"/>
      <path id="Path_393" data-name="Path 393" class="cls-2" d="M89.351,352.052H43.781l-.2-72.022H89.153Z" transform="translate(-39.785 -184.662)"/>
      <rect id="Rectangle_114" data-name="Rectangle 114" class="cls-3" width="22.785" height="72.022" transform="translate(26.583 95.368)"/>
      <rect id="Rectangle_115" data-name="Rectangle 115" class="cls-3" width="16.091" height="14.18" transform="translate(8.999 81.188)"/>
      <rect id="Rectangle_116" data-name="Rectangle 116" class="cls-6" width="3.834" height="14.18" transform="translate(21.256 81.188)"/>
      <rect id="Rectangle_117" data-name="Rectangle 117" class="cls-4" width="50.703" height="0.825" transform="translate(0 94.539)"/>
      <rect id="Rectangle_118" data-name="Rectangle 118" class="cls-9" width="3.858" height="8.135" transform="translate(12.79 101.552)"/>
      <path id="Path_394" data-name="Path 394" class="cls-6" d="M66.369,324.146c0,.087-5.1.154-11.392.154s-11.4-.067-11.4-.154,5.1-.146,11.4-.146S66.369,324.059,66.369,324.146Z" transform="translate(-39.785 -211.269)"/>
      <rect id="Rectangle_119" data-name="Rectangle 119" class="cls-7" width="3.858" height="8.135" transform="translate(35.776 101.552)"/>
      <path id="Path_395" data-name="Path 395" class="cls-8" d="M124.575,324.134c0,.087-5.1.154-11.392.154s-11.392-.067-11.392-.154,5.1-.154,11.392-.154S124.575,324.047,124.575,324.134Z" transform="translate(-75.009 -211.257)"/>
      <rect id="Rectangle_120" data-name="Rectangle 120" class="cls-7" width="3.858" height="8.135" transform="translate(35.776 117.698)"/>
      <path id="Path_396" data-name="Path 396" class="cls-8" d="M124.575,365.028c0,.083-5.1.154-11.392.154s-11.392-.071-11.392-.154,5.1-.158,11.392-.158S124.575,364.941,124.575,365.028Z" transform="translate(-75.009 -236)"/>
      <rect id="Rectangle_121" data-name="Rectangle 121" class="cls-7" width="3.858" height="8.135" transform="translate(35.776 134.335)"/>
      <path id="Path_397" data-name="Path 397" class="cls-8" d="M124.575,407.158c0,.083-5.1.154-11.392.154s-11.392-.071-11.392-.154,5.1-.158,11.392-.158S124.575,407.071,124.575,407.158Z" transform="translate(-75.009 -261.494)"/>
      <rect id="Rectangle_122" data-name="Rectangle 122" class="cls-7" width="3.858" height="8.135" transform="translate(35.776 150.971)"/>
      <path id="Path_398" data-name="Path 398" class="cls-4" d="M124.575,449.284c0,.087-5.1.158-11.392.158s-11.392-.071-11.392-.158,5.1-.154,11.392-.154S124.575,449.2,124.575,449.284Z" transform="translate(-75.009 -286.988)"/>
      <rect id="Rectangle_123" data-name="Rectangle 123" class="cls-9" width="3.858" height="8.135" transform="translate(12.79 117.947)"/>
      <path id="Path_399" data-name="Path 399" class="cls-6" d="M66.369,365.654c0,.087-5.1.154-11.392.154s-11.4-.067-11.4-.154,5.1-.154,11.4-.154S66.369,365.567,66.369,365.654Z" transform="translate(-39.785 -236.382)"/>
      <rect id="Rectangle_124" data-name="Rectangle 124" class="cls-9" width="3.858" height="8.135" transform="translate(12.79 134.343)"/>
      <path id="Path_400" data-name="Path 400" class="cls-6" d="M66.369,407.162c0,.087-5.1.154-11.392.154s-11.4-.067-11.4-.154,5.1-.162,11.4-.162S66.369,407.075,66.369,407.162Z" transform="translate(-39.785 -261.494)"/>
      <rect id="Rectangle_125" data-name="Rectangle 125" class="cls-9" width="3.858" height="8.135" transform="translate(12.79 150.738)"/>
      <path id="Path_401" data-name="Path 401" class="cls-4" d="M66.369,448.694c0,.087-5.1.154-11.392.154s-11.4-.067-11.4-.154,5.1-.154,11.4-.154S66.369,448.607,66.369,448.694Z" transform="translate(-39.785 -286.631)"/>
      <path id="Path_402" data-name="Path 402" class="cls-2" d="M640.523,164.206c.328-2.393-3.048-4.344-5.588-4.565a14.459,14.459,0,0,1-3.613-.312c-2.484-.865-3.475-4.075-5.9-5.1-1.812-.766-3.9-.083-5.655.79s-3.495,1.994-5.457,2.12c-1.706.111-3.554-.525-5.055.312-1.114.62-1.7,1.9-2.725,2.661a6.38,6.38,0,0,1-3.554.964,9.97,9.97,0,0,0-3.668.6,2.9,2.9,0,0,0-1.836,2.942Z" transform="translate(-374.934 -108.338)"/>
      <rect id="Rectangle_126" data-name="Rectangle 126" class="cls-2" width="36.661" height="26.354" transform="translate(239.026 141.071)"/>
      <rect id="Rectangle_127" data-name="Rectangle 127" class="cls-3" width="18.33" height="26.354" transform="translate(275.687 167.426) rotate(180)"/>
      <rect id="Rectangle_128" data-name="Rectangle 128" class="cls-9" width="4.908" height="3.471" transform="translate(240.143 162.269)"/>
      <rect id="Rectangle_129" data-name="Rectangle 129" class="cls-9" width="2.452" height="3.471" transform="translate(245.96 162.269)"/>
      <rect id="Rectangle_130" data-name="Rectangle 130" class="cls-8" width="23.871" height="17.162" transform="translate(248.333 123.91)"/>
      <path id="Path_404" data-name="Path 404" class="cls-7" d="M676.359,352.31c.032,0,0,3.625,0,3.625H674.59V352.31Z" transform="translate(-421.621 -228.4)"/>
      <rect id="Rectangle_131" data-name="Rectangle 131" class="cls-3" width="11.933" height="17.162" transform="translate(272.204 141.071) rotate(180)"/>
      <rect id="Rectangle_132" data-name="Rectangle 132" class="cls-9" width="3.195" height="2.263" transform="translate(249.064 137.711)"/>
      <rect id="Rectangle_133" data-name="Rectangle 133" class="cls-9" width="1.599" height="2.263" transform="translate(252.847 137.711)"/>
      <path id="Path_405" data-name="Path 405" class="cls-3" d="M68.009,54.552c.186-1.354-1.726-2.472-3.159-2.586a8.222,8.222,0,0,1-2.049-.178c-1.406-.49-1.974-2.306-3.341-2.887a3.918,3.918,0,0,0-3.2.454,8.028,8.028,0,0,1-3.088,1.185c-.967.063-2.018-.3-2.863.178-.632.351-.964,1.078-1.544,1.5a3.688,3.688,0,0,1-2.018.553,5.56,5.56,0,0,0-2.077.34,1.628,1.628,0,0,0-1.042,1.666Z" transform="translate(-39.799 -44.688)"/>
      <path id="Path_406" data-name="Path 406" class="cls-3" d="M686.927,124.445c.182-1.323-1.682-2.409-3.084-2.523a8.012,8.012,0,0,1-2-.17c-1.37-.482-1.919-2.255-3.258-2.819a3.856,3.856,0,0,0-3.123.442,8.416,8.416,0,0,1-3.013,1.185c-.944.063-1.974-.288-2.792.174-.616.344-.936,1.05-1.5,1.469a3.626,3.626,0,0,1-1.974.533,5.474,5.474,0,0,0-2.026.332,1.6,1.6,0,0,0-1.015,1.623Z" transform="translate(-414.679 -87.07)"/>
      <path id="Path_407" data-name="Path 407" class="cls-2" d="M143.418,68.389c.34-2.476-3.159-4.513-5.777-4.739a14.876,14.876,0,0,1-3.74-.32c-2.571-.9-3.6-4.217-6.1-5.276-1.876-.79-4.032-.087-5.848.829s-3.613,2.065-5.643,2.2c-1.769.115-3.684-.541-5.232.32-1.149.644-1.753,1.974-2.816,2.764a6.574,6.574,0,0,1-3.68,1,10.379,10.379,0,0,0-3.795.62,3,3,0,0,0-1.9,3.045Z" transform="translate(-73.228 -50.134)"/>
    </g>
    <g id="freepik--Floor--inject-52" transform="translate(6.243 167.323)">
      <path id="Path_408" data-name="Path 408" class="cls-10" d="M319.089,462.353c0,.059-60.3.1-134.655.1s-134.655-.043-134.655-.1,60.287-.1,134.674-.1S319.089,462.3,319.089,462.353Z" transform="translate(-49.78 -462.25)"/>
    </g>
    <g id="freepik--Plants--inject-52" transform="translate(109.697 140.005)">
      <path id="Path_409" data-name="Path 409" class="cls-11" d="M320.543,420.64a3.2,3.2,0,0,1,2.022,1.481,5.616,5.616,0,0,1,.762,2.436,10.044,10.044,0,0,1-1.09,4.991c-1.619-.888-2.369-2.887-2.713-3.925-.513-1.643-.446-4.924,1.019-4.983" transform="translate(-316.285 -409.753)"/>
      <path id="Path_410" data-name="Path 410" class="cls-11" d="M331.966,442.7a2.74,2.74,0,0,1,.3-2.729,3.633,3.633,0,0,1,2.436-1.39,1.517,1.517,0,0,1,1.26.265,1.185,1.185,0,0,1,.272,1.153,2.4,2.4,0,0,1-.671,1.031,4.706,4.706,0,0,1-3.6,1.67" transform="translate(-323.85 -420.583)"/>
      <path id="Path_411" data-name="Path 411" class="cls-10" d="M330.548,450.8a1.655,1.655,0,0,1-.028-.34c0-.245-.02-.557-.032-.932a9.61,9.61,0,0,1,.3-3.068,5.825,5.825,0,0,1,1.58-2.634,3.972,3.972,0,0,1,.754-.553,1.734,1.734,0,0,1,.229-.115c.051-.024.079-.036.083-.032a6.322,6.322,0,0,0-1.011.762A6.066,6.066,0,0,0,330.9,446.5a10.18,10.18,0,0,0-.324,3.033v.932a1.759,1.759,0,0,1-.032.34Z" transform="translate(-323.084 -423.361)"/>
      <path id="Path_412" data-name="Path 412" class="cls-10" d="M323,427a.643.643,0,0,1,.047.138c.032.107.067.245.115.395.1.359.237.877.395,1.52.328,1.283.754,3.06,1.185,5.039s.77,3.771,1,5.078c.115.652.205,1.185.261,1.544.028.174.047.316.063.423a1.08,1.08,0,0,1,0,.15.626.626,0,0,1-.04-.146c-.024-.107-.051-.245-.087-.419-.071-.375-.174-.9-.3-1.536-.253-1.3-.612-3.1-1.035-5.07s-.841-3.755-1.145-5.043c-.15-.636-.272-1.153-.359-1.528l-.095-.395A.675.675,0,0,1,323,427Z" transform="translate(-318.564 -413.602)"/>
      <path id="Path_413" data-name="Path 413" class="cls-11" d="M317.751,446.893a6.4,6.4,0,0,0-4.415-3.822,1.342,1.342,0,0,0-1.426.292,1.323,1.323,0,0,0,.205,1.437,5.461,5.461,0,0,0,5.631,2.235" transform="translate(-311.767 -423.283)"/>
      <path id="Path_414" data-name="Path 414" class="cls-10" d="M317.15,446.94a1.486,1.486,0,0,1,.316.059,3.579,3.579,0,0,1,.363.1,5.029,5.029,0,0,1,.474.17,5.467,5.467,0,0,1,.553.253,6.032,6.032,0,0,1,.6.348,7.019,7.019,0,0,1,1.232,1.023,6.912,6.912,0,0,1,.948,1.291,6.038,6.038,0,0,1,.3.628,5.772,5.772,0,0,1,.213.569,4.706,4.706,0,0,1,.126.486,2.4,2.4,0,0,1,.071.371,1.581,1.581,0,0,1,.036.32c-.028,0-.079-.454-.316-1.149a5.431,5.431,0,0,0-.221-.557,5.6,5.6,0,0,0-.312-.612,6.994,6.994,0,0,0-.936-1.264,7.27,7.27,0,0,0-1.185-1.011,6.517,6.517,0,0,0-.592-.355c-.186-.107-.371-.186-.537-.261C317.592,447.058,317.142,446.964,317.15,446.94Z" transform="translate(-315.024 -425.668)"/>
      <path id="Path_415" data-name="Path 415" class="cls-12" d="M631.72,434.167a1.757,1.757,0,0,0-.656-1.579,4.335,4.335,0,0,1-1.157-1.351c-.359-.9.122-2.065-.49-2.815-.359-.442-1-.592-1.323-1.062a2.411,2.411,0,0,1-.288-.845,8.564,8.564,0,0,0-2.132-3.984,7.472,7.472,0,0,0,.837,3.842,4.872,4.872,0,0,1,.628,1.477c.134.857-.344,1.737-.134,2.579.241.96,1.319,1.6,1.37,2.59.044.837-.687,1.579-.632,2.409a2.3,2.3,0,0,0,.371.991,3.325,3.325,0,0,0,3.037,1.789l1.765.063Z" transform="translate(-501.712 -410.897)"/>
      <g id="Group_23" data-name="Group 23" transform="translate(123.952 11.633)">
        <path id="Path_416" data-name="Path 416" class="cls-13" d="M631.72,434.167a1.757,1.757,0,0,0-.656-1.579,4.335,4.335,0,0,1-1.157-1.351c-.359-.9.122-2.065-.49-2.815-.359-.442-1-.592-1.323-1.062a2.411,2.411,0,0,1-.288-.845,8.564,8.564,0,0,0-2.132-3.984,7.472,7.472,0,0,0,.837,3.842,4.872,4.872,0,0,1,.628,1.477c.134.857-.344,1.737-.134,2.579.241.96,1.319,1.6,1.37,2.59.044.837-.687,1.579-.632,2.409a2.3,2.3,0,0,0,.371.991,3.325,3.325,0,0,0,3.037,1.789l1.765.063Z" transform="translate(-625.665 -422.53)"/>
      </g>
      <path id="Path_417" data-name="Path 417" class="cls-10" d="M643.6,429.039a1.385,1.385,0,0,0,.486,0,3,3,0,0,0,.573-.142,2.447,2.447,0,0,0,.707-.395.975.975,0,0,0,.292-.395,1.9,1.9,0,0,0,.083-.525,4.78,4.78,0,0,1,.043-.573,1.5,1.5,0,0,1,.213-.565,4.263,4.263,0,0,0,.663-1.208,3.95,3.95,0,0,0-.047-1.544,3.29,3.29,0,0,1,.043-1.658c.19-.549.573-1.05.766-1.67a8.54,8.54,0,0,0,.146-1.974,2.591,2.591,0,0,1,.229-.979c.142-.312.34-.6.494-.932a6.713,6.713,0,0,0,.454-2.156c.043-.371.087-.746.126-1.125a5.459,5.459,0,0,1,.2-1.129,8.994,8.994,0,0,1,.422-1.09,4.261,4.261,0,0,0,.205-.573c.032-.205.043-.395.055-.6a7,7,0,0,0-.047-1.22c-.047-.395-.122-.813-.166-1.22v-.15l-.071.036a2.714,2.714,0,0,0-.952.79,4.294,4.294,0,0,0-.58,1.074,12.9,12.9,0,0,0-.549,2.31,6.342,6.342,0,0,1-.727,2.132c-.193.312-.427.6-.632.9a2.5,2.5,0,0,0-.438,1.007c-.1.746.308,1.4.221,2.061a2.23,2.23,0,0,1-.32.916,8.854,8.854,0,0,1-.529.79,4.938,4.938,0,0,0-.47.813,2.508,2.508,0,0,0-.217.885c-.043.592.04,1.157,0,1.69a3.879,3.879,0,0,1-.434,1.449c-.213.434-.45.825-.648,1.185a6.031,6.031,0,0,0-.268.565,2.728,2.728,0,0,0-.154.557,3.466,3.466,0,0,0,0,1.007,2.566,2.566,0,0,0,.505,1.283,1.906,1.906,0,0,0,.142.154.792.792,0,0,0,.118.1l.1.071a2.362,2.362,0,0,1-.34-.34,2.527,2.527,0,0,1-.482-1.275,3.523,3.523,0,0,1,.024-.991,2.919,2.919,0,0,1,.158-.545,5.868,5.868,0,0,1,.269-.553c.2-.395.438-.766.655-1.2a3.949,3.949,0,0,0,.45-1.473c.047-.545-.036-1.114,0-1.694a2.443,2.443,0,0,1,.213-.853,4.824,4.824,0,0,1,.466-.79c.178-.261.367-.521.533-.809a2.325,2.325,0,0,0,.336-.952c.087-.707-.32-1.366-.217-2.057a2.42,2.42,0,0,1,.427-.964c.2-.3.434-.584.632-.908a6.317,6.317,0,0,0,.742-2.168,13.315,13.315,0,0,1,.545-2.29,4.267,4.267,0,0,1,.569-1.046,2.579,2.579,0,0,1,.908-.766l-.079-.047v.071c.043.415.118.817.166,1.22a7.214,7.214,0,0,1,.043,1.185,4.713,4.713,0,0,1-.051.588,3.719,3.719,0,0,1-.2.553,9.057,9.057,0,0,0-.427,1.1,5.529,5.529,0,0,0-.2,1.145c-.043.395-.087.758-.126,1.129a6.656,6.656,0,0,1-.442,2.121c-.146.32-.344.616-.494.94a2.7,2.7,0,0,0-.233,1.015,8.638,8.638,0,0,1-.134,1.947c-.182.6-.569,1.1-.762,1.67a3.358,3.358,0,0,0-.039,1.7,3.968,3.968,0,0,1,.059,1.516,4.287,4.287,0,0,1-.652,1.185,1.579,1.579,0,0,0-.217.588,4.989,4.989,0,0,0-.039.577,1.768,1.768,0,0,1-.075.513.955.955,0,0,1-.272.371,2.425,2.425,0,0,1-.691.395,2.961,2.961,0,0,1-.565.15,1.742,1.742,0,0,1-.359.036Z" transform="translate(-512.043 -401.626)"/>
      <path id="Path_418" data-name="Path 418" class="cls-10" d="M650.448,409.88a.38.38,0,0,0,0,.055l-.039.158c-.036.138-.075.348-.142.612s-.229.553-.367.92a12.415,12.415,0,0,0-.419,1.248c-.134.474-.253,1-.395,1.552a6.442,6.442,0,0,1-.565,1.726c-.142.284-.308.577-.434.892a4.132,4.132,0,0,0-.257,1.011,20.186,20.186,0,0,1-.395,2.132c-.351,1.445-.691,2.823-1,4.075s-.6,2.369-.837,3.325-.423,1.7-.553,2.243c-.063.257-.111.462-.146.608l-.036.162a.294.294,0,0,0,0,.055.132.132,0,0,1,.02-.055l.047-.154c.039-.15.095-.352.166-.608.138-.537.34-1.3.588-2.231s.533-2.073.857-3.317.652-2.63,1.007-4.075a20.755,20.755,0,0,0,.395-2.144,4.247,4.247,0,0,1,.245-.987c.126-.308.284-.6.43-.888a6.587,6.587,0,0,0,.561-1.745c.122-.561.237-1.082.363-1.552s.268-.888.395-1.252.284-.659.348-.932.095-.474.122-.616l.036-.17Z" transform="translate(-513.332 -403.242)"/>
      <path id="Path_419" data-name="Path 419" class="cls-11" d="M635.977,420.487c1.153-.683,1.481-2.764,1-4.012s-1.323-2.393-1.453-3.728a22.92,22.92,0,0,0,0-3.08c-.32-1.351-1.639-2.4-1.627-3.787,0-.79.454-1.516.419-2.294-.044-.956-.79-1.714-1.232-2.555a13.418,13.418,0,0,1-.979-4.257,4.979,4.979,0,0,0-2.069-3.7,13.6,13.6,0,0,0-.395,3.728,24.651,24.651,0,0,1,.825,3.049c.055.79.095,1.579.142,2.346a7.591,7.591,0,0,0,.371,2.251c.209.545.545,1.043.7,1.6.292,1.062-.091,2.211.146,3.285.2.908.829,1.69.956,2.614.182,1.3-.656,2.642-.229,3.878a17.83,17.83,0,0,1,.861,1.741c.114.494,0,1.011.091,1.5.162.79,1.682,1.414,2.492,1.366" transform="translate(-504.105 -393.07)"/>
      <path id="Path_420" data-name="Path 420" class="cls-10" d="M631.48,396.16v.067l.028.2c.024.178.055.438.115.79a9,9,0,0,0,.395,1.185,14.98,14.98,0,0,1,.422,1.579c.13.592.241,1.244.355,1.947a8.044,8.044,0,0,0,.592,2.2c.158.371.34.738.478,1.129a5.135,5.135,0,0,1,.241,1.248,25.275,25.275,0,0,0,.34,2.681c.351,1.816.687,3.554,1,5.133s.612,2.981.857,4.174.446,2.14.588,2.812c.067.324.122.58.162.762l.047.2.02.067a.425.425,0,0,0,0-.067l-.036-.2c-.036-.182-.083-.442-.142-.77-.134-.671-.324-1.631-.553-2.815s-.541-2.642-.853-4.221-.636-3.305-.987-5.133a26.057,26.057,0,0,1-.34-2.673,5.258,5.258,0,0,0-.249-1.272c-.142-.395-.324-.77-.486-1.133a8.216,8.216,0,0,1-.6-2.18c-.118-.7-.233-1.358-.371-1.951a16.275,16.275,0,0,0-.438-1.579c-.146-.458-.328-.837-.395-1.185s-.1-.6-.138-.77a.987.987,0,0,0-.036-.2A.265.265,0,0,0,631.48,396.16Z" transform="translate(-505.231 -394.94)"/>
    </g>
    <g id="freepik--Vehicle--inject-52" transform="translate(4.774 24.009)">
      <rect id="Rectangle_134" data-name="Rectangle 134" class="cls-12" width="175.355" height="17.525" transform="translate(27.812 91.301)"/>
      <g id="Group_24" data-name="Group 24" class="cls-14" transform="translate(27.812 91.301)">
        <rect id="Rectangle_135" data-name="Rectangle 135" width="175.355" height="17.525"/>
      </g>
      <rect id="Rectangle_136" data-name="Rectangle 136" class="cls-15" width="51.761" height="16.23" transform="translate(113.414 111.037)"/>
      <path id="Path_421" data-name="Path 421" class="cls-10" d="M241.67,361.92v21.454h17.675l7.084-10.267H395.48V361.92Z" transform="translate(-164.427 -258.224)"/>
      <path id="Path_422" data-name="Path 422" class="cls-16" d="M123.1,187.972a1.319,1.319,0,0,0-1.366-1.244c-6.985.288-40.148,1.809-46.967,5.086-5.22,2.511-10.938,11.886-14.97,18.2-2.891,4.525-9.276,14.571-10.567,19.709-1.094,4.344-1.753,13.379-1.678,17.861L49.375,271.3H79.43l3.009-7.834a13.229,13.229,0,0,1,12.348-8.478h29.865V215.63Z" transform="translate(-46.958 -152.212)"/>
      <path id="Path_423" data-name="Path 423" class="cls-15" d="M74.2,206.26c-4.138,3.949-8.293,10.662-11.408,15.574-2.677,4.19-8.348,13.11-10.2,18.488-.036.1-.063.193-.095.292.916-.253,2.326-.77,2.764-1.639.659-1.315,1.5-5.821,11.953-22.828C70.392,210.963,73.488,207.93,74.2,206.26Z" transform="translate(-49.957 -164.031)"/>
      <path id="Path_424" data-name="Path 424" class="cls-10" d="M123.12,201.8c-7.684.438-24.344,1.579-29.667,3.388-6.934,2.369-14.717,20.727-15.084,21.533l-5.244,13.426a.584.584,0,0,0,.553.77H87.233a4.345,4.345,0,0,0,1.505-.269l35.653-13.291a4.123,4.123,0,0,0,2.681-3.862V205.541a3.743,3.743,0,0,0-3.953-3.74Z" transform="translate(-62.418 -161.33)"/>
      <path id="Path_425" data-name="Path 425" class="cls-15" d="M77,241.623s5.023-11.266,6.713-14.958c2.551-5.576,8.51-16.98,12.534-18.208,3.7-1.11,14.338-2.46,29.312-3.317h.142a2.433,2.433,0,0,1,2.425,2.429V225.93a2.231,2.231,0,0,1-1.445,2.081l-26.343,3.25a7.333,7.333,0,0,0-5.232,3.254l-4.565,6.962a2.413,2.413,0,0,1-.837.15Z" transform="translate(-64.782 -163.354)"/>
      <path id="Path_426" data-name="Path 426" class="cls-10" d="M119.956,235.681,111,245.655l4.956-33.119,1.24-.427-2.44,24.534a.723.723,0,0,0,.987.738Z" transform="translate(-85.356 -167.571)"/>
      <path id="Path_427" data-name="Path 427" class="cls-17" d="M46.063,344.78c-.032-.43.115-.79.336-.79l4.8-.442c.395-.04.762.707.81,1.58l.217,3.684c.036.592-.142,1.094-.395,1.137l-4.9.845c-.221.039-.434-.288-.466-.723Z" transform="translate(-46.059 -247.106)"/>
      <rect id="Rectangle_137" data-name="Rectangle 137" class="cls-10" width="34.6" height="13.872" transform="translate(0 114.887)"/>
      <circle id="Ellipse_9" data-name="Ellipse 9" class="cls-10" cx="18.931" cy="18.931" r="18.931" transform="translate(37.326 106.141) rotate(-2.2)"/>
      <path id="Path_428" data-name="Path 428" class="cls-10" d="M142.427,413.35a.209.209,0,0,1,0,.051,18.931,18.931,0,1,0,37.857.545V413.9Z" transform="translate(-104.372 -289.345)"/>
      <path id="Path_429" data-name="Path 429" class="cls-17" d="M156.7,393.612a13.292,13.292,0,1,0,13.481-13.094A13.292,13.292,0,0,0,156.7,393.612Z" transform="translate(-113.008 -269.477)"/>
      <path id="Path_430" data-name="Path 430" class="cls-18" d="M170.181,380.518A13.292,13.292,0,0,0,156.7,393.612l26.579.395A13.3,13.3,0,0,0,170.181,380.518Z" transform="translate(-113.01 -269.477)"/>
      <path id="Path_431" data-name="Path 431" class="cls-10" d="M169.859,401.645a8.1,8.1,0,1,0,8.21-7.977A8.1,8.1,0,0,0,169.859,401.645Z" transform="translate(-120.972 -277.435)"/>
      <rect id="Rectangle_138" data-name="Rectangle 138" class="cls-10" width="7.846" height="18.832" rx="3.923" transform="translate(15.567 52.496)"/>
      <path id="Path_432" data-name="Path 432" class="cls-10" d="M76.655,273.425H76.26V253.512a3.586,3.586,0,0,1,3.582-3.582h.948v.395h-.948a3.191,3.191,0,0,0-3.187,3.187Z" transform="translate(-64.334 -190.457)"/>
      <path id="Path_433" data-name="Path 433" class="cls-10" d="M82.384,277.152l-1.1-18.619a2.369,2.369,0,0,1,2.342-2.484v.395a1.951,1.951,0,0,0-1.947,2.065l1.1,18.623Z" transform="translate(-67.374 -194.16)"/>
      <rect id="Rectangle_139" data-name="Rectangle 139" class="cls-10" width="5.323" height="6.164" transform="translate(10.931 81.176)"/>
      <rect id="Rectangle_140" data-name="Rectangle 140" class="cls-10" width="2.164" height="0.395" transform="translate(12.123 69.475)"/>
      <path id="Path_434" data-name="Path 434" class="cls-10" d="M88.7,197.8l.47-.063,1.386-.162,5.37-.62,20.021-2.278c1.066-.115,2.152-.257,3.278-.355a6.153,6.153,0,0,1,1.718.111,6.666,6.666,0,0,1,1.647.624,6.141,6.141,0,0,1,2.492,2.59,5.773,5.773,0,0,1,.573,1.781,6.816,6.816,0,0,1,.083.948v55.73h-20.8a22.089,22.089,0,0,0-3.554.17,13.793,13.793,0,0,0-10.915,8.715,10.755,10.755,0,0,0-.43,1.291,11.058,11.058,0,0,0-.3,1.323l-.1.671-.047.336-.02.336-.032.675V270c.087-.087-.122.134-.107.111H63.05V239.051a18.313,18.313,0,0,1,.134-1.868,18.737,18.737,0,0,1,2.235-6.8q1.631-3.068,3.159-5.923l5.6-10.492,4.545-8.518q.5-.928.956-1.8c.158-.284.3-.573.462-.841a8.351,8.351,0,0,1,.533-.758,11.207,11.207,0,0,1,2.393-2.223,12.064,12.064,0,0,1,4.095-1.781,10.469,10.469,0,0,1,1.528-.249l-.395.059c-.257.039-.636.107-1.133.221a12.115,12.115,0,0,0-4.067,1.8,11.12,11.12,0,0,0-2.369,2.223,7.033,7.033,0,0,0-.525.75c-.162.261-.3.553-.458.841l-.952,1.8-4.506,8.526c-1.69,3.183-3.554,6.693-5.568,10.5l-3.159,5.923A18.52,18.52,0,0,0,63.35,237.2a18,18,0,0,0-.13,1.852v30.947l-.1-.095H89.393c.028-.02-.19.19-.1.095v-.383l.036-.687v-.34l.051-.34.1-.683a11.2,11.2,0,0,1,.308-1.343,10.861,10.861,0,0,1,.438-1.311,14.01,14.01,0,0,1,11.076-8.845,22.586,22.586,0,0,1,3.554-.17h20.7l-.1.1V201.316a11.3,11.3,0,0,0-.079-1.876,5.651,5.651,0,0,0-.557-1.741,5.923,5.923,0,0,0-2.429-2.527,6.317,6.317,0,0,0-1.6-.612,6.033,6.033,0,0,0-1.678-.115c-1.118.095-2.211.237-3.274.351l-20.017,2.215-5.374.588-1.386.146Z" transform="translate(-56.341 -156.797)"/>
      <path id="Path_435" data-name="Path 435" class="cls-10" d="M189.334,306.679a1.473,1.473,0,0,0,.308-.047,2.173,2.173,0,0,0,.813-.324,2.057,2.057,0,0,0,.825-1.074,2.282,2.282,0,0,0,.107-.853,2.073,2.073,0,0,0-.241-.916,2.045,2.045,0,0,0-1.777-1.086h-8.577a2.026,2.026,0,0,0-2.01,1.8,2.255,2.255,0,0,0,.249,1.362,2.026,2.026,0,0,0,.987.877,3.081,3.081,0,0,0,1.287.158h3.534l3.289.032h.9a1.579,1.579,0,0,1,.308.024,2.693,2.693,0,0,1-.308.02h-.9l-3.289.032h-4.2a2.369,2.369,0,0,1-.691-.158,2.227,2.227,0,0,1-1.082-.956,2.452,2.452,0,0,1-.276-1.481,2.223,2.223,0,0,1,2.2-1.974h8.577a2.192,2.192,0,0,1,2.148,2.168,2.413,2.413,0,0,1-.13.888,2.148,2.148,0,0,1-.888,1.106,2.048,2.048,0,0,1-.849.3,1.368,1.368,0,0,1-.316.111Z" transform="translate(-126.244 -222.032)"/>
      <path id="Path_436" data-name="Path 436" class="cls-9" d="M193.622,300.944a58.137,58.137,0,0,1-6.772,0,55.877,55.877,0,0,1,6.772,0Z" transform="translate(-131.254 -221.257)"/>
      <path id="Path_437" data-name="Path 437" class="cls-10" d="M132.829,383l-3.159-.229c.825-11.313,2.034-18.082,3.7-20.692,3.191-5.015,6.362-5.923,9.872-6.52a46.54,46.54,0,0,1,9.758-.3l.79.032c6.587.257,20.384.028,20.534.028l.051,3.159c-.138,0-14.022.233-20.7-.028l-.79-.032a44.268,44.268,0,0,0-9.1.257c-3.139.533-5.228,1.145-7.748,5.1C135.273,364.964,133.844,369.067,132.829,383Z" transform="translate(-96.654 -254.129)"/>
      <rect id="Rectangle_141" data-name="Rectangle 141" class="cls-19" width="155.576" height="103.585" transform="translate(79.348 0)"/>
      <path id="Path_438" data-name="Path 438" class="cls-10" d="M403.132,204.293c0-.667-.032-38.659-.083-99.194l.083.079L251.1,105.2h0l.1-.1v99.194l-.095-.095,152.029.095-152.029.095H251V105h.115l152.029.02h.083v.083C403.164,165.634,403.132,203.63,403.132,204.293Z" transform="translate(-170.073 -102.757)"/>
      <g id="Group_25" data-name="Group 25" class="cls-20" transform="translate(102.591 28.732)">
        <path id="Path_439" data-name="Path 439" class="cls-21" d="M302.86,201.337l.284,36.736,115.38-24-.857-37.992Z" transform="translate(-302.86 -176.08)"/>
        <text id="PICK_UP" data-name="PICK UP" class="cls-22" transform="matrix(0.978, -0.208, 0.208, 0.978, 13.335, 48.5)"><tspan x="0" y="0">PICK UP</tspan></text>
      </g>
      <path id="Path_448" data-name="Path 448" class="cls-16" d="M361.11,148.92V174.8l65.756-14.461-.024-25.576Z" transform="translate(-235.518 -122.345)"/>
      <g id="Group_26" data-name="Group 26" class="cls-23" transform="translate(125.592 12.415)">
        <path id="Path_449" data-name="Path 449" d="M361.11,148.92V174.8l65.756-14.461-.024-25.576Z" transform="translate(-361.11 -134.76)"/>
      </g>
      <path id="Path_450" data-name="Path 450" class="cls-9" d="M383.279,182.079l.146,5.694,7.195-1.635.028,1.327-7.183,1.635.166,6.152-1.445.328-.375-14.5,9.509-2.16.032,1.327Z" transform="translate(-248.044 -149.067)"/>
      <path id="Path_451" data-name="Path 451" class="cls-9" d="M421.333,183.039l3.668,4.04-1.579.359-3.5-3.85c-.213.071-.47.126-.711.182l-3.949.9.126,4.6-1.465.332-.375-14.5,4.991-1.137c3.159-.715,5.284.324,5.844,2.8A5.216,5.216,0,0,1,421.333,183.039Zm1.619-5.809c-.415-1.82-1.923-2.5-4.221-1.974l-3.684.837.166,7.254,3.747-.849C422.087,181.784,423.572,179.967,422.952,177.231Z" transform="translate(-267.25 -145.932)"/>
      <path id="Path_452" data-name="Path 452" class="cls-9" d="M451.3,166.619l.13,5.161,7.191-1.635.047,1.3-7.195,1.631.142,5.386,8.34-1.9.032,1.327L450.2,180.12l-.375-14.5,9.509-2.164.032,1.327Z" transform="translate(-289.198 -139.712)"/>
      <path id="Path_453" data-name="Path 453" class="cls-9" d="M484.833,158.981l.13,5.157,7.195-1.635.043,1.3-7.191,1.635.138,5.386,8.344-1.9.028,1.327-9.785,2.211-.395-14.5,9.513-2.16.032,1.327Z" transform="translate(-309.481 -135.083)"/>
      <path id="Path_454" data-name="Path 454" class="cls-5" d="M546.72,158.463l23.286-5.453-.92-2.48Z" transform="translate(-347.833 -131.888)"/>
      <path id="Path_455" data-name="Path 455" class="cls-5" d="M282.67,206.3l16.19-3.791-.64-1.722Z" transform="translate(-188.052 -162.301)"/>
      <path id="Path_456" data-name="Path 456" class="cls-5" d="M423.04,301.383l23.286-5.457-.916-2.476Z" transform="translate(-269.044 -212.843)"/>
      <path id="Path_457" data-name="Path 457" class="cls-5" d="M415.967,139.209c0,.055-12.431,3.029-27.788,6.638s-27.823,6.5-27.839,6.441,12.427-3.029,27.792-6.638S415.955,139.154,415.967,139.209Z" transform="translate(-235.052 -125.036)"/>
      <path id="Path_458" data-name="Path 458" class="cls-5" d="M324.036,229.567c0,.055-5.331,1.185-11.933,2.511s-11.961,2.369-11.973,2.314,5.331-1.185,11.933-2.515S324.024,229.511,324.036,229.567Z" transform="translate(-198.617 -179.713)"/>
      <path id="Path_459" data-name="Path 459" class="cls-5" d="M360.837,192.234a.728.728,0,0,1-.024-.209c0-.162,0-.359-.02-.6,0-.549,0-1.291-.032-2.2,0-1.884-.032-4.431-.047-7.246s-.055-5.366-.075-7.246c0-.9-.024-1.647-.032-2.2v-.6a.7.7,0,0,1,0-.205.787.787,0,0,1,.028.205c0,.162.024.355.039.6.032.517.063,1.268.095,2.2.067,1.852.118,4.415.138,7.246s0,5.394,0,7.246c0,.908-.024,1.651-.032,2.2a5.289,5.289,0,0,1-.02.6,1.238,1.238,0,0,1-.02.209Z" transform="translate(-235.209 -144.722)"/>
      <path id="Path_460" data-name="Path 460" class="cls-5" d="M167.249,223.54a1.571,1.571,0,0,1-.146.122l-.434.312c-.395.272-.936.652-1.623,1.121-1.378.932-3.3,2.2-5.438,3.574s-4.095,2.583-5.528,3.447c-.711.43-1.291.79-1.694,1.011l-.466.261a.79.79,0,0,1-.17.083,1.1,1.1,0,0,1,.146-.115l.446-.3L154,231.994l5.485-3.5,5.465-3.522,1.662-1.062.458-.284A.9.9,0,0,1,167.249,223.54Z" transform="translate(-110.015 -174.488)"/>
      <path id="Path_461" data-name="Path 461" class="cls-5" d="M150.159,228.06a1.574,1.574,0,0,1-.146.122l-.434.312c-.395.269-.936.652-1.627,1.118-1.378.936-3.3,2.2-5.434,3.554s-4.095,2.586-5.528,3.451c-.711.43-1.291.79-1.694,1.007l-.466.265a.609.609,0,0,1-.17.079.832.832,0,0,1,.146-.115l.446-.3,1.658-1.066L142.4,233l5.465-3.522,1.662-1.066.454-.28a.723.723,0,0,1,.178-.067Z" transform="translate(-99.673 -177.223)"/>
      <path id="Path_462" data-name="Path 462" class="cls-5" d="M88.546,243.531a1.074,1.074,0,0,1-.122-.348c-.063-.225-.15-.557-.249-.967a14.089,14.089,0,0,1-.395-3.278,7.108,7.108,0,0,1,.75-3.214,4.651,4.651,0,0,1,.561-.837,1.186,1.186,0,0,1,.261-.257,12.74,12.74,0,0,0-.695,1.161,7.562,7.562,0,0,0-.675,3.159,16.877,16.877,0,0,0,.351,3.246A10.848,10.848,0,0,1,88.546,243.531Z" transform="translate(-71.305 -181.199)"/>
      <path id="Path_463" data-name="Path 463" class="cls-5" d="M48.984,311.03a2.089,2.089,0,0,1,0-.423c0-.284,0-.7.024-1.185.032-1.015.107-2.417.229-3.949s.269-2.938.395-3.949c.063-.505.118-.912.162-1.185a2.065,2.065,0,0,1,.091-.43,1.651,1.651,0,0,1,0,.442l-.1,1.185c-.087,1.058-.205,2.428-.336,3.949s-.209,2.887-.284,3.949c-.036.474-.067.873-.091,1.185a1.714,1.714,0,0,1-.087.411Z" transform="translate(-47.822 -220.701)"/>
      <path id="Path_464" data-name="Path 464" class="cls-5" d="M142.185,347.48c0,.043-.762.15-1.943.533a15.364,15.364,0,0,0-2.018.817,15.419,15.419,0,0,0-5.659,4.837c-.715,1.015-1.05,1.714-1.086,1.694a3.042,3.042,0,0,1,.221-.5,5.127,5.127,0,0,1,.3-.561c.126-.213.265-.462.446-.719a13.82,13.82,0,0,1,1.366-1.726,16,16,0,0,1,2.018-1.8,15.3,15.3,0,0,1,2.314-1.386,13.673,13.673,0,0,1,2.053-.79c.3-.1.577-.154.817-.213a6.219,6.219,0,0,1,.628-.118A2.845,2.845,0,0,1,142.185,347.48Z" transform="translate(-97.749 -249.486)"/>
      <path id="Path_465" data-name="Path 465" class="cls-5" d="M255.647,186.376a.959.959,0,0,1,0-.17v-.5c0-.45,0-1.094-.028-1.915-.024-1.674-.055-4.079-.1-7.045-.107-5.959-.253-14.168-.415-23.239s-.3-17.3-.355-23.243c-.028-2.973-.036-5.382-.032-7.045V120.64a.908.908,0,0,1,0,.17q0,.178,0,.5c0,.446,0,1.09.028,1.915.024,1.674.055,4.075.1,7.041.107,5.959.253,14.168.415,23.243s.3,17.292.355,23.239c.028,2.977.039,5.382.036,7.045v2.417a1.439,1.439,0,0,1,0,.17Z" transform="translate(-172.322 -112.221)"/>
      <circle id="Ellipse_10" data-name="Ellipse 10" class="cls-10" cx="18.931" cy="18.931" r="18.931" transform="translate(177.147 106.151) rotate(-2.29)"/>
      <path id="Path_466" data-name="Path 466" class="cls-10" d="M496.527,413.35v.051a18.929,18.929,0,1,0,37.853.545V413.9Z" transform="translate(-318.644 -289.345)"/>
      <path id="Path_467" data-name="Path 467" class="cls-17" d="M510.8,393.612a13.288,13.288,0,1,0,13.481-13.094A13.288,13.288,0,0,0,510.8,393.612Z" transform="translate(-327.28 -269.477)"/>
      <path id="Path_468" data-name="Path 468" class="cls-18" d="M524.281,380.518A13.288,13.288,0,0,0,510.8,393.612l26.576.395A13.288,13.288,0,0,0,524.281,380.518Z" transform="translate(-327.282 -269.477)"/>
      <path id="Path_469" data-name="Path 469" class="cls-10" d="M524,401.645a8.1,8.1,0,1,0,8.21-7.977A8.1,8.1,0,0,0,524,401.645Z" transform="translate(-335.269 -277.435)"/>
      <path id="Path_470" data-name="Path 470" class="cls-15" d="M481.31,386.152S478.427,359.3,506.251,359.3c25.667,0,25.1,23.093,24.854,26.666h-4.024s2.049-22.761-20.83-22.761-20.889,23.223-20.889,23.223S483.671,386.345,481.31,386.152Z" transform="translate(-309.386 -256.639)"/>
      <path id="Path_471" data-name="Path 471" class="cls-5" d="M498.22,366.339a.916.916,0,0,1-.217.079c-.146.051-.363.1-.632.2a19.239,19.239,0,0,0-2.263.881,18.1,18.1,0,0,0-9.959,11.846,19.36,19.36,0,0,0-.478,2.369c-.043.284-.059.505-.083.656a1.387,1.387,0,0,1-.039.229.924.924,0,0,1,0-.229,3.711,3.711,0,0,1,.047-.663,16.1,16.1,0,0,1,.419-2.409,17.687,17.687,0,0,1,10.038-11.953,16.631,16.631,0,0,1,2.3-.829c.276-.079.5-.122.644-.158a1.014,1.014,0,0,1,.225-.016Z" transform="translate(-311.393 -260.897)"/>
    </g>
    <g id="freepik--Character--inject-52" transform="translate(239.018 78.725)">
      <path id="Path_472" data-name="Path 472" class="cls-15" d="M692.25,432.514l3.364,5.062,1.512,4.77a.62.62,0,0,0,.821.395h0a.608.608,0,0,0,.395-.426c.308-1.248,1.418-5.844,1.153-6.2s-3.2-5.572-3.2-5.572Z" transform="translate(-671.325 -354.463)"/>
      <g id="Group_27" data-name="Group 27" class="cls-24" transform="translate(26.623 81.301)">
        <path id="Path_473" data-name="Path 473" class="cls-9" d="M706.68,450.744l1.311-6.974.138.217a.932.932,0,0,1,.138.632c-.083.588-.351,2.211-1.185,5.686a.616.616,0,0,1-.395.438Z" transform="translate(-706.68 -443.77)"/>
      </g>
      <g id="Group_28" data-name="Group 28" class="cls-24" transform="translate(25.807 80.094)">
        <path id="Path_474" data-name="Path 474" class="cls-9" d="M704.637,440.929a.4.4,0,0,0,.174.47.363.363,0,0,0,.47-.17.4.4,0,0,0-.19-.5.371.371,0,0,0-.466.233" transform="translate(-704.615 -440.714)"/>
      </g>
      <path id="Path_475" data-name="Path 475" class="cls-10" d="M703.956,453.479a1.8,1.8,0,0,0-.7-.115,1.89,1.89,0,0,0-.663.261.447.447,0,0,1,.138-.186.98.98,0,0,1,.513-.209.947.947,0,0,1,.545.1C703.913,453.4,703.968,453.467,703.956,453.479Z" transform="translate(-677.582 -368.189)"/>
      <path id="Path_476" data-name="Path 476" class="cls-10" d="M704.482,456.016a4.124,4.124,0,0,0-.6.067,3.988,3.988,0,0,0-.541.253c-.032-.02.146-.284.505-.395A.687.687,0,0,1,704.482,456.016Z" transform="translate(-678.036 -369.807)"/>
      <path id="Path_477" data-name="Path 477" class="cls-10" d="M703.611,450.337a6.034,6.034,0,0,0-.928.043,5.771,5.771,0,0,0-.873.3,1.358,1.358,0,0,1,.849-.434,1.41,1.41,0,0,1,.952.087Z" transform="translate(-677.11 -366.363)"/>
      <path id="Path_478" data-name="Path 478" class="cls-10" d="M701.988,446.42c0,.04-.355.1-.731.32s-.616.494-.648.47a1.22,1.22,0,0,1,.58-.584A1.185,1.185,0,0,1,701.988,446.42Z" transform="translate(-676.384 -364.069)"/>
      <path id="Path_479" data-name="Path 479" class="cls-10" d="M699.6,442.561a3.112,3.112,0,0,0-.79.316,3.2,3.2,0,0,0-.573.6.6.6,0,0,1,.075-.249,1.366,1.366,0,0,1,1.007-.687C699.5,442.525,699.6,442.545,699.6,442.561Z" transform="translate(-674.95 -361.722)"/>
      <path id="Path_480" data-name="Path 480" class="cls-10" d="M697.392,440.58a.613.613,0,0,1-.126-.19,1.54,1.54,0,0,1-.17-.608.719.719,0,0,1,.075-.446.253.253,0,0,1,.269-.107.423.423,0,0,1,.229.182.881.881,0,0,1-.217,1.1,1.023,1.023,0,0,1-1.133.083.336.336,0,0,1-.17-.237.241.241,0,0,1,.146-.249.869.869,0,0,1,.45-.04,1.814,1.814,0,0,1,.6.178.611.611,0,0,1,.19.126,2.9,2.9,0,0,0-.79-.209.817.817,0,0,0-.395.043.13.13,0,0,0-.083.134.245.245,0,0,0,.122.15.916.916,0,0,0,.983-.083.79.79,0,0,0,.2-.932.292.292,0,0,0-.154-.134.138.138,0,0,0-.15.055.619.619,0,0,0-.071.395A2.521,2.521,0,0,0,697.392,440.58Z" transform="translate(-673.683 -359.717)"/>
      <path id="Path_481" data-name="Path 481" class="cls-15" d="M676.174,442.549l-.395,5.082s5.043,1.726,5.062,2.673l-9.872-.024.276-7.941Z" transform="translate(-658.448 -361.604)"/>
      <g id="Group_29" data-name="Group 29" class="cls-24" transform="translate(14.001 85.469)">
        <path id="Path_482" data-name="Path 482" class="cls-9" d="M675.018,454.335a.38.38,0,0,0,.146.746.426.426,0,0,0,.312-.478.4.4,0,0,0-.494-.261" transform="translate(-674.717 -454.325)"/>
      </g>
      <g id="Group_30" data-name="Group 30" class="cls-24" transform="translate(12.534 87.888)">
        <path id="Path_483" data-name="Path 483" class="cls-9" d="M671,461.24l.028-.79,9.544.355a.691.691,0,0,1,.363.541Z" transform="translate(-671 -460.45)"/>
      </g>
      <path id="Path_484" data-name="Path 484" class="cls-10" d="M682.181,455.553c0,.047-.245.059-.49.205s-.4.344-.419.324a.583.583,0,0,1,.336-.47C681.9,455.442,682.193,455.509,682.181,455.553Z" transform="translate(-664.68 -369.568)"/>
      <path id="Path_485" data-name="Path 485" class="cls-10" d="M685.112,456.782c0,.047-.2.118-.375.316s-.225.395-.276.395-.067-.276.154-.517S685.112,456.735,685.112,456.782Z" transform="translate(-666.592 -370.328)"/>
      <path id="Path_486" data-name="Path 486" class="cls-10" d="M687.452,458.744c-.043,0-.1-.237.032-.5s.363-.355.395-.312-.126.178-.233.395S687.5,458.744,687.452,458.744Z" transform="translate(-668.391 -371.034)"/>
      <path id="Path_487" data-name="Path 487" class="cls-10" d="M681.9,452.373c-.024.043-.241-.032-.513-.024s-.49.083-.513.043.186-.209.509-.213S681.928,452.338,681.9,452.373Z" transform="translate(-664.442 -367.558)"/>
      <g id="Group_31" data-name="Group 31" class="cls-23" transform="translate(12.727 81.803)">
        <path id="Path_488" data-name="Path 488" d="M676.41,445.19l-.067.9-4.853-.237.028-.817Z" transform="translate(-671.49 -445.04)"/>
      </g>
      <path id="Path_489" data-name="Path 489" class="cls-10" d="M681.374,448.775a.924.924,0,0,1-.494-.02,2.37,2.37,0,0,1-.513-.182,2.007,2.007,0,0,1-.276-.162.574.574,0,0,1-.146-.122.214.214,0,0,1,0-.257.273.273,0,0,1,.217-.1.752.752,0,0,1,.182.032,1.952,1.952,0,0,1,.3.118,1.777,1.777,0,0,1,.446.32c.221.221.292.395.272.395s-.126-.138-.351-.324a2.106,2.106,0,0,0-.434-.265,1.46,1.46,0,0,0-.28-.1c-.1-.032-.19-.036-.221,0s0,.024,0,.055a.4.4,0,0,0,.1.091,2.676,2.676,0,0,0,.257.158,2.839,2.839,0,0,0,.47.205A3.731,3.731,0,0,1,681.374,448.775Z" transform="translate(-663.853 -364.986)"/>
      <path id="Path_490" data-name="Path 490" class="cls-10" d="M683.285,447.856a.79.79,0,0,1-.11-.482,1.65,1.65,0,0,1,.225-.833.4.4,0,0,1,.328-.241.245.245,0,0,1,.2.146.958.958,0,0,1,.043.186,1.13,1.13,0,0,1-.245.837c-.205.245-.395.3-.395.28a1.843,1.843,0,0,0,.316-.351,1.209,1.209,0,0,0,.174-.458,1,1,0,0,0,0-.288c0-.107-.043-.19-.087-.182a.329.329,0,0,0-.178.154,1.682,1.682,0,0,0-.134.265,1.782,1.782,0,0,0-.114.49C683.269,447.666,683.313,447.848,683.285,447.856Z" transform="translate(-665.832 -364)"/>
      <path id="Path_491" data-name="Path 491" class="cls-10" d="M679.2,337a31.074,31.074,0,0,1,2.286,6.365c.134.75-5.189,38.841-5.189,38.841L670,381.969l2.95-35.445-1.05-7.108Z" transform="translate(-657.861 -297.86)"/>
      <path id="Path_492" data-name="Path 492" class="cls-10" d="M654.557,342.83a56.544,56.544,0,0,0,.395,7.7c.466,3.736,1.532,7.988,1.88,10.366.766,5.26,2.274,6.255,2.274,6.255L671.182,382.6l4.739-4.261L665.259,361.31s-2.835-18.9-2.737-18.39S654.557,342.83,654.557,342.83Z" transform="translate(-648.512 -301.388)"/>
      <path id="Path_493" data-name="Path 493" class="cls-15" d="M666.73,405a1.362,1.362,0,0,0,.115.162l.344.442,1.268,1.635c1.07,1.394,2.527,3.305,4.142,5.418s3.084,4.032,4.174,5.4c.541.683.987,1.232,1.3,1.607l.363.426a1.181,1.181,0,0,0,.134.146.948.948,0,0,0-.115-.162l-.344-.446L676.847,418l-4.142-5.422c-1.611-2.121-3.084-4.032-4.174-5.394-.541-.687-.987-1.232-1.3-1.607l-.367-.43A.94.94,0,0,0,666.73,405Z" transform="translate(-655.883 -339.008)"/>
      <path id="Path_494" data-name="Path 494" class="cls-15" d="M658.818,350.16a1.315,1.315,0,0,1-.17.6,3.87,3.87,0,0,1-2.156,2.022,1.462,1.462,0,0,1-.612.13,6.788,6.788,0,0,0,1.749-1.078A6.672,6.672,0,0,0,658.818,350.16Z" transform="translate(-649.317 -305.824)"/>
      <path id="Path_495" data-name="Path 495" class="cls-15" d="M693.609,344.286a1.647,1.647,0,0,1-1.769-.261c.028-.051.395.118.877.186A8.22,8.22,0,0,1,693.609,344.286Z" transform="translate(-671.077 -302.106)"/>
      <path id="Path_496" data-name="Path 496" class="cls-15" d="M679.109,358a1.9,1.9,0,0,1,.043.253c.024.182.051.423.091.727.071.652.174,1.58.3,2.709.245,2.322.58,5.528.967,9.217v-.043l1.749,2.8,6.077,9.781c.762,1.244,1.382,2.255,1.82,2.977l.474.806a1.672,1.672,0,0,1,.154.292,2.316,2.316,0,0,1-.19-.272l-.521-.79-1.876-2.942c-1.579-2.508-3.74-5.947-6.129-9.746l-1.745-2.8h0v-.024c-.355-3.676-.671-6.9-.9-9.224L679.188,359c-.024-.3-.043-.545-.055-.731A1.114,1.114,0,0,1,679.109,358Z" transform="translate(-663.373 -310.568)"/>
      <path id="Path_497" data-name="Path 497" class="cls-15" d="M654.972,273.668l3.767,1.208.284,7.988s2.038,9.386,2.48,10.571a24.191,24.191,0,0,1,1.149,4.375s-.727,5.3-6.022,5.923-10.223-2.417-10.223-2.417-1.765-7.9-3.384-14.982c-1.54-6.741-.288-10.76-.288-10.76l5.8-2.085Z" transform="translate(-641.072 -259.429)"/>
      <rect id="Rectangle_142" data-name="Rectangle 142" class="cls-5" width="3.487" height="0.896" transform="translate(13.238 19.103) rotate(-6.9)"/>
      <path id="Path_498" data-name="Path 498" class="cls-10" d="M675.721,255.542a.79.79,0,0,0-.841-.655.659.659,0,0,0-.083-1.106,1.358,1.358,0,0,0-.28-1.8l-3.977,5.485a2.89,2.89,0,0,0,2.192.6,5.863,5.863,0,0,0,2.192-.79.9.9,0,0,0,.434-.395c.075-.186-.031-.454-.237-.458A.79.79,0,0,0,675.721,255.542Z" transform="translate(-658.188 -246.413)"/>
      <path id="Path_499" data-name="Path 499" class="cls-10" d="M655.282,253.394a.375.375,0,0,0-.395.58.663.663,0,0,0-.687.944,1.284,1.284,0,0,0-.79.217.747.747,0,0,0-.316.738.533.533,0,0,0,.632.395.735.735,0,0,0,.04.79.474.474,0,0,0,.719.02.569.569,0,0,0,.707.849.62.62,0,0,0,1,.624Z" transform="translate(-647.625 -247.262)"/>
      <path id="Path_500" data-name="Path 500" class="cls-25" d="M659,244.115l-.174,9.71a3.021,3.021,0,0,0,2.764,3.06h0a3.021,3.021,0,0,0,3.285-2.938c0-.924.032-1.682.032-1.682a2.813,2.813,0,0,0,2.6-2.488c.138-1.351.174-4.431.182-6.8a3.072,3.072,0,0,0-2.8-3.072l-1.41-.122A4.344,4.344,0,0,0,659,244.115Z" transform="translate(-651.102 -239.034)"/>
      <path id="Path_501" data-name="Path 501" class="cls-26" d="M669.672,269.575a5.654,5.654,0,0,1-2.962-1.185,2.952,2.952,0,0,0,2.95,1.761Z" transform="translate(-655.87 -256.343)"/>
      <path id="Path_502" data-name="Path 502" class="cls-10" d="M677.586,253.254c-.043.039-.28-.17-.64-.2s-.636.126-.671.079.032-.1.154-.17a.9.9,0,0,1,.541-.118.884.884,0,0,1,.505.217C677.579,253.152,677.61,253.235,677.586,253.254Z" transform="translate(-661.653 -246.933)"/>
      <path id="Path_503" data-name="Path 503" class="cls-10" d="M668.971,253.777a.336.336,0,0,1-.351.308.32.32,0,0,1-.32-.328.336.336,0,0,1,.352-.308.32.32,0,0,1,.32.328Z" transform="translate(-656.832 -247.302)"/>
      <path id="Path_504" data-name="Path 504" class="cls-10" d="M677.777,254.571a.336.336,0,0,1-.352.308.324.324,0,0,1-.316-.332.332.332,0,0,1,.351-.308.316.316,0,0,1,.316.332Z" transform="translate(-662.164 -247.78)"/>
      <path id="Path_505" data-name="Path 505" class="cls-10" d="M668.74,252.474c-.044.04-.28-.17-.64-.2s-.64.126-.675.079.032-.1.154-.17a.916.916,0,0,1,1.05.095C668.733,252.372,668.764,252.455,668.74,252.474Z" transform="translate(-656.298 -246.461)"/>
      <path id="Path_506" data-name="Path 506" class="cls-10" d="M673.47,255.535a2.491,2.491,0,0,1,.6-.055c.095,0,.182,0,.2-.071a.454.454,0,0,0-.036-.276c-.067-.233-.138-.47-.209-.723a11.712,11.712,0,0,1-.446-1.88,12.279,12.279,0,0,1,.6,1.836c.067.257.134.5.2.727a.54.54,0,0,1,0,.363.237.237,0,0,1-.162.122.751.751,0,0,1-.158,0A2.367,2.367,0,0,1,673.47,255.535Z" transform="translate(-659.961 -246.746)"/>
      <path id="Path_507" data-name="Path 507" class="cls-10" d="M670.619,260.53c.059,0,.028.395.336.7s.727.3.727.351-.1.071-.276.059a.98.98,0,0,1-.608-.276.842.842,0,0,1-.257-.58C670.54,260.617,670.6,260.526,670.619,260.53Z" transform="translate(-658.188 -251.587)"/>
      <path id="Path_508" data-name="Path 508" class="cls-10" d="M668.728,249.649c-.047.095-.395,0-.825.032s-.79.1-.825,0,.047-.13.193-.213a1.374,1.374,0,0,1,.624-.158,1.406,1.406,0,0,1,.632.13C668.673,249.522,668.744,249.605,668.728,249.649Z" transform="translate(-656.088 -244.797)"/>
      <path id="Path_509" data-name="Path 509" class="cls-10" d="M677.837,250.614c-.071.079-.312-.028-.608-.059s-.553,0-.6-.083.024-.122.142-.19a.885.885,0,0,1,.975.115C677.841,250.507,677.869,250.578,677.837,250.614Z" transform="translate(-661.86 -245.327)"/>
      <path id="Path_510" data-name="Path 510" class="cls-25" d="M658.331,255.169c-.039-.02-1.579-.616-1.654.987a1.207,1.207,0,0,0,1.544,1.315C658.228,257.424,658.331,255.169,658.331,255.169Z" transform="translate(-649.797 -248.268)"/>
      <path id="Path_511" data-name="Path 511" class="cls-26" d="M658.362,257.631a.6.6,0,0,1-.079.039.3.3,0,0,1-.209,0,.691.691,0,0,1-.284-.636.99.99,0,0,1,.1-.395.343.343,0,0,1,.225-.2.138.138,0,0,1,.158.087v.079a.092.092,0,0,0,.028-.091.173.173,0,0,0-.059-.1.209.209,0,0,0-.15-.051.4.4,0,0,0-.3.233.931.931,0,0,0-.122.442.726.726,0,0,0,.367.715.312.312,0,0,0,.257-.028C658.354,257.67,658.366,257.635,658.362,257.631Z" transform="translate(-650.393 -249.063)"/>
      <path id="Path_512" data-name="Path 512" class="cls-10" d="M658.483,245.286a.841.841,0,0,1,.735.462c.083.237.083.5.166.734s.3.466.549.426a.49.49,0,0,0,.367-.332,1.342,1.342,0,0,0,.047-.517c-.028-.754-.118-1.508-.083-2.259a3.9,3.9,0,0,1,.663-2.132,2.108,2.108,0,0,1,1.974-.885c.494.083.924.395,1.41.5a1.974,1.974,0,0,0,1.67-.395c.059-.047.324-.19.324-.19a.948.948,0,0,0-.126-.509,4.737,4.737,0,0,0-7.222.991,6.763,6.763,0,0,0-.45,4.115" transform="translate(-650.834 -238.527)"/>
      <path id="Path_513" data-name="Path 513" class="cls-10" d="M673.625,245.047a1.52,1.52,0,0,1-1.339.711,4.23,4.23,0,0,1-1.54-.367,12.54,12.54,0,0,0-2.369-.565c-.079,0-.174,0-.209-.083s.051-.193.138-.253a7.269,7.269,0,0,1,3.345-.628,2.61,2.61,0,0,1,2.2,1.287" transform="translate(-656.747 -241.498)"/>
      <path id="Path_514" data-name="Path 514" class="cls-15" d="M667.178,241.483a2.859,2.859,0,0,0-1.872-1.058,7.728,7.728,0,0,0-7.2,3.609,9.984,9.984,0,0,1-.213-2.069,4.558,4.558,0,0,1,3.554-3.913C661.456,238.044,665.989,236.744,667.178,241.483Z" transform="translate(-650.533 -237.883)"/>
      <path id="Path_515" data-name="Path 515" class="cls-15" d="M659.22,244.421a11.526,11.526,0,0,1,3.874-3.1,22.458,22.458,0,0,1,5.528-1.7,3.526,3.526,0,0,1,1.493-.028,1.339,1.339,0,0,1,1.015,1c.1.616-1.058,1.457-1.58,1.777a16.284,16.284,0,0,1-1.615.77s.115-1.118-1.662-1.508C663.844,241.088,659.22,244.421,659.22,244.421Z" transform="translate(-651.338 -238.874)"/>
      <path id="Path_516" data-name="Path 516" class="cls-10" d="M669.933,239.6a4.738,4.738,0,0,0-.509-.079,6.756,6.756,0,0,0-1.41.095,21.429,21.429,0,0,0-4.5,1.275,12.445,12.445,0,0,0-3.949,2.448,5.736,5.736,0,0,0-.9,1.082c-.174.284-.241.458-.257.45s0-.047.032-.13a2.519,2.519,0,0,1,.158-.359,4.909,4.909,0,0,1,.869-1.145,11.626,11.626,0,0,1,3.972-2.535,19.169,19.169,0,0,1,4.553-1.232,5.982,5.982,0,0,1,1.437-.028,1.276,1.276,0,0,1,.395.095C669.9,239.573,669.937,239.593,669.933,239.6Z" transform="translate(-650.844 -238.808)"/>
      <path id="Path_517" data-name="Path 517" class="cls-5" d="M672.921,240.268a5.819,5.819,0,0,1,1.824-.446,2.307,2.307,0,0,0-.454-.332,4.633,4.633,0,0,0-1.422.344Z" transform="translate(-659.598 -238.855)"/>
      <path id="Path_518" data-name="Path 518" class="cls-10" d="M674.581,245.318a.707.707,0,0,0-.525-1.118.648.648,0,0,0,.34-.888.817.817,0,0,0-.932-.363,1.141,1.141,0,0,0-.73.742.77.77,0,0,0-1.311.055.415.415,0,0,0-.5-.261,1.441,1.441,0,0,0-.537.32.952.952,0,0,1-.565.257l-.138.059a.877.877,0,0,0,1.114.332,1.676,1.676,0,0,1,1.537.778.616.616,0,0,0,.58-.095.79.79,0,0,0,1.224.34,1.331,1.331,0,0,1,.15,1.086.711.711,0,0,0,.3-1.244Z" transform="translate(-657.668 -240.928)"/>
      <path id="Path_519" data-name="Path 519" class="cls-10" d="M660.974,248a10.315,10.315,0,0,0-1.58.873,3.435,3.435,0,0,0-1.165,1.362l.79.754c.217.071.395.146.561,0a.683.683,0,0,0,.229-.608.584.584,0,0,0,.659-.8.454.454,0,0,0,.332-.316.466.466,0,0,0-.115-.442.458.458,0,0,0,.288-.79Z" transform="translate(-650.739 -244.005)"/>
      <path id="Path_520" data-name="Path 520" class="cls-15" d="M684,277a10.711,10.711,0,0,1,3.037,2.65c.7,1.248,4.438,10.354,4.284,11.846s-3.661,2.413-3.661,2.413L684,289.17l1.674-1L684,284.945Z" transform="translate(-666.333 -261.553)"/>
      <path id="Path_521" data-name="Path 521" class="cls-25" d="M675.572,312.014s-8.482,1.7-11.562-1.974l.892-3.1s5.6,1.327,7.357.758Z" transform="translate(-654.237 -279.671)"/>
      <path id="Path_522" data-name="Path 522" class="cls-10" d="M689.586,300.71c.032.063-1,.494-2.065,1.311s-1.745,1.7-1.8,1.659a2.11,2.11,0,0,1,.395-.6,7.811,7.811,0,0,1,1.26-1.22,8.059,8.059,0,0,1,1.5-.9A2.231,2.231,0,0,1,689.586,300.71Z" transform="translate(-667.374 -275.901)"/>
      <path id="Path_523" data-name="Path 523" class="cls-10" d="M686.387,300.316a8.734,8.734,0,0,1-.762-1.512,11.141,11.141,0,0,1-.7-1.544,5.133,5.133,0,0,1,.881,1.457,6.082,6.082,0,0,1,.576,1.6Z" transform="translate(-666.896 -273.813)"/>
      <path id="Path_524" data-name="Path 524" class="cls-10" d="M683.879,291.284a6.422,6.422,0,0,0-.205-1.319,6.844,6.844,0,0,0-.344-1.3A13.344,13.344,0,0,0,683.879,291.284Z" transform="translate(-665.927 -268.615)"/>
      <path id="Path_525" data-name="Path 525" class="cls-15" d="M641.985,279.252a9.17,9.17,0,0,1,3.27,4.344c.778,2.63,1.635,5.374,1.635,5.374l3.037.395-1.714,7.005a8.182,8.182,0,0,1-5.682-3.736,37.8,37.8,0,0,1-3.27-7.459S639.517,276.669,641.985,279.252Z" transform="translate(-639.26 -262.621)"/>
      <path id="Path_526" data-name="Path 526" class="cls-25" d="M655.945,299.384a25.843,25.843,0,0,0-1.461-2.922c-.174-.04-2.658-.912-2.658-.912a.9.9,0,0,0,0,.628l-.9.115s.134.549.438.624l-.324.288a1.82,1.82,0,0,0,.608.513.663.663,0,0,0,.588,0s-.111.205.395.529,1.386.79,1.386.79Z" transform="translate(-646.322 -272.778)"/>
      <path id="Path_527" data-name="Path 527" class="cls-26" d="M654.014,299.047h0s-.88-.482-1.386-.79c-.438-.276-.426-.466-.395-.521a.7.7,0,0,1-.577,0,1.891,1.891,0,0,1-.612-.517h0l.3-.312c-.3-.087-.427-.6-.43-.628h0l.892-.115a.931.931,0,0,1,0-.624h0c.024,0,2.492.877,2.661.912a25.631,25.631,0,0,1,1.465,2.926h0Zm-2.2-2.879h0l-.9.115c0,.063.154.545.434.616h0l-.328.288a1.749,1.749,0,0,0,.6.505.667.667,0,0,0,.584,0h0v.024s-.1.205.395.521,1.354.79,1.386.79l1.907.336a22.457,22.457,0,0,0-1.453-2.906c-.13-.028-2.519-.865-2.654-.912A.861.861,0,0,0,651.818,296.168Z" transform="translate(-646.31 -272.772)"/>
      <path id="Path_528" data-name="Path 528" class="cls-26" d="M653.4,297.16a11.009,11.009,0,0,0,1.627.636c.229.083.454.142.632.229a.814.814,0,0,1,.371.355c.15.269.205.462.229.454a1.184,1.184,0,0,0-.142-.5.916.916,0,0,0-.395-.419,5.665,5.665,0,0,0-.648-.245A12.1,12.1,0,0,0,653.4,297.16Z" transform="translate(-647.816 -273.752)"/>
      <path id="Path_529" data-name="Path 529" class="cls-26" d="M651.93,299a1.253,1.253,0,0,0,.45.162c.284.079.687.142,1.114.257a2.852,2.852,0,0,1,1.007.474c.229.178.328.332.348.32a.869.869,0,0,0-.284-.395,2.515,2.515,0,0,0-1.035-.533c-.438-.118-.845-.166-1.129-.217A2.142,2.142,0,0,0,651.93,299Z" transform="translate(-646.927 -274.866)"/>
      <path id="Path_530" data-name="Path 530" class="cls-26" d="M655.685,301.584a1.047,1.047,0,0,0-.6-.395,1.114,1.114,0,0,0-.719-.067c0,.043.316.063.675.193S655.661,301.616,655.685,301.584Z" transform="translate(-648.403 -276.131)"/>
      <path id="Path_531" data-name="Path 531" class="cls-25" d="M663.613,301.582l7.657-3.862,1.4,2.855s-7.056,6.993-10.362,6.9" transform="translate(-653.208 -274.091)"/>
      <path id="Path_532" data-name="Path 532" class="cls-10" d="M653.83,287a2.408,2.408,0,0,0,.1.569c.083.343.2.817.344,1.339s.276,1,.395,1.335a2.324,2.324,0,0,0,.2.537,2.681,2.681,0,0,0-.1-.565c-.083-.344-.2-.817-.344-1.343s-.276-.991-.395-1.327A2.516,2.516,0,0,0,653.83,287Z" transform="translate(-648.076 -267.604)"/>
      <path id="Path_533" data-name="Path 533" class="cls-10" d="M654.664,307.183c.024,0,.091-.351.268-.9a2.926,2.926,0,0,1,.458-.884,1.643,1.643,0,0,1,.983-.612,3.838,3.838,0,0,1,1.212.138l1,.2a1.58,1.58,0,0,1,.367.095.359.359,0,0,1,.186.19.288.288,0,0,1,0,.229s.107-.063.063-.245a.4.4,0,0,0-.2-.241,1.555,1.555,0,0,0-.395-.122l-1-.229a3.72,3.72,0,0,0-1.26-.15,1.737,1.737,0,0,0-1.07.683,2.861,2.861,0,0,0-.45.932,5.929,5.929,0,0,0-.154.679A.793.793,0,0,0,654.664,307.183Z" transform="translate(-648.579 -278.283)"/>
      <path id="Path_534" data-name="Path 534" class="cls-10" d="M652,304.9a3.215,3.215,0,0,1,.825-.956,5.033,5.033,0,0,1,1.185-.513.841.841,0,0,0-.395.032,2.315,2.315,0,0,0-.857.371,2.049,2.049,0,0,0-.628.7A.758.758,0,0,0,652,304.9Z" transform="translate(-646.969 -277.543)"/>
      <path id="Path_535" data-name="Path 535" class="cls-10" d="M639.26,295a.459.459,0,0,0,.039.15c.04.1.083.249.142.419.13.395.308.9.529,1.536s.49,1.425.869,2.255a26.82,26.82,0,0,0,1.366,2.626,8.934,8.934,0,0,0,1.907,2.267,8.226,8.226,0,0,0,2.053,1.283,6.064,6.064,0,0,0,1.579.438,4.385,4.385,0,0,0,.442.043h.154s-.209-.024-.588-.091a6.562,6.562,0,0,1-1.54-.478,8.738,8.738,0,0,1-3.882-3.526c-.537-.9-.971-1.8-1.37-2.61a21.621,21.621,0,0,1-.9-2.235c-.241-.655-.426-1.165-.569-1.524l-.166-.395a.818.818,0,0,0-.071-.158Z" transform="translate(-639.26 -272.445)"/>
      <path id="Path_536" data-name="Path 536" class="cls-10" d="M644.82,280.42c0,.039.584.253,1.252.652s1.145.813,1.185.79a4.778,4.778,0,0,0-2.425-1.433Z" transform="translate(-642.624 -263.623)"/>
      <path id="Path_537" data-name="Path 537" class="cls-10" d="M659.53,327.54a2.614,2.614,0,0,0,.395.2c.13.063.288.134.474.205s.395.166.64.241a15.253,15.253,0,0,0,1.706.5,17.968,17.968,0,0,0,2.152.34,17.025,17.025,0,0,0,2.18.039,15.367,15.367,0,0,0,1.769-.186c.249-.036.474-.087.667-.126s.367-.083.5-.118a3.084,3.084,0,0,0,.422-.126,3.156,3.156,0,0,0-.434.075c-.134.028-.3.063-.5.095s-.423.079-.671.107a16.628,16.628,0,0,1-1.761.158,18.467,18.467,0,0,1-2.16-.055,18.739,18.739,0,0,1-2.136-.324,16.912,16.912,0,0,1-1.7-.466c-.245-.071-.454-.154-.644-.221s-.348-.13-.478-.182A3.279,3.279,0,0,0,659.53,327.54Z" transform="translate(-651.526 -292.136)"/>
      <path id="Path_538" data-name="Path 538" class="cls-10" d="M675.28,336.044a6.616,6.616,0,0,0,1.552-.395,6.539,6.539,0,0,0,1.469-.624c0-.036-.679.217-1.512.494A14.444,14.444,0,0,0,675.28,336.044Z" transform="translate(-661.056 -296.663)"/>
      <g id="Group_32" data-name="Group 32" class="cls-23" transform="translate(5.667 32.386)">
        <path id="Path_539" data-name="Path 539" d="M668.011,320.065a14.8,14.8,0,0,1-5.307.079,5.726,5.726,0,0,0-1.974-.237,6.577,6.577,0,0,0-1.52.577,5.943,5.943,0,0,1-5.6-.58,3.858,3.858,0,0,0,2.9,2.034,8.561,8.561,0,0,0,3.637-.324,9.456,9.456,0,0,1,2.156-.434c.932-.024,1.844.28,2.764.3a4.983,4.983,0,0,0,3.021-.912Z" transform="translate(-653.61 -319.898)"/>
      </g>
      <g id="Group_33" data-name="Group 33" class="cls-23" transform="translate(11.582 38.634)">
        <path id="Path_540" data-name="Path 540" d="M674.043,335.72a4.9,4.9,0,0,1-3.728,2.369,2.421,2.421,0,0,1-.983-.079,1.212,1.212,0,0,1-.742-.62,3.519,3.519,0,0,1,1.157-.478L674,335.748" transform="translate(-668.59 -335.72)"/>
      </g>
      <path id="Path_541" data-name="Path 541" class="cls-26" d="M672.545,305.24a2.688,2.688,0,0,1-.344.351c-.229.221-.561.537-.952.94s-.857.9-1.426,1.394-1.216,1-1.9,1.532a19.237,19.237,0,0,1-2.018,1.382,9.663,9.663,0,0,1-1.816.841,7.64,7.64,0,0,1-1.311.32,2.088,2.088,0,0,1-.49.028,15.132,15.132,0,0,0,1.753-.482,10.641,10.641,0,0,0,1.769-.869,21.228,21.228,0,0,0,1.974-1.382c.683-.529,1.335-1.031,1.9-1.512s1.039-.96,1.449-1.354.758-.695,1-.9a2.034,2.034,0,0,1,.407-.292Z" transform="translate(-653.196 -278.642)"/>
    </g>
  </g>
</svg>
