<svg width="271" height="272" viewBox="0 0 271 272" fill="none" xmlns="http://www.w3.org/2000/svg">
<path d="M135.946 270.965C210.515 270.965 270.965 210.515 270.965 135.946C270.965 61.3769 210.515 0.92688 135.946 0.92688C61.3768 0.92688 0.926758 61.3769 0.926758 135.946C0.926758 210.515 61.3768 270.965 135.946 270.965Z" fill="#5163C7"/>
<path d="M131.088 73.4399L143.908 79.208L147.434 84.9759L153.202 87.2179L153.84 93.318L151.598 96.8439L147.115 97.755L137.493 93.91V92.6249L142.96 90.3829L141.019 83.7219L132.372 80.5149L128.527 75.3849L131.088 73.4399ZM211.837 221.489L201.586 217.316L189.086 212.833H179.186L169.892 210.91L159.641 213.151L153.873 213.47H150.347L143.622 217.315L137.244 219.885L128.597 214.418L130.839 205.443L125.372 203.202H118.994L117.951 200.349L118.598 194.581L116.311 191.365L111.828 192.003L110.543 195.21L105.076 195.529L100.265 189.761L98.342 182.071L103.153 173.096L112.438 173.743L115.008 175.984H118.851L123.651 173.096L127.815 174.381L133.615 184.313L135.866 183.994L135.219 176.623L133.296 172.778L133.943 166.691L145.788 161.561L147.388 149.716L152.509 145.552L156.682 138.181L159.882 137.543L167.253 132.732L167.572 130.172L162.451 130.491L161.485 127.931H157.959L152.492 129.207L155.062 125.043L166.279 121.843L168.839 118.955L173.322 126.008L176.21 128.887L180.693 127.611L178.77 123.438L172.045 118.638L164.355 109.982L156.337 104.515L148.647 103.23L144.802 99.3849L139.681 98.1L139.034 99.3849L138.396 108.679L139.681 111.879L136.793 122.139L130.415 117.009L131.326 112.526L124.601 109.319L121.767 105.811L123.367 97.8019L132.661 91.068L133.299 83.378L129.773 83.706L127.531 80.818L126.62 76.018L124.378 75.6899L123.093 80.82L119.567 81.458L117.967 70.2499L115.388 68.6499L110.905 66.727L105.775 69.2869L112.153 75.374L113.438 80.841L101.902 72.1939L93.893 63.5379L93.246 54.8909L84.918 52.3209L78.54 56.4849C76.9836 57.4274 75.3776 58.2853 73.729 59.055C72.129 59.693 66.039 60.331 66.039 60.331L64.763 65.7889L57.401 66.1079L58.039 69.6339L69.884 71.557L75.971 78.2909V89.5079L72.445 99.4399L73.092 110.01L64.117 125.719L62.194 149.109L65.082 162.567L69.246 172.818L74.046 173.465L72.446 168.335L69.886 164.49L68.286 157.437L71.174 156.799L75.657 168.335L78.864 178.586V186.923L84.951 194.285L95.885 202.303L112.505 206.731L117.635 211.531L121.48 216.661L127.248 220.187L134.301 222.11L141.351 221.789C141.351 221.789 141.023 224.996 141.023 226.589C141.023 228.182 136.54 233.642 136.54 233.642L133.014 240.02L135.574 247.073L142.627 249.961L152.559 260.212L157.051 262.137V266.937L157.607 269.178C182.536 265.152 205.828 254.189 224.816 237.542L224.98 235.219L233.636 219.519L229.472 216.631L211.837 221.489ZM245.168 94.908L241.642 88.8209L237.159 81.7779L235.874 72.165L241.642 73.1219L241.961 69.915L237.797 69.596L241.323 67.9959L245.168 65.7539V62.5539L241.323 57.4239L240.503 50.5239C221.878 27.7363 196.32 11.655 167.716 4.72577C139.112 -2.20347 109.028 0.398489 82.039 12.1359L89.429 17.3659L84.946 23.1339L78.859 24.419L78.212 33.0659L75.652 34.0319L72.445 37.5579L72.773 43.3259L78.24 43.9639L75.998 49.4309H81.465L90.759 37.5859L91.725 32.456L100.691 31.809L102.933 27.9639L112.227 27.0069L113.193 21.54L119.918 21.221C119.918 21.221 124.729 18.6609 125.686 18.6609C127.544 19.0614 129.371 19.5945 131.153 20.2559L135.964 24.1009H142.689L148.457 20.5839L155.828 21.2219C156.883 21.9273 158.093 22.3681 159.354 22.5069C160.954 22.5069 165.732 20.2559 165.732 20.2559L175.026 26.0239L178.871 28.9119V33.7119L183.682 34.359L185.277 31.471L189.451 33.389L189.123 35.9589L179.51 38.5189L184.977 45.5719L196.513 51.9499L201.324 58.3279L208.376 58.9749L209.971 55.7679L212.541 55.1299L204.204 48.7519L199.083 48.1139L203.247 46.8289L199.402 41.3619L204.869 41.0339L211.912 44.8789L213.512 52.5689L217.038 56.7419L219.926 66.027L226.969 71.1569V81.736L234.34 86.5359L234.021 90.0619L233.055 94.2259L234.978 99.9939L235.625 102.882L241.092 103.793L243.652 98.326L245.168 94.908ZM249.341 62.6339V64.456L247.741 69.5769L248.707 74.0689L252.224 75.3449V81.432L248.379 79.837L247.422 97.1489L243.577 104.192L246.137 113.167L250.301 117.012V134.324L254.474 147.782L258.957 158.042L266.328 159.955L268.888 153.577L269.936 152.757C270.628 147.189 270.975 141.584 270.975 135.973C271.019 109.947 263.504 84.4685 249.344 62.6319L249.341 62.6339ZM175.317 60.6339L154.168 51.3399L144.874 51.6589L142.632 57.7459L138.787 53.5819L131.734 55.1819L131.096 65.7519L136.864 69.9159L141.028 63.8289L145.839 68.6399L155.771 77.2869L157.694 86.581L166.022 97.16L179.48 94.9089L179.18 90.098L176.301 84.6309L175.627 71.874L178.834 66.4069L175.317 60.6339ZM192.629 67.6769L187.829 66.4009L183.665 69.9179L185.906 79.212H190.07L192.629 67.6769ZM222.429 73.764L211.5 67.9889L209.249 64.1439L206.689 65.1099L208.931 71.488L210.854 79.8249L215.654 81.7479L216.62 80.4629L213.804 75.6789L222.141 78.8859L222.429 73.764ZM128.851 189.415L127.566 190.7L137.179 193.579L141.024 198.062L147.124 198.709L149.366 195.183L141.995 193.971L128.851 189.415ZM157.371 195.502L150.637 197.425L151.603 199.985H159.931L161.531 197.425L158.652 197.744L157.371 195.502Z" fill="#FFBD69"/>
<path opacity="0.3" d="M168.666 192.595C132.704 192.595 98.2145 178.31 72.7848 152.881C47.355 127.453 33.0678 92.9641 33.066 57.002C33.066 53.53 33.203 50.086 33.458 46.678C19.3362 62.8543 9.25826 82.1533 4.05377 102.986C-1.15072 123.819 -1.33294 145.59 3.52212 166.508C8.37718 187.425 18.1307 206.89 31.9797 223.3C45.8287 239.711 63.3773 252.597 83.1807 260.899C102.984 269.201 124.476 272.681 145.887 271.053C167.299 269.424 188.017 262.734 206.337 251.532C224.657 240.33 240.055 224.938 251.262 206.621C262.47 188.305 269.167 167.589 270.803 146.178C258.091 160.772 242.394 172.468 224.774 180.476C207.154 188.483 188.02 192.616 168.666 192.595V192.595Z" fill="black"/>
</svg>
