<svg xmlns="http://www.w3.org/2000/svg" xmlns:xlink="http://www.w3.org/1999/xlink" width="440.451" height="381.893" viewBox="0 0 440.451 381.893"><defs><clipPath id="a"><circle cx="135.019" cy="135.019" r="135.019" transform="translate(0 190.946) rotate(-45)" fill="#878787" stroke="#263238" stroke-linecap="round" stroke-linejoin="round" stroke-width="1"/></clipPath><clipPath id="b"><path d="M328.547,281.475l-100.02-24.7s-10.023-3.107-18.224,2.05-10.424,5.859-14.2,12.346a14.269,14.269,0,0,0,5.012,19.3c7.153,4.346,55.272,13.167,55.272,13.167s11.845,6.378,17.03,7.654,15.49,2.606,17.622,2.342a27.1,27.1,0,0,0,4.255-.966l11.49,2.488-4.255,2.1s-10.023-3.107-13.859,4.948,2.642,12.957,8.866,14.634a19.654,19.654,0,0,0,12.529-.465c1.95-.747,4.3-.055,6.032-3.107s2.515-4.7,1.64-6l-1.749-2.606a11.845,11.845,0,0,0,3.089-.747,26.79,26.79,0,0,0,4.474-3.189l16.893,5.859s4.8,4.337,7.891,4.72,3.945-.784,3.945-.784l23.827,8.966s2.223,2.478,4.182,2.861a9.439,9.439,0,0,0,3.872-.137l44.183,15.49.4,2.56,3.116-5.467-3.781.838L316.191,313.211s20.729-5.412,31.545-12.091l47.19,15.18-.574-1.695-43.281-16.675s1.686-3.955.465-5.786a23.336,23.336,0,0,0-3.745-3.9l25.732-46.953-5.658-1.112-34.379,40.238S332.456,281.119,328.547,281.475Z" transform="translate(-194.222 -240.18)" fill="#fff" stroke="#263238" stroke-linecap="round" stroke-linejoin="round" stroke-width="1"/></clipPath></defs><g transform="translate(-845.049 -155)"><g transform="translate(835.007 106.24)"><g transform="translate(28.993 48.76)"><circle cx="135.019" cy="135.019" r="135.019" transform="translate(0 190.946) rotate(-45)" fill="#5163c7"/><g clip-path="url(#a)"><path d="M226.037,182.651l12.82,5.768,3.526,5.768,5.768,2.242.638,6.1-2.242,3.526-4.483.911-9.622-3.845v-1.285l5.467-2.242-1.941-6.661-8.647-3.207-3.845-5.13ZM306.786,330.7l-10.251-4.173-12.5-4.483h-9.9l-9.294-1.923-10.251,2.241-5.768.319h-3.526l-6.725,3.845-6.378,2.57-8.647-5.467,2.242-8.975-5.467-2.241h-6.378L212.9,309.56l.647-5.768-2.287-3.216-4.483.638-1.285,3.207-5.467.319-4.811-5.768-1.923-7.69,4.811-8.975,9.285.647,2.57,2.241H213.8l4.8-2.888,4.164,1.285,5.8,9.932,2.251-.319-.647-7.371-1.923-3.845.647-6.087,11.845-5.13,1.6-11.845,5.121-4.164,4.173-7.371,3.2-.638,7.371-4.811.319-2.56-5.121.319-.966-2.56h-3.526l-5.467,1.276,2.57-4.164,11.217-3.2,2.56-2.888,4.483,7.053,2.888,2.879,4.483-1.276-1.923-4.173-6.725-4.8-7.69-8.656-8.018-5.467-7.69-1.285-3.845-3.845-5.121-1.285-.647,1.285-.638,9.294,1.285,3.2-2.888,10.26-6.378-5.13.911-4.483-6.725-3.207-2.834-3.508,1.6-8.009,9.294-6.734.638-7.69-3.526.328-2.242-2.888-.911-4.8-2.242-.328-1.285,5.13-3.526.638-1.6-11.208-2.579-1.6-4.483-1.923-5.13,2.56,6.378,6.087,1.285,5.467-11.536-8.647-8.009-8.656-.647-8.647-8.328-2.57-6.378,4.164a50.675,50.675,0,0,1-4.811,2.57c-1.6.638-7.69,1.276-7.69,1.276L159.712,175l-7.362.319.638,3.526,11.845,1.923,6.087,6.734v11.217l-3.526,9.932.647,10.57-8.975,15.709-1.923,23.39,2.888,13.458,4.164,10.251,4.8.647-1.6-5.13-2.56-3.845-1.6-7.053,2.888-.638,4.483,11.536,3.207,10.251v8.337l6.087,7.362,10.934,8.018,16.62,4.428,5.13,4.8,3.845,5.13,5.768,3.526,7.053,1.923L236.3,331s-.328,3.207-.328,4.8-4.483,7.053-4.483,7.053l-3.526,6.378,2.56,7.053,7.053,2.888,9.932,10.251L252,371.348v4.8l.556,2.241a134.473,134.473,0,0,0,67.209-31.636l.164-2.323,8.656-15.7-4.164-2.888Zm33.331-126.581-3.526-6.087-4.483-7.043-1.285-9.613,5.768.957.319-3.207-4.164-.319,3.526-1.6,3.845-2.242v-3.2l-3.845-5.13-.82-6.9a135.083,135.083,0,0,0-158.464-38.388l7.39,5.23-4.483,5.768-6.087,1.285-.647,8.647-2.56.966-3.207,3.526.328,5.768,5.467.638-2.242,5.467h5.467l9.294-11.845.966-5.13,8.966-.647,2.242-3.845,9.294-.957.966-5.467,6.725-.319s4.811-2.56,5.768-2.56a39.816,39.816,0,0,1,5.467,1.595l4.811,3.845h6.725l5.768-3.517,7.371.638a7.9,7.9,0,0,0,3.526,1.285c1.6,0,6.378-2.251,6.378-2.251l9.294,5.768,3.845,2.888v4.8l4.811.647,1.595-2.888L284.4,142.6l-.328,2.57-9.613,2.56,5.467,7.053,11.536,6.378,4.811,6.378,7.052.647,1.595-3.207,2.57-.638-8.337-6.378-5.121-.638,4.164-1.285-3.845-5.467,5.467-.328,7.043,3.845,1.6,7.69,3.526,4.173,2.888,9.285,7.043,5.13v10.579l7.371,4.8-.319,3.526-.966,4.164,1.923,5.768.647,2.888,5.467.911,2.56-5.467Zm4.173-32.274v1.822l-1.6,5.121.966,4.492,3.517,1.276v6.087l-3.845-1.595-.957,17.312-3.845,7.043,2.56,8.975,4.164,3.845v17.312l4.173,13.458,4.483,10.26,7.371,1.913,2.56-6.378,1.048-.82a135.949,135.949,0,0,0,1.039-16.784,134.381,134.381,0,0,0-21.631-73.341Zm-74.024-2-21.149-9.294-9.294.319-2.242,6.087-3.845-4.164-7.053,1.6-.638,10.57,5.768,4.164,4.164-6.087,4.811,4.811,9.932,8.647,1.923,9.294,8.328,10.579,13.458-2.251-.3-4.811-2.879-5.467-.674-12.757,3.207-5.467Zm17.312,7.043-4.8-1.276-4.164,3.517,2.241,9.294h4.164Zm29.8,6.087L306.449,177.2l-2.251-3.845-2.56.966,2.242,6.378,1.923,8.337,4.8,1.923.966-1.285-2.816-4.784,8.337,3.207ZM223.8,298.626l-1.285,1.285,9.613,2.879,3.845,4.483,6.1.647,2.242-3.526-7.371-1.212Zm28.52,6.087-6.734,1.923.966,2.56h8.328l1.6-2.56-2.879.319Z" transform="translate(-39.949 -54.211)" fill="#ffbd69"/><path d="M258.02,306.267a135.6,135.6,0,0,1-135.6-135.593c0-3.472.137-6.916.392-10.324a135.593,135.593,0,1,0,237.345,99.5A135.256,135.256,0,0,1,258.02,306.267Z" transform="translate(-34.354 -58.672)" opacity="0.3"/></g><circle cx="135.019" cy="135.019" r="135.019" transform="translate(0 190.946) rotate(-45)" fill="none"/></g><g transform="translate(181.112 214.194)"><path d="M212.306,256.209l-48.94-36.1,1.9-2.788-5.212,3.5-.118,4.046,1.695-1.7L186.346,242.3a4.656,4.656,0,0,0,2.806,2.8,24.738,24.738,0,0,1,2.961,1.039l15.49,13.221Z" transform="translate(-159.94 -217.32)" fill="#fff" stroke="#263238" stroke-linecap="round" stroke-linejoin="round" stroke-width="1"/><path d="M326.7,282.074,313.582,271.8l-2.442-.246,11.818,11.144Z" transform="translate(-173.369 -222.137)" fill="#fff" stroke="#263238" stroke-linecap="round" stroke-linejoin="round" stroke-width="1"/><path d="M328.547,281.475l-100.02-24.7s-10.023-3.107-18.224,2.05-10.424,5.859-14.2,12.346a14.269,14.269,0,0,0,5.012,19.3c7.153,4.346,55.272,13.167,55.272,13.167s11.845,6.378,17.03,7.654,15.49,2.606,17.622,2.342a27.1,27.1,0,0,0,4.255-.966l11.49,2.488-4.255,2.1s-10.023-3.107-13.859,4.948,2.642,12.957,8.866,14.634a19.654,19.654,0,0,0,12.529-.465c1.95-.747,4.3-.055,6.032-3.107s2.515-4.7,1.64-6l-1.749-2.606a11.845,11.845,0,0,0,3.089-.747,26.79,26.79,0,0,0,4.474-3.189l16.893,5.859s4.8,4.337,7.891,4.72,3.945-.784,3.945-.784l23.827,8.966s2.223,2.478,4.182,2.861a9.439,9.439,0,0,0,3.872-.137l44.183,15.49.4,2.56,3.116-5.467-3.781.838L316.191,313.211s20.729-5.412,31.545-12.091l47.19,15.18-.574-1.695-43.281-16.675s1.686-3.955.465-5.786a23.336,23.336,0,0,0-3.745-3.9l25.732-46.953-5.658-1.112-34.379,40.238S332.456,281.119,328.547,281.475Z" transform="translate(-162.985 -219.35)" fill="#fff"/><g transform="translate(31.237 20.83)" clip-path="url(#b)"><path d="M325.008,320.756l16.93,5.859s4.8,4.337,7.891,4.72,3.945-.784,3.945-.784l23.827,8.966s2.223,2.478,4.182,2.861a9.439,9.439,0,0,0,3.872-.137l44.183,15.49.4,2.56,3.116-5.467-3.781.838L317.683,313.248s20.729-5.412,31.545-12.091l47.19,15.18-.574-1.695-43.281-16.675s1.686-3.955.465-5.786a23.336,23.336,0,0,0-3.745-3.9l25.732-46.953-3.763-.738c-2.041,2.734-26.424,35.636-30.178,41.1-3.955,5.713-12.757,5.276-12.757,5.276s-68.53-15.381-78.635-16.693-22.406-3.517-30.752,5.7-7.909,17.139-7.909,17.139l.784.638c16.183,4.447,46.006,9.914,46.006,9.914s11.845,6.378,17.03,7.654,15.49,2.606,17.622,2.342a27.1,27.1,0,0,0,4.255-.966l11.49,2.488-4.255,2.1s-10.023-3.107-13.859,4.948,2.642,12.957,8.866,14.634a19.654,19.654,0,0,0,12.529-.465c1.95-.747,4.3-.055,6.032-3.107s2.515-4.7,1.64-6l-1.749-2.606a11.845,11.845,0,0,0,3.089-.747,26.784,26.784,0,0,0,4.51-3.189Z" transform="translate(-195.713 -240.216)" stroke="#263238" stroke-linecap="round" stroke-linejoin="round" stroke-width="0.75" opacity="0.2"/></g><path d="M328.547,281.475l-100.02-24.7s-10.023-3.107-18.224,2.05-10.424,5.859-14.2,12.346a14.269,14.269,0,0,0,5.012,19.3c7.153,4.346,55.272,13.167,55.272,13.167s11.845,6.378,17.03,7.654,15.49,2.606,17.622,2.342a27.1,27.1,0,0,0,4.255-.966l11.49,2.488-4.255,2.1s-10.023-3.107-13.859,4.948,2.642,12.957,8.866,14.634a19.654,19.654,0,0,0,12.529-.465c1.95-.747,4.3-.055,6.032-3.107s2.515-4.7,1.64-6l-1.749-2.606a11.845,11.845,0,0,0,3.089-.747,26.79,26.79,0,0,0,4.474-3.189l16.893,5.859s4.8,4.337,7.891,4.72,3.945-.784,3.945-.784l23.827,8.966s2.223,2.478,4.182,2.861a9.439,9.439,0,0,0,3.872-.137l44.183,15.49.4,2.56,3.116-5.467-3.781.838L316.191,313.211s20.729-5.412,31.545-12.091l47.19,15.18-.574-1.695-43.281-16.675s1.686-3.955.465-5.786a23.336,23.336,0,0,0-3.745-3.9l25.732-46.953-5.658-1.112-34.379,40.238S332.456,281.119,328.547,281.475Z" transform="translate(-162.985 -219.35)" fill="none" stroke="#263238" stroke-linecap="round" stroke-linejoin="round" stroke-width="1"/><path d="M221.9,271.19l-7.5-3.18-3.59,3.809.4.282,8.483,3.545Z" transform="translate(-164.458 -221.822)" fill="#263238"/><path d="M207.816,263.864l-.692-.574c-1.622,1-2.934,1.822-4.064,2.652l.775.857Z" transform="translate(-163.77 -221.403)" fill="#263238"/><path d="M212.9,267.3l-4.128-2.7-4.128,3.043.091.091,4.711,3.226Z" transform="translate(-163.91 -221.519)" fill="#263238"/><path d="M226.852,272.963l-3.071-1.093L221.54,276.4l4.7,2.779,1.121.292Z" transform="translate(-165.411 -222.165)" fill="#263238"/><path d="M231.686,276.419c-.355-2.533-.765-2.077-.765-2.077l-2.46-.911.5,6.378,2.551.674a9.95,9.95,0,0,0,.173-4.064Z" transform="translate(-166.026 -222.304)" fill="#263238"/><ellipse cx="7.818" cy="7.289" rx="7.818" ry="7.289" transform="translate(124.37 112.868) rotate(-78.84)" stroke-width="1" stroke="#263238" stroke-linecap="round" stroke-linejoin="round" fill="#263238"/><path d="M362.256,306.6,357.7,305.21a2.907,2.907,0,0,1,1.13-2.451c1.212-.729,6.77.656,6.77.656" transform="translate(-177.504 -224.89)" fill="#fff" stroke="#263238" stroke-linecap="round" stroke-linejoin="round" stroke-width="1"/><path d="M294.553,316.74a136.793,136.793,0,0,1-14.105-4.8c-3.472-1.44-1.822-4.857-1.822-4.857l-13.276-3.645s-22.688-4.009-45.35-9.476c-15.107-3.645-22.5-8.1-25.75-10.67a14.269,14.269,0,0,0,6.834,10.989c7.153,4.346,55.272,13.167,55.272,13.167s11.845,6.378,17.03,7.654,15.49,2.606,17.622,2.342A25.856,25.856,0,0,0,294.553,316.74Z" transform="translate(-162.987 -223.179)" fill="#263238" stroke="#263238" stroke-linecap="round" stroke-linejoin="round" stroke-width="0.75"/><path d="M334.73,317.153,309.9,312.26l1.977,1.385,14.752,5.886C327.358,319.313,330.511,318.483,334.73,317.153Z" transform="translate(-173.259 -225.752)" fill="#263238" stroke="#263238" stroke-linecap="round" stroke-linejoin="round" stroke-width="0.75"/><line x1="4.729" y1="0.802" transform="translate(168.642 66.134)" fill="#fff" stroke="#263238" stroke-miterlimit="10" stroke-width="1"/><line x1="8.155" y1="1.376" transform="translate(176.651 67.482)" fill="#fff" stroke="#263238" stroke-miterlimit="10" stroke-width="1"/></g></g><path d="M434.853,219.6a20.82,20.82,0,0,0,.433-4.269,21.273,21.273,0,0,0-31.675-18.568,41.272,41.272,0,0,0-77.265-11.292,31.085,31.085,0,0,0-5.219-.457,30.232,30.232,0,0,0-24.941,13.1,21.249,21.249,0,0,0-33.756,17.221,21.641,21.641,0,0,0,.421,4.269Z" transform="translate(811.9 44.765)" fill="#fff"/><path d="M255.553,368.6a17.065,17.065,0,0,0,.337-3.355,16.74,16.74,0,0,0-24.905-14.611,32.469,32.469,0,0,0-60.765-8.875,24.326,24.326,0,0,0-4.113-.361,23.823,23.823,0,0,0-19.65,10.294A16.716,16.716,0,0,0,120,365.248a16.2,16.2,0,0,0,.337,3.355Z" transform="translate(725.049 53.396)" fill="#fff"/></g></svg>