<svg xmlns="http://www.w3.org/2000/svg" width="19.547" height="19.547" viewBox="0 0 19.547 19.547">
  <defs>
    <style>
      .cls-1 {
        fill: none;
        stroke: #ee3359;
        stroke-linecap: round;
        stroke-linejoin: round;
        stroke-width: 2px;
      }
    </style>
  </defs>
  <g id="Icon_feather-instagram" data-name="Icon feather-instagram" transform="translate(1 1)">
    <path id="Path_4" data-name="Path 4" class="cls-1" d="M7.387,3H16.16a4.387,4.387,0,0,1,4.387,4.387V16.16a4.387,4.387,0,0,1-4.387,4.387H7.387A4.387,4.387,0,0,1,3,16.16V7.387A4.387,4.387,0,0,1,7.387,3Z" transform="translate(-3 -3)"/>
    <path id="Path_5" data-name="Path 5" class="cls-1" d="M19.046,14.93a3.509,3.509,0,1,1-2.957-2.957,3.509,3.509,0,0,1,2.957,2.957Z" transform="translate(-6.763 -6.709)"/>
    <path id="Path_6" data-name="Path 6" class="cls-1" d="M26.25,9.75h0" transform="translate(-12.651 -5.802)"/>
  </g>
</svg>
