<svg xmlns="http://www.w3.org/2000/svg" width="20.411" height="20.449" viewBox="0 0 20.411 20.449">
  <defs>
    <style>
      .cls-1 {
        fill: none;
        stroke: #ee3359;
        stroke-linecap: round;
        stroke-linejoin: round;
        stroke-width: 2px;
      }
    </style>
  </defs>
  <path id="Icon_feather-phone" data-name="Icon feather-phone" class="cls-1" d="M21.577,16.811v2.777a1.851,1.851,0,0,1-2.018,1.851A18.319,18.319,0,0,1,11.571,18.6a18.05,18.05,0,0,1-5.554-5.554A18.319,18.319,0,0,1,3.175,5.018,1.851,1.851,0,0,1,5.017,3H7.794A1.851,1.851,0,0,1,9.646,4.592a11.885,11.885,0,0,0,.648,2.6,1.851,1.851,0,0,1-.417,1.953L8.7,10.322a14.81,14.81,0,0,0,5.554,5.554L15.431,14.7a1.851,1.851,0,0,1,1.953-.417,11.885,11.885,0,0,0,2.6.648A1.851,1.851,0,0,1,21.577,16.811Z" transform="translate(-2.167 -2)"/>
</svg>
