<svg id="Group_47" data-name="Group 47" xmlns="http://www.w3.org/2000/svg" width="250.017" height="202.171" viewBox="0 0 250.017 202.171">
  <defs>
    <style>
      .cls-1 {
        fill: #ffc67d;
      }

      .cls-2 {
        fill: #ffccd5;
      }

      .cls-3 {
        fill: #ffdfe5;
      }

      .cls-4 {
        fill: #263238;
      }

      .cls-5, .cls-8 {
        fill: #fff;
      }

      .cls-5 {
        stroke: #fff;
      }

      .cls-6 {
        fill: #3a4aa1;
      }

      .cls-7 {
        fill: #ffbe9d;
      }

      .cls-9 {
        fill: #eb996e;
      }

      .cls-10 {
        opacity: 0.3;
      }

      .cls-11 {
        opacity: 0.6;
      }

      .cls-12 {
        fill: #f97f34;
      }

      .cls-13 {
        opacity: 0.7;
      }

      .cls-14 {
        opacity: 0.28;
      }

      .cls-15 {
        fill: #efefef;
      }

      .cls-16 {
        fill: #ee3359;
      }

      .cls-17 {
        fill: #455a64;
      }
    </style>
  </defs>
  <ellipse id="Ellipse_15" data-name="Ellipse 15" class="cls-1" cx="101.086" cy="101.086" rx="101.086" ry="101.086" transform="translate(14.72 0)"/>
  <g id="Air_Support-pana" data-name="Air Support-pana" transform="translate(0 3.844)">
    <g id="freepik--background-complete--inject-3" transform="translate(0.429 31.622)">
      <path id="Path_124" data-name="Path 124" class="cls-2" d="M535.67,362.468h66.624s-5.892-10.721-23.04-9.162c-16.38,1.492-17.211-5.275-25.537-6.106S538.448,352.753,535.67,362.468Z" transform="translate(-352.706 -252.483)"/>
      <path id="Path_125" data-name="Path 125" class="cls-3" d="M470.57,424.158h29.08s-2.568-4.681-10.055-4.02c-7.147.652-7.513-2.3-11.167-2.68S471.781,419.915,470.57,424.158Z" transform="translate(-311.082 -286.363)"/>
      <path id="Path_126" data-name="Path 126" class="cls-2" d="M89.21,152.384h47.729s-4.221-7.679-16.505-6.562c-11.735,1.068-12.329-3.779-18.314-4.378S91.2,145.421,89.21,152.384Z" transform="translate(-89.21 -141.392)"/>
    </g>
    <g id="freepik--Character--inject-3" transform="translate(146.85 5.403)">
      <path id="Path_127" data-name="Path 127" class="cls-4" d="M452.366,234a36.495,36.495,0,1,1,38.862-33.98A36.495,36.495,0,0,1,452.366,234Zm4.838-72.427a36.093,36.093,0,1,0,33.609,38.416A36.093,36.093,0,0,0,457.2,161.573Z" transform="translate(-417.729 -126.072)"/>
      <path id="Path_769" data-name="Path 769" class="cls-5" d="M482.991,141.676h0a7.111,7.111,0,0,1-6.839-7.37c.054-2.26,0-4.114,0-4.114s-5.682-1.112-5.526-6.83,1.581-17.988,1.581-17.988l.085-.746c6.7-2.568,14.245-.683,19.757,3.918L492,109.72l-1.671,25.462A7.147,7.147,0,0,1,482.991,141.676Z" transform="translate(-446.67 -94.19)"/>
      <path id="Path_128" data-name="Path 128" class="cls-6" d="M490.828,211.777c.183-1.126.322-2.269.4-3.431a36.138,36.138,0,0,0-2.082-14.768l-7.768-7.393-.036.036c-.63-.6-1.179-1.139-1.461-1.456-5.552-6.254-9.925-8.353-18.314-8.376l-16.26.567c-3.024.286-9.9-.893-16.139,7.594h0c-4.043,7.442-7.5,14.151-10.421,19.847a36.1,36.1,0,0,0,5.36,20.61l11.167-20.646-2.01,30.661a36.276,36.276,0,0,0,41.52,1.34L472.893,222.6l1.42-22.5C477.186,203.911,482.564,209.789,490.828,211.777Z" transform="translate(-417.945 -134.537)"/>
      <path id="Path_129" data-name="Path 129" class="cls-7" d="M605.7,153.407s.29-.965,1.34-3.632l.17-6.884s1.224-.8,1.34,2.359a1.55,1.55,0,0,0,3.037.25,2.488,2.488,0,0,0-3.511-2.93s-.929-.389-.661-1.13,3.185-1.367,4.605.045a5.832,5.832,0,0,1,1.3,2.073s2.7-5.87,3.189-5.673.943.893-2.077,7.3c0,0,2.85-4.806,3.283-5.36s1.514-.54.764,1.09c-.085.179-2.385,5.168-2.385,5.168s2.278-2.89,2.475-3.127c.523-.585,1.148-.156.728.768-.317.7-1.662,3.7-1.662,3.7l-4.4,9.113.063.027" transform="translate(-521.409 -113.229)"/>
      <path id="Path_130" data-name="Path 130" class="cls-7" d="M482.991,141.676h0a7.111,7.111,0,0,1-6.839-7.37c.054-2.26,0-4.114,0-4.114s-5.682-1.112-5.526-6.83,1.581-17.988,1.581-17.988l.085-.746c6.7-2.568,14.245-.683,19.757,3.918L492,109.72l-1.671,25.462A7.147,7.147,0,0,1,482.991,141.676Z" transform="translate(-446.67 -94.19)"/>
      <path id="Path_131" data-name="Path 131" class="cls-4" d="M476.858,126.181a.835.835,0,0,0,.125-1.555.759.759,0,0,0-.585-.045.835.835,0,0,0-.125,1.554A.782.782,0,0,0,476.858,126.181Z" transform="translate(-449.533 -105.85)"/>
      <path id="Path_132" data-name="Path 132" class="cls-4" d="M473.908,124.13c.085.1.661-.3,1.447-.277s1.34.447,1.429.357-.04-.223-.281-.424a1.939,1.939,0,0,0-2.292-.063C473.943,123.906,473.867,124.1,473.908,124.13Z" transform="translate(-448.481 -105.205)"/>
      <path id="Path_133" data-name="Path 133" class="cls-4" d="M494.481,126.867a.826.826,0,1,0,.631-.077A.826.826,0,0,0,494.481,126.867Z" transform="translate(-459.639 -107.076)"/>
      <path id="Path_134" data-name="Path 134" class="cls-4" d="M492.439,126.442c.085.1.661-.3,1.447-.277s1.34.447,1.429.357-.04-.223-.281-.447a1.939,1.939,0,0,0-2.292-.063C492.492,126.223,492.4,126.4,492.439,126.442Z" transform="translate(-458.735 -106.473)"/>
      <path id="Path_135" data-name="Path 135" class="cls-4" d="M482.364,133.182a3.94,3.94,0,0,0-1.255-.313c-.206-.027-.371-.08-.384-.2a1.139,1.139,0,0,1,.17-.585c.219-.509.447-1.027.683-1.572a22.815,22.815,0,0,0,1.519-4.132,23.123,23.123,0,0,0-1.907,3.967c-.228.549-.447,1.072-.652,1.586a1.309,1.309,0,0,0-.147.84.522.522,0,0,0,.335.335,1.342,1.342,0,0,0,.344.058,4.06,4.06,0,0,0,1.3.018Z" transform="translate(-452.065 -106.865)"/>
      <path id="Path_136" data-name="Path 136" class="cls-8" d="M485.641,143.67c.84-.447-2.3,1.108-3.891.965a2.171,2.171,0,0,0,2.524.965C486,145.046,485.641,143.67,485.641,143.67Z" transform="translate(-452.826 -116.388)"/>
      <path id="Path_137" data-name="Path 137" class="cls-9" d="M482.94,160.854a13.227,13.227,0,0,0,7.5-1.814s-1.809,4.06-7.469,3.319Z" transform="translate(-453.485 -124.937)"/>
      <path id="Path_138" data-name="Path 138" class="cls-7" d="M514.856,125.9c.13-.031,4.257-.147,3.381,4.628s-5.4,2.309-5.387,2.171S514.856,125.9,514.856,125.9Z" transform="translate(-470.034 -106.597)"/>
      <path id="Path_139" data-name="Path 139" class="cls-9" d="M516.8,133.512c.022,0,.071.076.2.165a.827.827,0,0,0,.616.125,2.075,2.075,0,0,0,1.291-1.671,2.787,2.787,0,0,0,0-1.233.982.982,0,0,0-.509-.755.447.447,0,0,0-.532.138c-.089.125-.076.223-.1.228s-.089-.1,0-.29a.554.554,0,0,1,.241-.264.634.634,0,0,1,.482-.036,1.17,1.17,0,0,1,.733.893,2.817,2.817,0,0,1,.045,1.385,2.184,2.184,0,0,1-1.59,1.836.893.893,0,0,1-.737-.264C516.788,133.619,516.783,133.512,516.8,133.512Z" transform="translate(-472.216 -108.808)"/>
      <path id="Path_140" data-name="Path 140" class="cls-4" d="M470.859,106.112a9.416,9.416,0,0,0,7.933,0c3.033-1.246,6.5-1.715,7.21-1.072s.648,3.672,3.484,4.766c0,0-.621,5.74,1.689,5.7s3.757-10.18,3.757-10.18l-7.21-3.046-6.039-1.6-6.812.259-4.02,2.05Z" transform="translate(-446.795 -92.646)"/>
      <path id="Path_141" data-name="Path 141" class="cls-6" d="M466.756,92.475s-2.345-1.76-2.376-3.39,7.8-7.147,15.42-6.3,14.339,8,14.267,8.84-2.609,2.153-2.609,2.153Z" transform="translate(-443.215 -82.695)"/>
      <path id="Path_142" data-name="Path 142" class="cls-6" d="M469.627,101.177l-.107,1.613,24.675,1.644.107-1.608S482.747,95.571,469.627,101.177Z" transform="translate(-446.059 -91.745)"/>
      <g id="Group_15" data-name="Group 15" class="cls-10" transform="translate(23.461 7.556)">
        <path id="Path_143" data-name="Path 143" d="M469.627,101.487l-.107,1.613,24.675,1.644.107-1.608S481.532,96.457,469.627,101.487Z" transform="translate(-469.52 -99.611)"/>
      </g>
      <g id="Group_16" data-name="Group 16" class="cls-11" transform="translate(27.838 2.801)">
        <circle id="Ellipse_8" data-name="Ellipse 8" class="cls-8" cx="1.456" cy="1.456" r="1.456" transform="translate(3.54 1.485) rotate(-30.669)"/>
        <path id="Path_144" data-name="Path 144" class="cls-8" d="M494.27,91.365l.21-.7a.724.724,0,0,1,.733-.509l3.221.183a3,3,0,0,1-1.273.482s-.206.782-1.421.6a2.128,2.128,0,0,1-1.72.844l.264-.943" transform="translate(-487.454 -89.625)"/>
        <path id="Path_145" data-name="Path 145" class="cls-8" d="M483.425,90.94l-.174-.706a.728.728,0,0,0-.706-.554H479.32a2.989,2.989,0,0,0,1.251.549s.161.791,1.385.67a2.106,2.106,0,0,0,1.671.934l-.21-.956" transform="translate(-479.32 -89.36)"/>
      </g>
      <path id="Path_146" data-name="Path 146" class="cls-6" d="M467.732,105.889s-4.985,3.618,3.574,4.2c9.787.666,21.106-2.555,21.106-2.555S479.114,102.351,467.732,105.889Z" transform="translate(-444.271 -94.844)"/>
      <path id="Path_147" data-name="Path 147" class="cls-4" d="M494.051,103.386a.969.969,0,0,1-.246-.085l-.675-.29c-.295-.125-.648-.295-1.068-.447l-1.438-.549c-.536-.2-1.135-.371-1.787-.585s-1.34-.362-2.064-.563a35.178,35.178,0,0,0-4.833-.777,31.048,31.048,0,0,0-4.914-.036,23.754,23.754,0,0,0-3.944.643c-.554.13-1.041.308-1.474.447a7.641,7.641,0,0,0-1.077.447l-.661.317a1.191,1.191,0,0,1-.241.1,1.381,1.381,0,0,1,.219-.134l.648-.357c.29-.138.657-.281,1.072-.447a9.524,9.524,0,0,1,1.474-.447,22.8,22.8,0,0,1,3.967-.692,29.881,29.881,0,0,1,4.914.022,34.077,34.077,0,0,1,4.86.8c.733.205,1.434.375,2.073.585s1.237.4,1.787.612l1.434.581c.42.179.768.362,1.054.5l.661.326a1.659,1.659,0,0,1,.259.04Z" transform="translate(-446.12 -92.18)"/>
      <path id="Path_148" data-name="Path 148" class="cls-4" d="M494.245,106.987a.894.894,0,0,1-.255-.054l-.706-.2-2.6-.755a60.161,60.161,0,0,0-8.679-1.943,26.516,26.516,0,0,0-8.836.478c-1.112.241-2,.487-2.613.674-.3.085-.54.17-.7.214a.93.93,0,0,1-.25.063,1.9,1.9,0,0,1,.237-.1c.156-.058.389-.152.692-.25a26.708,26.708,0,0,1,11.493-1.3,54.665,54.665,0,0,1,8.7,2.015c1.094.331,1.97.616,2.577.813l.7.237A2.033,2.033,0,0,1,494.245,106.987Z" transform="translate(-446.109 -94.299)"/>
      <path id="Path_149" data-name="Path 149" class="cls-4" d="M515.6,97.2a2.787,2.787,0,0,1-.4,1.595,2.716,2.716,0,0,1-1.09,1.224,15.144,15.144,0,0,0,.893-1.34A13.3,13.3,0,0,0,515.6,97.2Z" transform="translate(-470.731 -90.72)"/>
      <path id="Path_150" data-name="Path 150" class="cls-4" d="M517.011,100.6a2.015,2.015,0,0,1-1.921,1.416,9.707,9.707,0,0,0,1.068-.563C516.7,101.063,516.957,100.567,517.011,100.6Z" transform="translate(-471.273 -92.6)"/>
      <path id="Path_151" data-name="Path 151" class="cls-4" d="M469.108,97.859a2.7,2.7,0,0,1-.733-.447,10.527,10.527,0,0,1-1.555-1.34,3.27,3.27,0,0,1-.661-.938,1.666,1.666,0,0,1-.125-.938,1.153,1.153,0,0,1,.255-.585c.1-.116.179-.152.188-.143a1.613,1.613,0,0,0-.3.746,1.635,1.635,0,0,0,.161.844,3.273,3.273,0,0,0,.634.893C468.063,97.1,469.135,97.806,469.108,97.859Z" transform="translate(-444.12 -88.655)"/>
      <path id="Path_152" data-name="Path 152" class="cls-4" d="M495.568,122.062c-.13.264-1.023.085-2.091,0s-1.974-.121-2.05-.406c-.027-.134.179-.322.572-.447a3.637,3.637,0,0,1,1.586-.161,3.756,3.756,0,0,1,1.523.478C495.461,121.709,495.626,121.932,495.568,122.062Z" transform="translate(-458.179 -103.901)"/>
      <path id="Path_153" data-name="Path 153" class="cls-4" d="M476.914,119.391c-.094.112-.308.094-.572.054s-.594-.1-.96-.143-.7-.04-.969-.054-.478-.04-.549-.17.036-.34.326-.532a2.14,2.14,0,0,1,2.51.255C476.95,119.034,477,119.284,476.914,119.391Z" transform="translate(-448.451 -102.37)"/>
      <path id="Path_154" data-name="Path 154" class="cls-6" d="M482.416,174.3l-.036-2.233s6.321-.447,7.085,4.556c0,0,1.684-5.682,7.5-5.159l.509,4.512.893,8.04-9.595,3.23-6.164-4.284Z" transform="translate(-453.175 -131.795)"/>
      <path id="Path_155" data-name="Path 155" class="cls-4" d="M487.95,177.694c0,.022-.174,0-.447.058a2.063,2.063,0,0,0-1.059.634,2.8,2.8,0,0,0-.728,1.671,8.672,8.672,0,0,0,.161,2.3l.063.4-.25-.322-.071-.089c-1.036-1.34-2.015-2.515-2.729-3.364l-.844-1.005a1.922,1.922,0,0,1-.295-.384,2.3,2.3,0,0,1,.353.331c.219.223.527.549.893.96.746.826,1.742,2,2.783,3.337l.071.089-.183.08a8.28,8.28,0,0,1-.143-2.363,3.268,3.268,0,0,1,.281-1.01,2.793,2.793,0,0,1,.532-.742,2.046,2.046,0,0,1,1.148-.612,1.2,1.2,0,0,1,.357,0Z" transform="translate(-452.826 -135.206)"/>
      <path id="Path_156" data-name="Path 156" class="cls-4" d="M507.906,176.449a1.922,1.922,0,0,1-.264.348c-.179.219-.447.527-.764.893-.657.759-1.572,1.787-2.591,2.935l-.192.21-.139.152-.04-.2a10.863,10.863,0,0,0-.558-1.952,4.546,4.546,0,0,0-.893-1.34,1.921,1.921,0,0,0-.934-.523c-.255-.049-.4-.04-.4-.058a.848.848,0,0,1,.411,0,1.818,1.818,0,0,1,1.018.5,4.282,4.282,0,0,1,.978,1.376,9.921,9.921,0,0,1,.59,1.983l-.179-.049.192-.214c1.018-1.135,1.952-2.158,2.635-2.89.34-.362.621-.657.818-.858S507.893,176.435,507.906,176.449Z" transform="translate(-463.549 -134.569)"/>
      <path id="Path_157" data-name="Path 157" class="cls-4" d="M497.305,245.511a.89.89,0,0,1,0-.161v-.478c0-.447.027-1.054.045-1.845.04-1.608.1-3.917.174-6.767.134-5.713.313-13.611.406-22.335s.071-16.626,0-22.335c-.04-2.854-.076-5.168-.112-6.767,0-.791-.027-1.407-.031-1.84v-.478a.952.952,0,0,1,0-.165.89.89,0,0,1,0,.165l.022.478c0,.447.04,1.05.072,1.836.063,1.6.121,3.913.179,6.772.107,5.718.156,13.62.058,22.335s-.29,16.626-.469,22.335c-.1,2.85-.179,5.159-.237,6.767-.036.791-.063,1.407-.08,1.84,0,.2-.022.362-.027.478A.9.9,0,0,1,497.305,245.511Z" transform="translate(-461.431 -137.829)"/>
      <path id="Path_158" data-name="Path 158" class="cls-4" d="M540.909,228.872c-.058,0,.179-4.244.527-9.47s.679-9.456.737-9.452-.179,4.239-.532,9.465S540.967,228.872,540.909,228.872Z" transform="translate(-485.555 -153.106)"/>
      <path id="Path_159" data-name="Path 159" class="cls-4" d="M454.983,235.865a2.684,2.684,0,0,1,0-.54c0-.389.031-.893.054-1.474.058-1.286.138-2.984.228-4.86s.188-3.574.255-4.86c.036-.59.063-1.081.085-1.47a4.247,4.247,0,0,1,.036-.54,11.021,11.021,0,0,1,.027,2.019c-.031,1.242-.1,2.962-.2,4.86s-.2,3.618-.286,4.86c-.045.621-.085,1.121-.121,1.47A2.643,2.643,0,0,1,454.983,235.865Z" transform="translate(-438.008 -159.84)"/>
      <path id="Path_160" data-name="Path 160" class="cls-8" d="M519.317,219.495a1.456,1.456,0,1,1-1.34-1.55A1.456,1.456,0,0,1,519.317,219.495Z" transform="translate(-472.002 -157.527)"/>
      <path id="Path_161" data-name="Path 161" class="cls-8" d="M522.3,219.549l.21-.7a.728.728,0,0,1,.737-.514l3.216.183a2.931,2.931,0,0,1-1.273.482s-.205.786-1.42.6a2.118,2.118,0,0,1-1.72.84l.264-.943" transform="translate(-475.125 -157.747)"/>
      <path id="Path_162" data-name="Path 162" class="cls-8" d="M511.461,219.125l-.174-.706a.715.715,0,0,0-.706-.549H507.36a2.957,2.957,0,0,0,1.246.549s.161.791,1.385.675c0,0,.331.715,1.675.929l-.214-.951" transform="translate(-466.996 -157.488)"/>
      <path id="Path_163" data-name="Path 163" class="cls-8" d="M466.5,178.044l.451,3.078,1.63-.125-.558-3.127Z" transform="translate(-444.388 -135.356)"/>
      <path id="Path_164" data-name="Path 164" class="cls-8" d="M471.62,177.824l.5,2.953,1.492-.031-.728-3.055Z" transform="translate(-447.221 -135.256)"/>
      <path id="Path_165" data-name="Path 165" class="cls-8" d="M476.24,177.638l.7,2.988,1.541-.054-1.01-3.073Z" transform="translate(-449.777 -135.151)"/>
      <path id="Path_166" data-name="Path 166" class="cls-8" d="M528.161,177.8l-.728,2.953-1.613-.281.849-3.024Z" transform="translate(-477.21 -135.123)"/>
      <path id="Path_167" data-name="Path 167" class="cls-8" d="M523.237,176.929l-.8,2.971-1.483-.174,1.023-2.975Z" transform="translate(-474.516 -134.736)"/>
      <path id="Path_168" data-name="Path 168" class="cls-8" d="M518.353,176.465l-1,2.966-1.532-.2,1.255-2.85Z" transform="translate(-471.677 -134.531)"/>
      <path id="Path_169" data-name="Path 169" class="cls-12" d="M491.945,195.86l-3.395,32.086,5.378,8.876,4.847-9.095L494.3,196.016Z" transform="translate(-456.589 -145.31)"/>
      <path id="Path_170" data-name="Path 170" class="cls-12" d="M502.538,180.57l-2.408,3.877,1.117.987,2.064-2.644A9.375,9.375,0,0,0,502.538,180.57Z" transform="translate(-462.996 -136.85)"/>
      <path id="Path_171" data-name="Path 171" class="cls-8" d="M519.707,228.471c0,.058-2.028-.031-4.525-.2s-4.516-.348-4.512-.407,2.028.031,4.525.2S519.711,228.413,519.707,228.471Z" transform="translate(-468.828 -163.01)"/>
      <path id="Path_172" data-name="Path 172" class="cls-8" d="M519.7,230.583a19.812,19.812,0,0,1-2.881-.089,19.385,19.385,0,0,1-2.868-.295,19.809,19.809,0,0,1,2.881.089A20.236,20.236,0,0,1,519.7,230.583Z" transform="translate(-470.643 -164.3)"/>
      <g id="Group_17" data-name="Group 17" class="cls-13" transform="translate(22.949 11.729)">
        <path id="Path_173" data-name="Path 173" class="cls-8" d="M471.856,111.676a1.885,1.885,0,0,1-.759-.049,5.27,5.27,0,0,1-1.724-.661,2.648,2.648,0,0,1-.791-.67.992.992,0,0,1-.179-.849.724.724,0,0,1,.353-.447c.125-.063.206-.049.206-.04s-.067.036-.165.107a.728.728,0,0,0-.25.447.858.858,0,0,0,.188.7,2.577,2.577,0,0,0,.746.608A8.862,8.862,0,0,0,471.856,111.676Z" transform="translate(-468.374 -108.953)"/>
      </g>
      <g id="Group_18" data-name="Group 18" class="cls-13" transform="translate(28.008 14.398)">
        <path id="Path_174" data-name="Path 174" class="cls-8" d="M481.277,115.049c0,.058-.357.1-.791.089s-.786-.067-.786-.125.353-.094.791-.085S481.277,114.991,481.277,115.049Z" transform="translate(-479.7 -114.927)"/>
      </g>
      <path id="Path_175" data-name="Path 175" class="cls-12" d="M494.7,187.055l2.216-.085.737,2.006-.541,2.122-2.354-.156-1.126-1.885Z" transform="translate(-459.399 -140.391)"/>
      <path id="Path_176" data-name="Path 176" class="cls-4" d="M498.447,196.211a2.113,2.113,0,0,1-1.059.179,2.072,2.072,0,0,1-1.059-.179A17.945,17.945,0,0,1,498.447,196.211Z" transform="translate(-460.893 -145.487)"/>
      <path id="Path_177" data-name="Path 177" class="cls-4" d="M498.5,187.38a24.591,24.591,0,0,1-2.126,3.962,24.167,24.167,0,0,1,2.126-3.962Z" transform="translate(-460.916 -140.618)"/>
      <path id="Path_178" data-name="Path 178" class="cls-4" d="M501.734,189.157c-.058.031-.29-.406-.487-.969a2.35,2.35,0,0,1-.219-1.068,3.968,3.968,0,0,1,.415,1A3.752,3.752,0,0,1,501.734,189.157Z" transform="translate(-463.493 -140.474)"/>
      <g id="Group_19" data-name="Group 19" class="cls-14" transform="translate(37.543 42.108)">
        <path id="Path_179" data-name="Path 179" d="M501.128,177.2c-.264,0,.179.6.33.817a2.753,2.753,0,0,1,.326.719,21.331,21.331,0,0,1,.938,4.119c.022.174.071.384.241.447s.313-.1.42-.232a61.7,61.7,0,0,0,4.422-6.106l-3.94,4.105S503.514,177.326,501.128,177.2Z" transform="translate(-501.046 -176.96)"/>
      </g>
      <path id="Path_180" data-name="Path 180" class="cls-12" d="M492.809,184.089l-2.381-2.479a5.019,5.019,0,0,0,.205,3.314c.054.1,1.108,1.166,1.108,1.166Z" transform="translate(-457.52 -137.425)"/>
      <g id="Group_20" data-name="Group 20" class="cls-14" transform="translate(29.768 42.509)">
        <path id="Path_181" data-name="Path 181" d="M483.64,178.7s3.5,5.1,3.98,5.2-.411-4.914,1.916-5.526c0,0-.067-.541-1.023-.523s-2.461,2.162-1.711,4.663Z" transform="translate(-483.64 -177.859)"/>
      </g>
      <g id="Group_21" data-name="Group 21" class="cls-14" transform="translate(56.141 58.984)">
        <path id="Path_182" data-name="Path 182" d="M543.015,214.74s.2.353.563.969c1.925,3.247,8.532,13.7,15.59,17.157,0,0-7.219-.893-16.487-11.614Z" transform="translate(-542.68 -214.74)"/>
      </g>
      <g id="Group_22" data-name="Group 22" class="cls-14" transform="translate(33.837 51.77)">
        <path id="Path_183" data-name="Path 183" d="M492.75,232.49l4.717,10.475,5.4-13.133L496.7,198.59l4.4,30.648-4.847,9.095Z" transform="translate(-492.75 -198.59)"/>
      </g>
      <path id="Path_184" data-name="Path 184" class="cls-6" d="M574.509,188.516l11.726-21.276,11.511,4.02s-16.148,37.031-21.808,35.329S574.509,188.516,574.509,188.516Z" transform="translate(-503.31 -129.474)"/>
      <path id="Path_185" data-name="Path 185" class="cls-4" d="M436.676,313.82c.045.036-4.324,5.95-9.756,13.209s-9.876,13.115-9.921,13.079,4.324-5.945,9.76-13.2S436.627,313.789,436.676,313.82Z" transform="translate(-416.999 -210.578)"/>
    </g>
    <g id="freepik--Airplane--inject-3" transform="translate(0 46.063)">
      <path id="Path_186" data-name="Path 186" class="cls-6" d="M139.214,228c-.576.192-8.554,11.167-8.554,11.167l10.542.858,3.739-10.479Z" transform="translate(-111.716 -203.753)"/>
      <path id="Path_187" data-name="Path 187" class="cls-6" d="M117.72,254.539S139.032,270.1,143.767,274.5s97.084,40.252,110.275,38.559c0,0,1.032-9.532-15.054-22.415-16.014-12.82-73.258-31.8-73.133-32.077l-42.391-16.041L108.17,236.64l2.5,10.274Z" transform="translate(-99.272 -208.534)"/>
      <path id="Path_188" data-name="Path 188" class="cls-6" d="M113.265,260.94l-17.184,9.546-7.831-2.1L100.757,257.5S111.366,259.6,113.265,260.94Z" transform="translate(-88.25 -220.076)"/>
      <path id="Path_189" data-name="Path 189" class="cls-6" d="M101.96,212.77l3.819,14.96,15.071,5.021-12.507-18.9Z" transform="translate(-95.836 -195.327)"/>
      <path id="Path_190" data-name="Path 190" class="cls-15" d="M199.58,273.36s-5.981,3.23-3.5,16.787l2.309,8.326,7.621,3.314s-5.539-12.789-3.247-20.043,3.574-5.807,3.574-5.807Z" transform="translate(-147.58 -228.851)"/>
      <path id="Path_191" data-name="Path 191" class="cls-15" d="M237.28,288.17s-6.446,2.533-5.874,11.886,1.412,12.8,1.412,12.8l8.693,3.475s-1.34-15.889,0-18.761,4.936-6.209,4.936-6.209Z" transform="translate(-167.439 -237.046)"/>
      <path id="Path_192" data-name="Path 192" class="cls-15" d="M271.5,301.18s-7.263,2.64-6.455,12.378,0,11.9,0,11.9,66.45,25.229,76.6,23.8c0,0-2.345-19.847-27.387-30.858C291.915,308.564,271.5,301.18,271.5,301.18Z" transform="translate(-186.036 -244.244)"/>
      <path id="Path_193" data-name="Path 193" class="cls-15" d="M274.436,173.72l8.018,3.252s5.539,7.826,5.36,11.074-3.431,49.614-3.431,49.614l-26.739-10.274,4.391-9.738-6.106-2.68v-1.34l7.339-.192,3.926-10.31-6.111-2.1-.384-2.1,8.581-.96,4.583-12.793Z" transform="translate(-181.028 -173.72)"/>
      <path id="Path_194" data-name="Path 194" class="cls-15" d="M162.4,327.225c-1.1.1-17.765,15.782-17.765,15.782h-9.769v1.148l4.02,2.68-8.09,7.638-9.242-.764v1.72l5.2,2.479-15.192,13.548-7.7-4.02s1.34,8.018,5.1,9.738,11.074,4.583,11.074,4.583l77.608-42.4S190.518,324.813,162.4,327.225Z" transform="translate(-96.887 -258.506)"/>
      <path id="Path_195" data-name="Path 195" class="cls-6" d="M395.454,365.61s-.473,3.038-13.964,4.565V372.9s13.678.558,17.157-3.35A40.086,40.086,0,0,0,395.454,365.61Z" transform="translate(-250.502 -279.894)"/>
      <path id="Path_196" data-name="Path 196" class="cls-15" d="M405.39,369.213l3.292,4.976,1.872-1.434L407.4,368.57Z" transform="translate(-263.726 -281.532)"/>
      <path id="Path_197" data-name="Path 197" class="cls-15" d="M390.94,373.06l.112.514.934,4.3,2.729-.621-1.126-4.194" transform="translate(-255.73 -284.016)"/>
      <path id="Path_198" data-name="Path 198" class="cls-4" d="M298.772,308.561a2.406,2.406,0,0,1-.406-.13l-1.148-.447-4.208-1.617-13.847-5.418-13.812-5.49-4.172-1.7-1.13-.469a2.407,2.407,0,0,1-.389-.183,2.4,2.4,0,0,1,.406.13l1.148.424,4.208,1.617L279.27,300.7l13.812,5.49,4.172,1.7,1.13.469a2.412,2.412,0,0,1,.389.206Z" transform="translate(-183.092 -239.779)"/>
      <path id="Path_199" data-name="Path 199" class="cls-4" d="M319.739,199.17a.611.611,0,0,1,0,.134v.393c0,.344-.036.849-.089,1.5-.094,1.3-.259,3.185-.482,5.512-.447,4.65-1.117,11.065-1.912,18.145s-1.559,13.49-2.158,18.122c-.295,2.318-.554,4.19-.75,5.481-.094.648-.183,1.148-.25,1.483-.031.156-.054.281-.076.384a.422.422,0,0,1-.036.13.6.6,0,0,1,0-.134c0-.1.031-.232.049-.389.049-.339.121-.84.2-1.487.161-1.34.389-3.189.666-5.49.536-4.659,1.269-11.06,2.082-18.131s1.479-13.472,1.992-18.136c.237-2.3.447-4.177.563-5.5.071-.648.112-1.152.138-1.5q.027-.237.04-.389A.447.447,0,0,1,319.739,199.17Z" transform="translate(-213.149 -187.802)"/>
      <path id="Path_200" data-name="Path 200" class="cls-4" d="M259.144,344.579a3.6,3.6,0,0,1,.447-.2,13.025,13.025,0,0,0,1.246-.639,29.323,29.323,0,0,0,4.132-3.064,5.934,5.934,0,0,0,1.094-1.273,3.171,3.171,0,0,0,.469-1.706,4.936,4.936,0,0,0-1.729-3.489,14.813,14.813,0,0,0-3.766-2.408,45.827,45.827,0,0,0-4.44-1.934,46.653,46.653,0,0,0-16.662-2.89,50.547,50.547,0,0,0-5.146.322l-1.394.188-.362.04h-.125a.549.549,0,0,1,.121-.031l.357-.067,1.389-.237a43.217,43.217,0,0,1,5.155-.411,45.026,45.026,0,0,1,21.227,4.775,15.056,15.056,0,0,1,3.819,2.466,5.128,5.128,0,0,1,1.787,3.667,3.359,3.359,0,0,1-.514,1.818,6.146,6.146,0,0,1-1.144,1.3,27.174,27.174,0,0,1-4.208,3.015,10.719,10.719,0,0,1-1.278.594c-.152.063-.268.094-.348.121Z" transform="translate(-168.291 -258.403)"/>
      <path id="Path_201" data-name="Path 201" class="cls-4" d="M213.633,343.82c.04.067-16.461,9.859-36.852,21.888s-36.955,21.7-36.991,21.633,16.461-9.854,36.857-21.888S213.588,343.757,213.633,343.82Z" transform="translate(-116.767 -267.837)"/>
      <path id="Path_202" data-name="Path 202" class="cls-4" d="M187.413,397.8a2.479,2.479,0,0,0,.473-.947,3.087,3.087,0,0,0-.786-2.68,4.5,4.5,0,0,0-1.653-1.077,11.855,11.855,0,0,0-2.233-.594l-5.284-.934c-3.748-.688-7.147-1.34-9.582-1.787l-2.9-.572-.786-.17a1.159,1.159,0,0,1-.272-.076.955.955,0,0,1,.281.022l.8.121,2.912.487c2.461.424,5.852,1.027,9.6,1.715l5.275.974a12.221,12.221,0,0,1,2.278.63,4.587,4.587,0,0,1,1.711,1.161,3.167,3.167,0,0,1,.746,2.814,2.046,2.046,0,0,1-.371.728C187.493,397.745,187.444,397.812,187.413,397.8Z" transform="translate(-130.379 -292.816)"/>
      <path id="Path_203" data-name="Path 203" class="cls-4" d="M334.714,360.326c-.031.067-5.954-2.175-13.231-5.012s-13.16-5.2-13.133-5.266,5.95,2.175,13.231,5.012S334.741,360.255,334.714,360.326Z" transform="translate(-210.033 -271.283)"/>
    </g>
    <g id="freepik--speech-bubble--inject-3" transform="translate(103.944 0)">
      <path id="Path_204" data-name="Path 204" class="cls-4" d="M375.53,111.428l-13,.223.049-.022a24.054,24.054,0,0,1-18.551,7.393,25.215,25.215,0,0,1-8.313-1.867A24.278,24.278,0,0,1,320.971,93.77a8.788,8.788,0,0,1,.1-1.34c.049-.447.1-.893.152-1.34a11.944,11.944,0,0,1,.255-1.313l.295-1.313c.121-.447.272-.858.411-1.286a13.209,13.209,0,0,1,.447-1.282c.183-.415.371-.831.554-1.246l.277-.625c.094-.21.219-.4.326-.6a24.6,24.6,0,0,1,6.7-7.866,24.188,24.188,0,0,1,37.151,10.319,12.309,12.309,0,0,1,.6,1.689c.165.567.335,1.126.482,1.68a26.09,26.09,0,0,1,.509,3.292c.036.536.1,1.063.116,1.581s0,1.032-.031,1.532v.746a6.64,6.64,0,0,1-.08.724q-.08.719-.161,1.407v-.045l6.45,12.95-6.611-12.842h0v-.027c.049-.447.1-.925.156-1.4.022-.241.058-.478.076-.724s0-.491,0-.737c0-.5,0-1.005.022-1.523a13.446,13.446,0,0,0-.121-1.568,25.669,25.669,0,0,0-.514-3.27c-.147-.549-.322-1.1-.482-1.662a13.192,13.192,0,0,0-.6-1.675,23.925,23.925,0,0,0-36.821-10.189A24.292,24.292,0,0,0,324,83.6c-.107.2-.232.389-.326.594l-.272.621c-.183.411-.366.822-.545,1.233s-.29.844-.447,1.269-.286.844-.406,1.273-.192.867-.29,1.3a10.749,10.749,0,0,0-.25,1.3c-.054.447-.1.893-.156,1.309a8.557,8.557,0,0,0-.1,1.309,24,24,0,0,0,14.6,23.166,25.041,25.041,0,0,0,8.219,1.885,24.037,24.037,0,0,0,7.625-.853,24.318,24.318,0,0,0,10.819-6.45h.04Z" transform="translate(-320.947 -70.6)"/>
      <path id="Path_205" data-name="Path 205" class="cls-16" d="M372.487,112.518l.813-2.528,3.524,1.278s-1.51-5.329-5.883-2.484L362.07,105.6l.022-.067s-.755-4.172-5.807-1.992l3.216,1.412-.862,2.533-3.52-1.282s1.479,5.231,5.762,2.555l8.965,3.18s.755,4.172,5.807,1.992Z" transform="translate(-339.855 -88.477)"/>
      <path id="Path_206" data-name="Path 206" class="cls-17" d="M345.73,126.466s3.154-2.144,5.807-2.3,4.391.8,4.855,1.4a23.051,23.051,0,0,0,2.6,2.171l3.779,2.01a1.1,1.1,0,0,1,.447,1.483h0a1.1,1.1,0,0,1-1.34.527l-4.2-1.483a4.914,4.914,0,0,0,2.841,2.533,8.863,8.863,0,0,0,3.431.42l2.917-.782a.893.893,0,0,1,.978.393h0a.893.893,0,0,1-.491,1.286l-2.64.831a8.456,8.456,0,0,1-4.4.174l-.786-.183a12.249,12.249,0,0,1-5.159-2.568l-2.077-1.751a4.136,4.136,0,0,0-3.7-.447l-1.4.523Z" transform="translate(-334.66 -100.232)"/>
    </g>
  </g>
  <path id="Path_770" data-name="Path 770" class="cls-3" d="M631.055,52.858c.294-2.115-2.693-3.856-4.933-4.035a12.834,12.834,0,0,1-3.2-.279c-2.195-.763-3.073-3.6-5.212-4.489-1.6-.678-3.447-.075-4.988.708s-3.088,1.766-4.823,1.875c-1.5.095-3.147-.464-4.489.274-1,.549-1.5,1.681-2.4,2.349a5.673,5.673,0,0,1-3.147.853,8.852,8.852,0,0,0-3.242.529,2.543,2.543,0,0,0-1.621,2.6Z" transform="translate(-477.013 44.446)"/>
  <path id="Path_771" data-name="Path 771" class="cls-2" d="M723.148,133.107c.458-3.335-4.241-6.073-7.776-6.362-1.683-.129-3.435.119-5.038-.428-3.455-1.215-4.839-5.685-8.214-7.109-2.519-1.055-5.426-.11-7.876,1.115s-4.869,2.788-7.6,2.987c-2.38.159-4.978-.727-7.039.438-1.553.866-2.36,2.648-3.793,3.7a9.141,9.141,0,0,1-4.978,1.344,13.8,13.8,0,0,0-5.108.836c-1.583.717-2.887,2.39-2.559,4.092Z" transform="translate(-627.016 47.208)"/>
</svg>
